G04*
G04 #@! TF.GenerationSoftware,Altium Limited,Altium Designer,19.1.8 (144)*
G04*
G04 Layer_Color=16711935*
%FSLAX25Y25*%
%MOIN*%
G70*
G01*
G75*
%ADD15C,0.00600*%
%ADD76C,0.02000*%
G36*
X272812Y88734D02*
X270455D01*
Y90698D01*
X272812D01*
Y88734D01*
D02*
G37*
G36*
X264150Y84985D02*
X261766D01*
Y86958D01*
X264150D01*
Y84985D01*
D02*
G37*
G36*
X272812Y81242D02*
X270455D01*
Y83218D01*
X272812D01*
Y81242D01*
D02*
G37*
G36*
Y68576D02*
X270455D01*
Y70540D01*
X272812D01*
Y68576D01*
D02*
G37*
G36*
X264150Y64827D02*
X261766D01*
Y66800D01*
X264150D01*
Y64827D01*
D02*
G37*
G36*
X272812Y61084D02*
X270455D01*
Y63060D01*
X272812D01*
Y61084D01*
D02*
G37*
G36*
X75246Y53650D02*
X73256D01*
Y56037D01*
X75246D01*
Y53650D01*
D02*
G37*
G36*
X71488D02*
X69516D01*
Y56034D01*
X71488D01*
Y53650D01*
D02*
G37*
G36*
X67730D02*
X65776D01*
Y56040D01*
X67730D01*
Y53650D01*
D02*
G37*
G36*
X272812Y48418D02*
X270455D01*
Y50382D01*
X272812D01*
Y48418D01*
D02*
G37*
G36*
X75232Y44988D02*
X73256D01*
Y47345D01*
X75232D01*
Y44988D01*
D02*
G37*
G36*
X71486D02*
X69516D01*
Y47346D01*
X71486D01*
Y44988D01*
D02*
G37*
G36*
X67739D02*
X65776D01*
Y47345D01*
X67739D01*
Y44988D01*
D02*
G37*
G36*
X264150Y44669D02*
X261766D01*
Y46642D01*
X264150D01*
Y44669D01*
D02*
G37*
G36*
X272812Y40926D02*
X270455D01*
Y42902D01*
X272812D01*
Y40926D01*
D02*
G37*
G36*
Y28260D02*
X270455D01*
Y30224D01*
X272812D01*
Y28260D01*
D02*
G37*
G36*
X264150Y24512D02*
X261766D01*
Y26484D01*
X264150D01*
Y24512D01*
D02*
G37*
G36*
X272812Y20768D02*
X270455D01*
Y22744D01*
X272812D01*
Y20768D01*
D02*
G37*
G36*
X43912Y19956D02*
X41555D01*
Y21932D01*
X43912D01*
Y19956D01*
D02*
G37*
G36*
X35250Y16216D02*
X32866D01*
Y18188D01*
X35250D01*
Y16216D01*
D02*
G37*
G36*
X43912Y12476D02*
X41555D01*
Y14439D01*
X43912D01*
Y12476D01*
D02*
G37*
D15*
X64902Y52075D02*
X76102D01*
X64902Y48925D02*
X76102D01*
D76*
X0Y0D02*
X275590D01*
Y181102D01*
X0D02*
X275590D01*
X0Y0D02*
Y181102D01*
M02*
