G04*
G04 #@! TF.GenerationSoftware,Altium Limited,Altium Designer,19.1.8 (144)*
G04*
G04 Layer_Color=16711935*
%FSLAX25Y25*%
%MOIN*%
G70*
G01*
G75*
%ADD23P,0.05864X4X90.0*%
%ADD24R,0.04147X0.04147*%
%ADD32R,0.04343X0.03162*%
%ADD39R,0.10642X0.07493*%
%ADD41R,0.08477X0.08477*%
%ADD42C,0.08477*%
%ADD43O,0.05800X0.10800*%
%ADD44C,0.04200*%
%ADD45C,0.08800*%
%ADD46C,0.08674*%
%ADD47C,0.00800*%
%ADD48C,0.14186*%
%ADD49O,0.04737X0.07099*%
%ADD50O,0.04737X0.09068*%
%ADD51C,0.15800*%
%ADD52C,0.03162*%
%ADD93R,0.04737X0.13005*%
D23*
X185442Y96043D02*
D03*
X189758Y100357D02*
D03*
D24*
X163551Y93700D02*
D03*
X157449D02*
D03*
X270851Y76000D02*
D03*
X264749D02*
D03*
X270851Y96000D02*
D03*
X264749D02*
D03*
X270851Y36000D02*
D03*
X264749D02*
D03*
X270851Y55700D02*
D03*
X264749D02*
D03*
D32*
X262772Y65816D02*
D03*
X271828Y62076D02*
D03*
Y69556D02*
D03*
X262772Y85974D02*
D03*
X271828Y82233D02*
D03*
Y89714D02*
D03*
X262772Y25500D02*
D03*
X271828Y21760D02*
D03*
Y29240D02*
D03*
X262772Y45658D02*
D03*
X271828Y41918D02*
D03*
Y49398D02*
D03*
D39*
X74974Y8800D02*
D03*
X59226D02*
D03*
D41*
X19500Y54343D02*
D03*
X256000Y129657D02*
D03*
Y30315D02*
D03*
Y70130D02*
D03*
D42*
X19500Y34657D02*
D03*
X256000Y149343D02*
D03*
Y50000D02*
D03*
Y109500D02*
D03*
Y89815D02*
D03*
D43*
X197658Y151100D02*
D03*
X207658D02*
D03*
X217657D02*
D03*
X57500D02*
D03*
X47500D02*
D03*
X37500D02*
D03*
X27500D02*
D03*
D44*
X142000Y45000D02*
D03*
X162000Y49000D02*
D03*
Y41000D02*
D03*
D45*
X61000Y79500D02*
D03*
Y89500D02*
D03*
X71000Y84500D02*
D03*
X61000Y99500D02*
D03*
Y109500D02*
D03*
Y119500D02*
D03*
X71000Y94500D02*
D03*
Y114500D02*
D03*
Y124500D02*
D03*
D46*
X90016Y80484D02*
D03*
X90016Y90484D02*
D03*
X90016Y113516D02*
D03*
Y123516D02*
D03*
D47*
X36000Y79500D02*
D03*
Y124500D02*
D03*
X55122Y20370D02*
D03*
X77878D02*
D03*
X10630Y10630D02*
D03*
X264961D02*
D03*
D48*
X48008Y133496D02*
D03*
Y70504D02*
D03*
D49*
X49492Y6000D02*
D03*
X83508D02*
D03*
D50*
X49492Y22457D02*
D03*
X83508D02*
D03*
D51*
X264961Y170472D02*
D03*
X10630D02*
D03*
D52*
X213240Y77477D02*
D03*
X211272Y73540D02*
D03*
X207335Y81414D02*
D03*
X209303Y77477D02*
D03*
X207335Y73540D02*
D03*
X209303Y69603D02*
D03*
X205366Y85351D02*
D03*
X203398Y81414D02*
D03*
X205366Y77477D02*
D03*
X203398Y73540D02*
D03*
X205366Y69603D02*
D03*
X203398Y65665D02*
D03*
X199461Y89288D02*
D03*
X201429Y85351D02*
D03*
X199461Y81414D02*
D03*
X201429Y77477D02*
D03*
X199461Y73540D02*
D03*
X201429Y69603D02*
D03*
X199461Y65665D02*
D03*
X201429Y61728D02*
D03*
X197492Y85351D02*
D03*
X195524Y81414D02*
D03*
X197492Y77477D02*
D03*
X195524Y73540D02*
D03*
X197492Y69603D02*
D03*
X195524Y65665D02*
D03*
X197492Y61728D02*
D03*
X193555Y85351D02*
D03*
X191587Y81414D02*
D03*
X193555Y77477D02*
D03*
X191587Y73540D02*
D03*
X193555Y69603D02*
D03*
X189618Y77477D02*
D03*
X187650Y73540D02*
D03*
X189618Y69603D02*
D03*
X185681Y77477D02*
D03*
X144343Y97162D02*
D03*
X142374Y101099D02*
D03*
X140406Y97162D02*
D03*
X142374Y93225D02*
D03*
X136469Y105035D02*
D03*
X138437Y101099D02*
D03*
X136469Y97162D02*
D03*
X138437Y93225D02*
D03*
X136469Y89288D02*
D03*
X134500Y108973D02*
D03*
X132532Y105035D02*
D03*
X134500Y101099D02*
D03*
X132532Y97162D02*
D03*
X134500Y93225D02*
D03*
X132532Y89288D02*
D03*
X134500Y85351D02*
D03*
X130563Y108973D02*
D03*
X128595Y105035D02*
D03*
X130563Y101099D02*
D03*
X128595Y97162D02*
D03*
X130563Y93225D02*
D03*
X128595Y89288D02*
D03*
X130563Y85351D02*
D03*
X126626Y108973D02*
D03*
X124658Y105035D02*
D03*
X126626Y101099D02*
D03*
X124658Y97162D02*
D03*
X126626Y93225D02*
D03*
X124658Y89288D02*
D03*
X126626Y85351D02*
D03*
X122689Y101099D02*
D03*
X120721Y97162D02*
D03*
X122689Y93225D02*
D03*
X118752Y101099D02*
D03*
X116784Y97162D02*
D03*
X118752Y93225D02*
D03*
X55760Y61728D02*
D03*
X53791Y57791D02*
D03*
X51823Y61728D02*
D03*
D93*
X241850Y9055D02*
D03*
X231850D02*
D03*
X241850Y30315D02*
D03*
X231850D02*
D03*
X221850Y9055D02*
D03*
Y30315D02*
D03*
X211850Y9055D02*
D03*
Y30315D02*
D03*
X201850Y9055D02*
D03*
Y30315D02*
D03*
X191850Y9055D02*
D03*
Y30315D02*
D03*
X181850Y9055D02*
D03*
Y30315D02*
D03*
X171850Y9055D02*
D03*
Y30315D02*
D03*
X161850Y9055D02*
D03*
Y30315D02*
D03*
X151850D02*
D03*
Y9055D02*
D03*
M02*
