M48
;Layer_Color=9474304
;FILE_FORMAT=2:5
INCH,TZ
;TYPE=PLATED
T1F00S00C0.01181
T2F00S00C0.01575
T3F00S00C0.01968
T5F00S00C0.02559
T6F00S00C0.03937
T7F00S00C0.04000
T8F00S00C0.04331
T9F00S00C0.05118
T10F00S00C0.06732
T11F00S00C0.12598
T12F00S00C0.13032
;TYPE=NON_PLATED
T13F00S00C0.03500
%
T01
X33500Y3800
X65500Y21000
X67500Y31500
X72600Y38700
X70700Y41400
X75400Y40800
X115400Y26100
X115600Y22300
X120300Y22000
X118400Y17200
X113500Y16300
X134900Y24700
X142500Y22464
Y33900
X142100Y37600
X137000Y43000
X157000Y37500
X175600Y40800
X178500Y43500
X186600Y29900
X190000Y18100
X182600Y17800
X178400Y18600
X187000Y12500
X196700Y9300
Y15700
Y1900
X206800Y2700
X206900Y7700
X207100Y15800
X201900Y17500
X206500Y27600
X217000Y28900
X225800Y27900
X226800Y34800
X225100Y38000
X232900Y40300
X231800Y18300
X237300Y19300
X197200Y33400
X200800Y46300
X201429Y61728
X197492
X199461Y65665
X203398
X205366Y69603
X209303
X207335Y73540
X211272
X213240Y77477
X209303
X205366
X201429
X197492
X199461Y81414
X203398
X207335
X205366Y85351
X201429
X197492
X199461Y89288
Y73540
X203398
X201429Y69603
X197492
X227400Y71319
X232700Y65637
X222793Y61600
X227700Y96300
X215500Y98600
X219000Y107000
X212400Y112400
X212000Y117400
X206600Y105900
X197049Y104900
X205000Y133500
X215800Y137100
X229000Y112500
X234449Y110500
X196000Y112500
Y117500
X191200Y111300
X192500Y103100
X180900Y100200
X176900
X172400Y100700
X168050Y99950
X171000Y92500
X167500Y90000
X163500Y87000
X160400Y82900
X175600
X176000Y95000
X181100Y95100
X193555Y85351
X191587Y81414
X195524
X193555Y77477
X189618
X185681
X187650Y73540
X191587
X195524
X193555Y69603
X189618
X195524Y65665
X196800Y46400
X182500Y47900
X172900Y48100
X174000Y54800
X173500Y68700
X164841Y63500
X163700Y60500
X160400Y60100
X157400Y57600
X154450Y54900
X142673Y55673
X133100Y52600
X130300Y58500
X131500Y62057
X135800Y62100
X140500Y67500
X144000Y72300
X128300Y66400
X124500Y67500
X112000Y67000
X109800Y70000
X116500Y58000
X126626Y85351
X130563
X134500
X132532Y89288
X136469
X138437Y93225
X142374
X140406Y97162
X144343
X142374Y101099
X138437
X134500
X130563
X126626
X122689
X118752
X116784Y97162
X120721
X124658
X128595
X132532
X136469
X134500Y93225
X130563
X126626
X122689
X118752
X124658Y89288
X128595
Y105035
X132532
X136469
X134500Y108973
X130563
X126626
X124658Y105035
X123100Y120900
X113600Y122100
X112900Y126687
X111400Y131600
X104400Y131300
X98500Y131100
X94800Y141000
X103900Y144400
X115000Y141051
X112900Y111300
X102100Y105600
X99000Y103800
X101500Y93500
X105151Y96049
X99000Y89000
X98500Y83400
X99200Y79500
X79900Y98000
X83100Y107600
X100232Y116944
X166000Y108500
X167200Y125300
X164700Y130200
X177000Y124500
X181500Y122000
X194735Y132565
X194502Y138100
X183500Y150000
X177000
X170600
X162200Y45200
X53791Y57791
X55760Y61728
X51823
T02
X102000Y10500
T03
X30500Y27100
X53700Y32000
X63864Y15700
X69000
X82000Y32000
T05
X55122Y20370
X77878
T06
X197658Y151100
X207658
X217657
X57500
X47500
X37500
X27500
T07
X61000Y79500
Y89500
Y99500
Y109500
Y119500
X71000Y114500
Y124500
Y94500
Y84500
T08
X90016Y80484
X90016Y90484
X90016Y113516
Y123516
T09
X19500Y34657
X256000Y30315
Y50000
Y70130
Y89815
Y109500
Y129657
Y149343
X19500Y54343
T10
X48008Y70504
Y133496
T11
X10630Y10630
X264961
Y170472
X10630
T12
X36000Y79500
Y124500
T13
X162000Y41000
Y49000
X142000Y45000
M30
