G04*
G04 #@! TF.GenerationSoftware,Altium Limited,Altium Designer,19.1.8 (144)*
G04*
G04 Layer_Color=32896*
%FSLAX25Y25*%
%MOIN*%
G70*
G01*
G75*
%ADD10C,0.01000*%
%ADD11C,0.00000*%
%ADD15C,0.00600*%
%ADD16C,0.00787*%
%ADD18C,0.00500*%
%ADD94C,0.00631*%
%ADD95C,0.00900*%
G36*
X335400Y99100D02*
D01*
D01*
D01*
D01*
D02*
G37*
D10*
X51100Y2300D02*
Y15300D01*
Y2300D02*
X57600D01*
X51100Y15300D02*
X57600D01*
X262298Y6934D02*
Y4934D01*
Y5934D01*
X257300D01*
X256300Y4934D01*
Y3935D01*
X257300Y2935D01*
X256300Y8933D02*
Y10932D01*
Y9933D01*
X262298D01*
X261299Y8933D01*
X41602Y10800D02*
X47600D01*
Y7801D01*
X46600Y6801D01*
X42602D01*
X41602Y7801D01*
Y10800D01*
X47600Y4802D02*
Y2803D01*
Y3802D01*
X41602D01*
X42602Y4802D01*
D11*
X265725Y61288D02*
X264938D01*
X265725D01*
Y81446D02*
X264938D01*
X265725D01*
Y20972D02*
X264938D01*
X265725D01*
Y41130D02*
X264938D01*
X265725D01*
D15*
X182311Y96808D02*
X188992Y103489D01*
X186208Y92911D02*
X192889Y99592D01*
X155776Y90944D02*
X165224D01*
X155776Y96456D02*
X165224D01*
X263076Y73244D02*
X272524D01*
X263076Y78756D02*
X272524D01*
X263076Y93244D02*
X272524D01*
X263076Y98756D02*
X272524D01*
X263076Y33244D02*
X272524D01*
X263076Y38756D02*
X272524D01*
X263076Y52944D02*
X272524D01*
X263076Y58456D02*
X272524D01*
X251300Y51567D02*
Y54766D01*
X249700D01*
X249167Y54233D01*
Y53166D01*
X249700Y52633D01*
X251300D01*
X250234D02*
X249167Y51567D01*
X248101Y54233D02*
X247568Y54766D01*
X246501D01*
X245968Y54233D01*
Y53699D01*
X246501Y53166D01*
X247035D01*
X246501D01*
X245968Y52633D01*
Y52100D01*
X246501Y51567D01*
X247568D01*
X248101Y52100D01*
X242769Y51567D02*
X244902D01*
X242769Y53699D01*
Y54233D01*
X243303Y54766D01*
X244369D01*
X244902Y54233D01*
D16*
X146850Y29685D02*
X148779D01*
X146850Y9685D02*
X148779D01*
X146850D02*
Y29685D01*
X246850Y9685D02*
Y29685D01*
X244921D02*
X246850D01*
X244921Y9685D02*
X246850D01*
X147663Y7480D02*
X145039D01*
X147663Y4857D01*
Y4200D01*
X147007Y3545D01*
X145695D01*
X145039Y4200D01*
X146614Y35433D02*
X147926D01*
X147270D01*
Y31497D01*
X146614Y32153D01*
X285200Y34600D02*
X286512D01*
X285856D01*
Y30664D01*
X285200Y31320D01*
X288480Y33944D02*
X289136Y34600D01*
X290448D01*
X291104Y33944D01*
Y31320D01*
X290448Y30664D01*
X289136D01*
X288480Y31320D01*
Y31976D01*
X289136Y32632D01*
X291104D01*
X248529Y7480D02*
X245905D01*
X248529Y4857D01*
Y4200D01*
X247873Y3545D01*
X246562D01*
X245905Y4200D01*
X249841D02*
X250497Y3545D01*
X251809D01*
X252465Y4200D01*
Y6824D01*
X251809Y7480D01*
X250497D01*
X249841Y6824D01*
Y4200D01*
D18*
X186600Y103400D02*
X185186Y104814D01*
X184479Y104107D01*
Y103636D01*
X184951Y103164D01*
X185422Y103164D01*
X186129Y103871D01*
X185658Y103400D02*
Y102457D01*
X185186Y101986D02*
X184715Y101515D01*
X184951Y101751D01*
X183537Y103164D01*
X184008Y103164D01*
X183773Y101044D02*
Y100573D01*
X183301Y100101D01*
X182830Y100101D01*
X181887Y101044D01*
Y101515D01*
X182359Y101986D01*
X182830Y101986D01*
X183066Y101751D01*
X183066Y101279D01*
X182359Y100573D01*
X163000Y97300D02*
Y99299D01*
X162000D01*
X161667Y98966D01*
Y98300D01*
X162000Y97966D01*
X163000D01*
X162334D02*
X161667Y97300D01*
X159668D02*
X161001D01*
X159668Y98633D01*
Y98966D01*
X160001Y99299D01*
X160667D01*
X161001Y98966D01*
X159001D02*
X158668Y99299D01*
X158002D01*
X157668Y98966D01*
Y97633D01*
X158002Y97300D01*
X158668D01*
X159001Y97633D01*
Y98966D01*
X261100Y35600D02*
Y37599D01*
X260100D01*
X259767Y37266D01*
Y36600D01*
X260100Y36266D01*
X261100D01*
X260434D02*
X259767Y35600D01*
X259101Y37266D02*
X258767Y37599D01*
X258101D01*
X257768Y37266D01*
Y36933D01*
X258101Y36600D01*
X258434D01*
X258101D01*
X257768Y36266D01*
Y35933D01*
X258101Y35600D01*
X258767D01*
X259101Y35933D01*
X257101Y37266D02*
X256768Y37599D01*
X256102D01*
X255768Y37266D01*
Y36933D01*
X256102Y36600D01*
X256435D01*
X256102D01*
X255768Y36266D01*
Y35933D01*
X256102Y35600D01*
X256768D01*
X257101Y35933D01*
X261100Y75600D02*
Y77599D01*
X260100D01*
X259767Y77266D01*
Y76600D01*
X260100Y76266D01*
X261100D01*
X260434D02*
X259767Y75600D01*
X259101Y77266D02*
X258767Y77599D01*
X258101D01*
X257768Y77266D01*
Y76933D01*
X258101Y76600D01*
X258434D01*
X258101D01*
X257768Y76266D01*
Y75933D01*
X258101Y75600D01*
X258767D01*
X259101Y75933D01*
X255768Y77599D02*
X257101D01*
Y76600D01*
X256435Y76933D01*
X256102D01*
X255768Y76600D01*
Y75933D01*
X256102Y75600D01*
X256768D01*
X257101Y75933D01*
X270200Y100100D02*
Y102099D01*
X269200D01*
X268867Y101766D01*
Y101100D01*
X269200Y100766D01*
X270200D01*
X269534D02*
X268867Y100100D01*
X268201Y101766D02*
X267867Y102099D01*
X267201D01*
X266868Y101766D01*
Y101433D01*
X267201Y101100D01*
X267534D01*
X267201D01*
X266868Y100766D01*
Y100433D01*
X267201Y100100D01*
X267867D01*
X268201Y100433D01*
X265202Y100100D02*
Y102099D01*
X266201Y101100D01*
X264868D01*
X261901Y71400D02*
Y70067D01*
Y70734D01*
X263900D01*
Y68401D02*
X261901D01*
X262900Y69401D01*
Y68068D01*
X262001Y91600D02*
Y90267D01*
Y90934D01*
X264000D01*
X262334Y89601D02*
X262001Y89267D01*
Y88601D01*
X262334Y88268D01*
X262667D01*
X263000Y88601D01*
Y88934D01*
Y88601D01*
X263334Y88268D01*
X263667D01*
X264000Y88601D01*
Y89267D01*
X263667Y89601D01*
X261801Y50800D02*
Y49467D01*
Y50134D01*
X263800D01*
Y48801D02*
Y48134D01*
Y48467D01*
X261801D01*
X262134Y48801D01*
X261901Y30900D02*
Y29567D01*
Y30234D01*
X263900D01*
Y27568D02*
Y28901D01*
X262567Y27568D01*
X262234D01*
X261901Y27901D01*
Y28567D01*
X262234Y28901D01*
D94*
X85936Y146501D02*
X85289Y147317D01*
X84470Y147962D01*
X83526Y148401D01*
X82505Y148609D01*
X81464Y148577D01*
X80458Y148306D01*
X85936Y146501D02*
X85289Y147317D01*
X84470Y147962D01*
X83526Y148401D01*
X82505Y148609D01*
X81464Y148577D01*
X80458Y148306D01*
X78050Y142268D02*
X78601Y141367D01*
X79348Y140621D01*
X80248Y140069D01*
X79764Y147956D02*
X78948Y147308D01*
X78303Y146490D01*
X77864Y145545D01*
X77655Y144525D01*
X77688Y143484D01*
X77959Y142478D01*
X79764Y147956D02*
X78948Y147308D01*
X78303Y146490D01*
X77864Y145545D01*
X77655Y144525D01*
X77688Y143484D01*
X77959Y142478D01*
X78050Y142268D02*
X78601Y141367D01*
X79348Y140621D01*
X80248Y140069D01*
X70225Y147018D02*
X70375Y147140D01*
X70225Y147018D02*
X70375Y147140D01*
X91728Y156770D02*
X91713Y156761D01*
X91973Y156736D02*
X91728Y156770D01*
X79124Y155890D02*
X79247Y156040D01*
X91973Y156736D02*
X91728Y156770D01*
X79124Y155890D02*
X79247Y156040D01*
X91728Y156770D02*
X91713Y156761D01*
X91713Y131524D02*
X91961Y131537D01*
Y131537D02*
X91973Y131548D01*
X91713Y131524D02*
X91961Y131537D01*
Y131537D02*
X91973Y131548D01*
X70375Y141144D02*
X70225Y141267D01*
X70375Y141144D02*
X70225Y141267D01*
X97992Y142186D02*
X97993Y142202D01*
X97827Y142001D02*
X97992Y142186D01*
X97827Y142001D02*
X97992Y142186D01*
X97993Y142202D01*
X93870Y147140D02*
X94020Y147018D01*
X93870Y147140D02*
X94020Y147018D01*
X92549Y137956D02*
X92569Y137762D01*
X92549Y137956D02*
X92569Y137762D01*
X88502Y133696D02*
X88309Y133715D01*
X88502Y133696D02*
X88309Y133715D01*
X84264Y159847D02*
X84079Y160012D01*
X84079D02*
X84062Y160013D01*
X84079Y160012D02*
X84062Y160013D01*
X84264Y159847D02*
X84079Y160012D01*
X84482Y140329D02*
X85298Y140976D01*
X85942Y141794D01*
X86381Y142739D01*
X86590Y143760D01*
X86558Y144801D01*
X86286Y145807D01*
X86091Y146229D02*
X85936Y146501D01*
X84482Y140329D02*
X85298Y140976D01*
X85942Y141794D01*
X86381Y142739D01*
X86590Y143760D01*
X86558Y144801D01*
X86286Y145807D01*
X86091Y146229D02*
X85936Y146501D01*
X79985Y159863D02*
X79981Y159847D01*
X80183Y160013D02*
X79985Y159863D01*
X80183Y160013D02*
X79985Y159863D01*
Y159863D02*
X79981Y159847D01*
X75936Y133715D02*
X75743Y133696D01*
X75936Y133715D02*
X75743Y133696D01*
X77959Y142478D02*
X78050Y142268D01*
X77959Y142478D02*
X78050Y142268D01*
X71676Y137762D02*
X71696Y137956D01*
X71676Y137762D02*
X71696Y137956D01*
X66252Y142202D02*
X66402Y142005D01*
X66252Y142202D02*
X66402Y142005D01*
X97843Y146279D02*
X97827Y146283D01*
X97843Y146279D02*
X97827Y146283D01*
X97993Y146082D02*
X97843Y146279D01*
X97993Y146082D02*
X97843Y146279D01*
X94728Y153980D02*
X94717Y153993D01*
X94741Y153733D02*
X94728Y153980D01*
X94741Y153733D02*
X94728Y153980D01*
X94728Y153980D02*
X94717Y153993D01*
X92569Y150522D02*
X92549Y150329D01*
X92569Y150522D02*
X92549Y150329D01*
X94020Y141267D02*
X93870Y141144D01*
X94020Y141267D02*
X93870Y141144D01*
X94717Y134292D02*
X94750Y134537D01*
X94717Y134292D02*
X94750Y134537D01*
Y134537D02*
X94741Y134551D01*
X94750Y134537D02*
X94741Y134551D01*
X88309Y154569D02*
X88502Y154588D01*
X88309Y154569D02*
X88502Y154588D01*
X84998Y156040D02*
X85121Y155890D01*
X84998Y156040D02*
X85121Y155890D01*
X86286Y145807D02*
X86195Y146017D01*
X86091Y146229D01*
X86195Y146017D02*
X86091Y146229D01*
X86286Y145807D02*
X86195Y146017D01*
X83987Y140064D02*
X83884Y139833D01*
Y139833D02*
X83889Y139817D01*
X83997Y140069D02*
X84209Y140174D01*
X84209D02*
X84482Y140329D01*
X83889Y139817D02*
X83893Y139806D01*
X83987Y140064D02*
X83884Y139833D01*
X83997Y140069D02*
X84209Y140174D01*
X83997Y140069D02*
X83987Y140064D01*
X84209Y140174D02*
X84482Y140329D01*
X83997Y140069D02*
X83987Y140064D01*
X83884Y139833D02*
X83889Y139817D01*
X83889D02*
X83893Y139806D01*
X86814Y133100D02*
X86829Y133104D01*
X86586Y133211D02*
X86655Y133131D01*
X86829Y133104D02*
X86840Y133107D01*
X86582Y133221D02*
X86586Y133211D01*
X86840Y133107D02*
X86849Y133111D01*
X86582Y133221D02*
X86586Y133211D01*
X86655Y133131D02*
X86814Y133100D01*
X86814Y133100D02*
X86829Y133104D01*
X86586Y133211D02*
X86655Y133131D01*
Y133131D02*
X86814Y133100D01*
X86840Y133107D02*
X86849Y133111D01*
X86829Y133104D02*
X86840Y133107D01*
X80458Y148306D02*
X80248Y148215D01*
X80458Y148306D02*
X80248Y148215D01*
X80036Y148111D02*
X79764Y147956D01*
X80248Y148215D02*
X80036Y148111D01*
X80036Y148111D02*
X79764Y147956D01*
X80248Y148215D02*
X80036Y148111D01*
X80273Y140056D02*
X80259Y140064D01*
X80259Y140064D02*
X80248Y140069D01*
X80259Y140064D02*
X80248Y140069D01*
X80356Y139816D02*
X80273Y140056D01*
X80273Y140056D02*
X80259Y140064D01*
X80352Y139806D02*
X80356Y139816D01*
X80352Y139806D02*
X80356Y139816D01*
X80356Y139816D02*
X80273Y140056D01*
X75743Y154588D02*
X75936Y154569D01*
X75743Y154588D02*
X75936Y154569D01*
X77655Y133204D02*
X77660Y133214D01*
X77408Y133106D02*
X77513Y133099D01*
X77398Y133110D02*
X77408Y133106D01*
Y133106D02*
X77513Y133099D01*
X77655Y133204D02*
X77660Y133214D01*
X77398Y133110D02*
X77408Y133106D01*
X77660Y133214D02*
X77664Y133223D01*
X77513Y133099D02*
X77647Y133190D01*
X77513Y133099D02*
X77647Y133190D01*
X77655Y133204D01*
X77647Y133190D02*
X77655Y133204D01*
X77660Y133214D02*
X77664Y133223D01*
X72532Y156761D02*
X72284Y156747D01*
X72272Y156736D01*
X72284Y156747D02*
X72272Y156736D01*
X72532Y156761D02*
X72284Y156747D01*
X71696Y150329D02*
X71676Y150522D01*
X71696Y150329D02*
X71676Y150522D01*
X72272Y131548D02*
X72518Y131515D01*
X72272Y131548D02*
X72518Y131515D01*
X72518D02*
X72532Y131524D01*
X72518Y131515D02*
X72532Y131524D01*
X69495Y153747D02*
X69504Y153733D01*
X69529Y153993D02*
X69495Y153747D01*
X69529Y153993D02*
X69495Y153747D01*
X69504Y153733D01*
X66418Y146283D02*
X66253Y146099D01*
X66418Y146283D02*
X66253Y146099D01*
Y146099D02*
X66252Y146082D01*
X66253Y146099D02*
X66252Y146082D01*
X66402Y142005D02*
X66418Y142001D01*
X66402Y142005D02*
X66418Y142001D01*
X69517Y134304D02*
X69529Y134292D01*
X69517Y134304D02*
X69529Y134292D01*
X69504Y134551D02*
X69517Y134304D01*
X69504Y134551D02*
X69517Y134304D01*
X91973Y131548D02*
X94717Y134292D01*
X91973Y131548D02*
X94717Y134292D01*
X75936Y154569D02*
X79124Y155890D01*
X91973Y156736D02*
X94717Y153993D01*
X91973Y156736D02*
X94717Y153993D01*
X75936Y154569D02*
X79124Y155890D01*
X94020Y147018D02*
X97827Y146283D01*
X94020Y147018D02*
X97827Y146283D01*
X94020Y141267D02*
X97827Y142001D01*
X94020Y141267D02*
X97827Y142001D01*
X88503Y133696D02*
X91713Y131524D01*
X88503Y133696D02*
X91713Y131524D01*
X72532D02*
X75743Y133696D01*
X69529Y134292D02*
X72272Y131548D01*
X72532Y131524D02*
X75743Y133696D01*
X69529Y134292D02*
X72272Y131548D01*
X88503Y154588D02*
X91713Y156761D01*
X80183Y160013D02*
X84062D01*
X80183D02*
X84062D01*
X79247Y156040D02*
X79982Y159847D01*
X85121Y155890D02*
X88309Y154569D01*
X85121Y155890D02*
X88309Y154569D01*
X79247Y156040D02*
X79982Y159847D01*
X88503Y154588D02*
X91713Y156761D01*
X86849Y133111D02*
X88309Y133715D01*
X86849Y133111D02*
X88309Y133715D01*
X77664Y133223D02*
X80352Y139806D01*
X77664Y133223D02*
X80352Y139806D01*
X72532Y156761D02*
X75743Y154588D01*
X69529Y153993D02*
X72272Y156736D01*
X69529Y153993D02*
X72272Y156736D01*
X72532Y156761D02*
X75743Y154588D01*
X69504Y153733D02*
X71676Y150522D01*
X69504Y153733D02*
X71676Y150522D01*
X66418Y146283D02*
X70225Y147018D01*
X66418Y146283D02*
X70225Y147018D01*
X70375Y141144D02*
X71696Y137956D01*
X70375Y141144D02*
X71696Y137956D01*
X69504Y134551D02*
X71676Y137762D01*
X69504Y134551D02*
X71676Y137762D01*
X70375Y147140D02*
X71696Y150329D01*
X70375Y147140D02*
X71696Y150329D01*
X66418Y142001D02*
X70225Y141267D01*
X66418Y142001D02*
X70225Y141267D01*
X97993Y142202D02*
Y146082D01*
Y142202D02*
Y146082D01*
X92569Y150522D02*
X94741Y153733D01*
X92569Y150522D02*
X94741Y153733D01*
X92549Y137956D02*
X93870Y141144D01*
X92549Y137956D02*
X93870Y141144D01*
X92569Y137762D02*
X94741Y134551D01*
X92569Y137762D02*
X94741Y134551D01*
X84264Y159847D02*
X84998Y156040D01*
X84264Y159847D02*
X84998Y156040D01*
X83893Y139806D02*
X86581Y133223D01*
X83893Y139806D02*
X86581Y133223D01*
X75936Y133715D02*
X77396Y133111D01*
X75936Y133715D02*
X77396Y133111D01*
X66252Y142202D02*
Y146082D01*
Y142202D02*
Y146082D01*
X92549Y150329D02*
X93870Y147140D01*
X92549Y150329D02*
X93870Y147140D01*
X86581Y133223D02*
X86582Y133221D01*
X86581Y133223D02*
X86582Y133221D01*
X77396Y133111D02*
X77398Y133110D01*
X77396Y133111D02*
X77398Y133110D01*
D95*
X183834Y175632D02*
X184501Y176299D01*
X185834D01*
X186500Y175632D01*
Y174966D01*
X185834Y174299D01*
X184501D01*
X183834Y173633D01*
Y172967D01*
X184501Y172300D01*
X185834D01*
X186500Y172967D01*
X182501Y176299D02*
X179835D01*
X181168D01*
Y172300D01*
X178503D02*
Y176299D01*
X177170Y174966D01*
X175837Y176299D01*
Y172300D01*
X174504Y175632D02*
X173837Y176299D01*
X172504D01*
X171838Y175632D01*
Y174966D01*
X172504Y174299D01*
X173171D01*
X172504D01*
X171838Y173633D01*
Y172967D01*
X172504Y172300D01*
X173837D01*
X174504Y172967D01*
X167839Y172300D02*
X170505D01*
X167839Y174966D01*
Y175632D01*
X168506Y176299D01*
X169839D01*
X170505Y175632D01*
X166506Y171634D02*
X163841D01*
X162508Y176299D02*
Y172300D01*
X161175Y173633D01*
X159842Y172300D01*
Y176299D01*
X155843D02*
X158509D01*
Y174299D01*
X157176Y174966D01*
X156510D01*
X155843Y174299D01*
Y172967D01*
X156510Y172300D01*
X157843D01*
X158509Y172967D01*
X151845Y176299D02*
X154510D01*
Y174299D01*
X153177Y174966D01*
X152511D01*
X151845Y174299D01*
Y172967D01*
X152511Y172300D01*
X153844D01*
X154510Y172967D01*
X150512Y175632D02*
X149845Y176299D01*
X148512D01*
X147846Y175632D01*
Y172967D01*
X148512Y172300D01*
X149845D01*
X150512Y172967D01*
Y175632D01*
X146513D02*
X145846Y176299D01*
X144514D01*
X143847Y175632D01*
Y172967D01*
X144514Y172300D01*
X145846D01*
X146513Y172967D01*
Y175632D01*
X142514Y171634D02*
X139848D01*
X138515Y176299D02*
Y172300D01*
X136516D01*
X135850Y172967D01*
Y175632D01*
X136516Y176299D01*
X138515D01*
X132517Y172300D02*
X133850D01*
X134517Y172967D01*
Y174299D01*
X133850Y174966D01*
X132517D01*
X131851Y174299D01*
Y173633D01*
X134517D01*
X130518Y174966D02*
X129185Y172300D01*
X127852Y174966D01*
X122521Y176299D02*
Y173633D01*
X121188Y172300D01*
X119855Y173633D01*
Y176299D01*
X118522Y172300D02*
X117189D01*
X117856D01*
Y176299D01*
X118522Y175632D01*
X115190Y172300D02*
Y172967D01*
X114523D01*
Y172300D01*
X115190D01*
X111857Y175632D02*
X111191Y176299D01*
X109858D01*
X109192Y175632D01*
Y172967D01*
X109858Y172300D01*
X111191D01*
X111857Y172967D01*
Y175632D01*
X183734Y169599D02*
Y165600D01*
X185733D01*
X186400Y166267D01*
Y167599D01*
X185733Y168266D01*
X183734D01*
X180402Y165600D02*
X181735D01*
X182401Y166267D01*
Y167599D01*
X181735Y168266D01*
X180402D01*
X179736Y167599D01*
Y166933D01*
X182401D01*
X178403Y165600D02*
X176403D01*
X175737Y166267D01*
X176403Y166933D01*
X177736D01*
X178403Y167599D01*
X177736Y168266D01*
X175737D01*
X174404Y165600D02*
X173071D01*
X173737D01*
Y168266D01*
X174404D01*
X169739Y164267D02*
X169072D01*
X168406Y164934D01*
Y168266D01*
X170405D01*
X171072Y167599D01*
Y166267D01*
X170405Y165600D01*
X168406D01*
X167073D02*
Y168266D01*
X165074D01*
X164407Y167599D01*
Y165600D01*
X161075D02*
X162408D01*
X163074Y166267D01*
Y167599D01*
X162408Y168266D01*
X161075D01*
X160408Y167599D01*
Y166933D01*
X163074D01*
X156410Y169599D02*
Y165600D01*
X158409D01*
X159075Y166267D01*
Y167599D01*
X158409Y168266D01*
X156410D01*
X151078Y169599D02*
Y165600D01*
X149079D01*
X148412Y166267D01*
Y166933D01*
Y167599D01*
X149079Y168266D01*
X151078D01*
X147079D02*
Y166267D01*
X146413Y165600D01*
X144414D01*
Y164934D01*
X145080Y164267D01*
X145747D01*
X144414Y165600D02*
Y168266D01*
X139082Y169599D02*
Y166933D01*
X137749Y165600D01*
X136416Y166933D01*
Y169599D01*
X134417Y168266D02*
X133084D01*
X132417Y167599D01*
Y165600D01*
X134417D01*
X135083Y166267D01*
X134417Y166933D01*
X132417D01*
X131085Y165600D02*
X129752D01*
X130418D01*
Y169599D01*
X131085D01*
X125753Y165600D02*
X127086D01*
X127752Y166267D01*
Y167599D01*
X127086Y168266D01*
X125753D01*
X125086Y167599D01*
Y166933D01*
X127752D01*
X123753Y165600D02*
Y168266D01*
X121754D01*
X121088Y167599D01*
Y165600D01*
X119088Y168932D02*
Y168266D01*
X119755D01*
X118422D01*
X119088D01*
Y166267D01*
X118422Y165600D01*
X116423D02*
X115090D01*
X115756D01*
Y168266D01*
X116423D01*
X113090Y165600D02*
Y168266D01*
X111091D01*
X110424Y167599D01*
Y165600D01*
X102427Y169599D02*
X105093D01*
Y167599D01*
X103760D01*
X105093D01*
Y165600D01*
X101094D02*
X99761D01*
X100428D01*
Y168266D01*
X101094D01*
X97762Y165600D02*
X95763D01*
X95096Y166267D01*
X95763Y166933D01*
X97096D01*
X97762Y167599D01*
X97096Y168266D01*
X95096D01*
X91097D02*
X93097D01*
X93763Y167599D01*
Y166267D01*
X93097Y165600D01*
X91097D01*
X89764Y169599D02*
Y165600D01*
Y167599D01*
X89098Y168266D01*
X87765D01*
X87099Y167599D01*
Y165600D01*
X83766D02*
X85099D01*
X85766Y166267D01*
Y167599D01*
X85099Y168266D01*
X83766D01*
X83100Y167599D01*
Y166933D01*
X85766D01*
X81767Y168266D02*
Y165600D01*
Y166933D01*
X81101Y167599D01*
X80434Y168266D01*
X79768D01*
X183934Y158900D02*
X186600D01*
X183934Y161566D01*
Y162232D01*
X184601Y162899D01*
X185933D01*
X186600Y162232D01*
X182601D02*
X181935Y162899D01*
X180602D01*
X179936Y162232D01*
Y159566D01*
X180602Y158900D01*
X181935D01*
X182601Y159566D01*
Y162232D01*
X178603Y158900D02*
X177270D01*
X177936D01*
Y162899D01*
X178603Y162232D01*
X175270Y159566D02*
X174604Y158900D01*
X173271D01*
X172605Y159566D01*
Y162232D01*
X173271Y162899D01*
X174604D01*
X175270Y162232D01*
Y161566D01*
X174604Y160899D01*
X172605D01*
M02*
