G04*
G04 #@! TF.GenerationSoftware,Altium Limited,Altium Designer,19.1.8 (144)*
G04*
G04 Layer_Color=16711935*
%FSLAX25Y25*%
%MOIN*%
G70*
G01*
G75*
%ADD13C,0.01575*%
%ADD14C,0.00591*%
%ADD17C,0.00394*%
D13*
X111614Y60327D02*
X111070Y61076D01*
X110190Y60790D01*
Y59864D01*
X111070Y59578D01*
X111614Y60327D01*
D14*
X87035Y11035D02*
X103965D01*
Y27965D01*
X87035D02*
X103965D01*
X87035Y11035D02*
Y27965D01*
X38535Y57465D02*
X55465D01*
X38535Y40535D02*
Y57465D01*
Y40535D02*
X55465D01*
Y57465D01*
D17*
X210335Y126102D02*
X210071Y127087D01*
X209350Y127807D01*
X208366Y128071D01*
X207382Y127807D01*
X206661Y127087D01*
X206398Y126102D01*
X206661Y125118D01*
X207382Y124398D01*
X208366Y124134D01*
X209350Y124398D01*
X210071Y125118D01*
X210335Y126102D01*
X119063Y48838D02*
Y53562D01*
Y48838D02*
X126937D01*
Y53562D01*
X119063D02*
X126937D01*
X119063Y40438D02*
Y45162D01*
Y40438D02*
X126937D01*
Y45162D01*
X119063D02*
X126937D01*
X35839Y24815D02*
Y64185D01*
X3161Y24815D02*
Y64185D01*
Y24815D02*
X35839D01*
X30819Y66547D02*
X33378D01*
X30819D02*
X31311Y64185D01*
X32886D02*
X33378Y66547D01*
X32886Y64185D02*
X35839D01*
X5622Y66547D02*
X8181D01*
X5622D02*
X6114Y64185D01*
X7689D02*
X8181Y66547D01*
X3161Y64185D02*
X6114D01*
X7689D02*
X31311D01*
X204823Y110354D02*
Y129646D01*
X220177Y110354D02*
Y129646D01*
X204823D02*
X220177D01*
X204823Y110354D02*
X220177D01*
X113728Y11846D02*
X117272D01*
X113728Y5153D02*
X117272D01*
Y11846D01*
X113728Y5153D02*
Y11846D01*
X119728D02*
X123272D01*
X119728Y5153D02*
X123272D01*
Y11846D01*
X119728Y5153D02*
Y11846D01*
X114370Y35130D02*
Y63870D01*
X85630D02*
X114370D01*
X85630Y35130D02*
Y63870D01*
Y35130D02*
X114370D01*
X239661Y119815D02*
Y159185D01*
X272339Y119815D02*
Y159185D01*
X239661D02*
X272339D01*
X242122Y117453D02*
X244681D01*
X244189Y119815D02*
X244681Y117453D01*
X242122D02*
X242614Y119815D01*
X239661D02*
X242614D01*
X267319Y117453D02*
X269878D01*
X269386Y119815D02*
X269878Y117453D01*
X267319D02*
X267811Y119815D01*
X269386D02*
X272339D01*
X244189D02*
X267811D01*
X239661Y20472D02*
Y59842D01*
X272339Y20472D02*
Y59842D01*
X239661D02*
X272339D01*
X242122Y18110D02*
X244681D01*
X244189Y20472D02*
X244681Y18110D01*
X242122D02*
X242614Y20472D01*
X239661D02*
X242614D01*
X267319Y18110D02*
X269878D01*
X269386Y20472D02*
X269878Y18110D01*
X267319D02*
X267811Y20472D01*
X269386D02*
X272339D01*
X244189D02*
X267811D01*
X239661Y60287D02*
Y119343D01*
X272339Y60287D02*
Y119343D01*
X239661D02*
X272339D01*
X242122Y57925D02*
X244681D01*
X244189Y60287D02*
X244681Y57925D01*
X242122D02*
X242614Y60287D01*
X239661D02*
X242614D01*
X267319Y57925D02*
X269878D01*
X269386Y60287D02*
X269878Y57925D01*
X267319D02*
X267811Y60287D01*
X269386D02*
X272339D01*
X244189D02*
X267811D01*
X146850Y4921D02*
X246850D01*
Y34449D01*
X146850D02*
X246850D01*
X146850Y4921D02*
Y34449D01*
M02*
