G04*
G04 #@! TF.GenerationSoftware,Altium Limited,Altium Designer,19.1.8 (144)*
G04*
G04 Layer_Color=8388736*
%FSLAX25Y25*%
%MOIN*%
G70*
G01*
G75*
%ADD19P,0.04194X4X90.0*%
%ADD20R,0.04343X0.04737*%
G04:AMPARAMS|DCode=21|XSize=19mil|YSize=66mil|CornerRadius=0mil|HoleSize=0mil|Usage=FLASHONLY|Rotation=135.000|XOffset=0mil|YOffset=0mil|HoleType=Round|Shape=Rectangle|*
%AMROTATEDRECTD21*
4,1,4,0.03005,0.01662,-0.01662,-0.03005,-0.03005,-0.01662,0.01662,0.03005,0.03005,0.01662,0.0*
%
%ADD21ROTATEDRECTD21*%

G04:AMPARAMS|DCode=22|XSize=19mil|YSize=66mil|CornerRadius=0mil|HoleSize=0mil|Usage=FLASHONLY|Rotation=225.000|XOffset=0mil|YOffset=0mil|HoleType=Round|Shape=Rectangle|*
%AMROTATEDRECTD22*
4,1,4,-0.01662,0.03005,0.03005,-0.01662,0.01662,-0.03005,-0.03005,0.01662,-0.01662,0.03005,0.0*
%
%ADD22ROTATEDRECTD22*%

%ADD23P,0.05864X4X90.0*%
%ADD24R,0.04147X0.04147*%
%ADD25R,0.03162X0.04343*%
%ADD26O,0.08280X0.03162*%
G04:AMPARAMS|DCode=27|XSize=74.93mil|YSize=102.49mil|CornerRadius=0mil|HoleSize=0mil|Usage=FLASHONLY|Rotation=45.000|XOffset=0mil|YOffset=0mil|HoleType=Round|Shape=Rectangle|*
%AMROTATEDRECTD27*
4,1,4,0.00974,-0.06273,-0.06273,0.00974,-0.00974,0.06273,0.06273,-0.00974,0.00974,-0.06273,0.0*
%
%ADD27ROTATEDRECTD27*%

G04:AMPARAMS|DCode=28|XSize=63.12mil|YSize=55.24mil|CornerRadius=0mil|HoleSize=0mil|Usage=FLASHONLY|Rotation=225.000|XOffset=0mil|YOffset=0mil|HoleType=Round|Shape=Rectangle|*
%AMROTATEDRECTD28*
4,1,4,0.00278,0.04185,0.04185,0.00278,-0.00278,-0.04185,-0.04185,-0.00278,0.00278,0.04185,0.0*
%
%ADD28ROTATEDRECTD28*%

%ADD29C,0.03900*%
%ADD30R,0.03162X0.06509*%
%ADD31R,0.01981X0.06509*%
%ADD32R,0.04343X0.03162*%
%ADD33R,0.04737X0.03753*%
%ADD34R,0.04147X0.04147*%
%ADD35P,0.05864X4X180.0*%
%ADD36R,0.03950X0.03950*%
%ADD37R,0.09461X0.07099*%
%ADD38R,0.07493X0.10642*%
%ADD39R,0.10642X0.07493*%
%ADD40R,0.07099X0.11036*%
%ADD41R,0.08477X0.08477*%
%ADD42C,0.08477*%
%ADD43O,0.05800X0.10800*%
%ADD44C,0.04200*%
%ADD45C,0.08800*%
%ADD46C,0.08674*%
%ADD47C,0.00800*%
%ADD48C,0.14186*%
%ADD49O,0.04737X0.07099*%
%ADD50O,0.04737X0.09068*%
%ADD51C,0.15800*%
%ADD52C,0.03162*%
D19*
X147374Y78374D02*
D03*
X150626Y81626D02*
D03*
D20*
X118866Y51200D02*
D03*
X127134D02*
D03*
X118866Y42800D02*
D03*
X127134D02*
D03*
D21*
X135445Y115031D02*
D03*
X134101Y116375D02*
D03*
X136859Y113617D02*
D03*
X138273Y112203D02*
D03*
X139617Y110859D02*
D03*
X141031Y109445D02*
D03*
X142445Y108031D02*
D03*
X143859Y106617D02*
D03*
X145203Y105273D02*
D03*
X146617Y103859D02*
D03*
X148031Y102445D02*
D03*
X149375Y101101D02*
D03*
X125899Y77625D02*
D03*
X124555Y78969D02*
D03*
X123141Y80383D02*
D03*
X121727Y81797D02*
D03*
X120383Y83141D02*
D03*
X118969Y84555D02*
D03*
X117555Y85969D02*
D03*
X116141Y87383D02*
D03*
X114797Y88727D02*
D03*
X113383Y90141D02*
D03*
X111969Y91555D02*
D03*
X110625Y92899D02*
D03*
X194055Y57969D02*
D03*
X195399Y56625D02*
D03*
X192641Y59383D02*
D03*
X191227Y60797D02*
D03*
X189883Y62141D02*
D03*
X188469Y63555D02*
D03*
X187055Y64969D02*
D03*
X185641Y66383D02*
D03*
X184297Y67727D02*
D03*
X182883Y69141D02*
D03*
X181469Y70555D02*
D03*
X180125Y71899D02*
D03*
X203601Y95375D02*
D03*
X204945Y94031D02*
D03*
X206359Y92617D02*
D03*
X207773Y91203D02*
D03*
X209117Y89859D02*
D03*
X210531Y88445D02*
D03*
X211945Y87031D02*
D03*
X213359Y85617D02*
D03*
X214703Y84273D02*
D03*
X216117Y82859D02*
D03*
X217531Y81445D02*
D03*
X218875Y80101D02*
D03*
D22*
X149375Y92899D02*
D03*
X148031Y91555D02*
D03*
X146617Y90141D02*
D03*
X145203Y88727D02*
D03*
X143859Y87383D02*
D03*
X142445Y85969D02*
D03*
X141031Y84555D02*
D03*
X139617Y83141D02*
D03*
X138273Y81797D02*
D03*
X136859Y80383D02*
D03*
X135445Y78969D02*
D03*
X134101Y77625D02*
D03*
X110625Y101101D02*
D03*
X111969Y102445D02*
D03*
X113383Y103859D02*
D03*
X114797Y105273D02*
D03*
X116141Y106617D02*
D03*
X117555Y108031D02*
D03*
X118969Y109445D02*
D03*
X120383Y110859D02*
D03*
X121727Y112203D02*
D03*
X123141Y113617D02*
D03*
X124555Y115031D02*
D03*
X125899Y116375D02*
D03*
X180125Y80101D02*
D03*
X181469Y81445D02*
D03*
X182883Y82859D02*
D03*
X184297Y84273D02*
D03*
X185641Y85617D02*
D03*
X187055Y87031D02*
D03*
X188469Y88445D02*
D03*
X189883Y89859D02*
D03*
X191227Y91203D02*
D03*
X192641Y92617D02*
D03*
X194055Y94031D02*
D03*
X195399Y95375D02*
D03*
X218875Y71899D02*
D03*
X217531Y70555D02*
D03*
X216117Y69141D02*
D03*
X214703Y67727D02*
D03*
X213359Y66383D02*
D03*
X211945Y64969D02*
D03*
X210531Y63555D02*
D03*
X209117Y62141D02*
D03*
X207773Y60797D02*
D03*
X206359Y59383D02*
D03*
X204945Y57969D02*
D03*
X203601Y56625D02*
D03*
D23*
X116080Y119080D02*
D03*
X120396Y123396D02*
D03*
X223443Y43143D02*
D03*
X227758Y47458D02*
D03*
X220158Y39557D02*
D03*
X215843Y35243D02*
D03*
X225143Y58043D02*
D03*
X229457Y62357D02*
D03*
X219942Y63842D02*
D03*
X224257Y68158D02*
D03*
X143257Y76858D02*
D03*
X138943Y72543D02*
D03*
D24*
X42851Y9700D02*
D03*
X36749D02*
D03*
X102349Y119700D02*
D03*
X108451D02*
D03*
X108351Y113900D02*
D03*
X102249D02*
D03*
X42851Y4200D02*
D03*
X36749D02*
D03*
X186551Y111500D02*
D03*
X180449D02*
D03*
X163551Y105000D02*
D03*
X157449D02*
D03*
X163551Y111500D02*
D03*
X157449D02*
D03*
X168949D02*
D03*
X175051D02*
D03*
X60949Y41000D02*
D03*
X67051D02*
D03*
X60949Y35500D02*
D03*
X67051D02*
D03*
X215551Y133500D02*
D03*
X209449D02*
D03*
X108451Y124500D02*
D03*
X102349D02*
D03*
X196698Y50600D02*
D03*
X202800D02*
D03*
X206451Y101600D02*
D03*
X200349D02*
D03*
X105151Y99600D02*
D03*
X99049D02*
D03*
X118449Y63000D02*
D03*
X124551D02*
D03*
X108351Y109200D02*
D03*
X102249D02*
D03*
X127051Y58000D02*
D03*
X120949D02*
D03*
D25*
X74240Y55028D02*
D03*
X70500D02*
D03*
X66760D02*
D03*
Y45972D02*
D03*
X70500D02*
D03*
X74240D02*
D03*
D26*
X203248Y127500D02*
D03*
Y122500D02*
D03*
Y117500D02*
D03*
Y112500D02*
D03*
X221752Y127500D02*
D03*
Y122500D02*
D03*
Y117500D02*
D03*
Y112500D02*
D03*
D27*
X220050Y52950D02*
D03*
X209750Y42650D02*
D03*
D28*
X159000Y67600D02*
D03*
X152875Y61475D02*
D03*
X154267Y72333D02*
D03*
X148143Y66208D02*
D03*
D29*
X152000Y47500D02*
D03*
X157000Y42500D02*
D03*
X152000D02*
D03*
X147000Y47500D02*
D03*
Y42500D02*
D03*
X157000Y47500D02*
D03*
D30*
X53803Y26059D02*
D03*
X76146D02*
D03*
X56854D02*
D03*
X79197D02*
D03*
D31*
X59610D02*
D03*
X61579D02*
D03*
X69453D02*
D03*
X65516D02*
D03*
X67484D02*
D03*
X63547D02*
D03*
X71421D02*
D03*
X73390D02*
D03*
D32*
X33872Y17200D02*
D03*
X42928Y20940D02*
D03*
Y13460D02*
D03*
D33*
X171000Y7700D02*
D03*
Y22464D02*
D03*
X147378Y7700D02*
D03*
Y22464D02*
D03*
X210100Y7677D02*
D03*
Y22441D02*
D03*
X186478Y7677D02*
D03*
Y22441D02*
D03*
D34*
X118600Y141051D02*
D03*
Y134949D02*
D03*
X111400Y141051D02*
D03*
Y134949D02*
D03*
X83000Y146551D02*
D03*
Y140449D02*
D03*
X232000Y123051D02*
D03*
Y116949D02*
D03*
X107900Y12000D02*
D03*
Y5898D02*
D03*
X124500Y27949D02*
D03*
Y34051D02*
D03*
X131500Y27949D02*
D03*
Y34051D02*
D03*
X138500Y28000D02*
D03*
Y34102D02*
D03*
X134900Y11651D02*
D03*
Y5549D02*
D03*
X231000Y100949D02*
D03*
Y107051D02*
D03*
X178400Y7849D02*
D03*
Y13951D02*
D03*
X128000Y5449D02*
D03*
Y11551D02*
D03*
X224000Y107051D02*
D03*
Y100949D02*
D03*
X104100Y134949D02*
D03*
Y141051D02*
D03*
X190000Y138049D02*
D03*
Y144151D02*
D03*
Y132551D02*
D03*
Y126449D02*
D03*
X104500Y76051D02*
D03*
Y69949D02*
D03*
X183500Y137949D02*
D03*
Y144051D02*
D03*
X177000Y137949D02*
D03*
Y144051D02*
D03*
X170500Y138049D02*
D03*
Y144151D02*
D03*
X90000Y146551D02*
D03*
Y140449D02*
D03*
X183500Y126398D02*
D03*
Y132500D02*
D03*
X177000Y126398D02*
D03*
Y132500D02*
D03*
X170500Y126449D02*
D03*
Y132551D02*
D03*
X43000Y25349D02*
D03*
Y31451D02*
D03*
X99000Y76051D02*
D03*
Y69949D02*
D03*
X60500Y50398D02*
D03*
Y56500D02*
D03*
X98600Y141151D02*
D03*
Y135049D02*
D03*
X175300Y79100D02*
D03*
Y72998D02*
D03*
X133000Y42949D02*
D03*
Y49051D02*
D03*
X108000Y24051D02*
D03*
Y17949D02*
D03*
X80000Y47449D02*
D03*
Y53551D02*
D03*
D35*
X128342Y72658D02*
D03*
X132658Y68343D02*
D03*
X111843Y73658D02*
D03*
X116157Y69342D02*
D03*
X106158Y81842D02*
D03*
X101842Y86158D02*
D03*
X108658Y85843D02*
D03*
X104342Y90158D02*
D03*
X117342Y74657D02*
D03*
X121658Y70342D02*
D03*
X142715Y60530D02*
D03*
X147030Y56215D02*
D03*
X156043Y81058D02*
D03*
X160357Y76743D02*
D03*
D36*
X115500Y11650D02*
D03*
Y5350D02*
D03*
X121500Y11650D02*
D03*
Y5350D02*
D03*
D37*
X100000Y36902D02*
D03*
Y62098D02*
D03*
D38*
X233000Y154126D02*
D03*
Y169874D02*
D03*
D39*
X62500Y63000D02*
D03*
X78248D02*
D03*
D40*
X95500Y12413D02*
D03*
Y26587D02*
D03*
X47000Y56087D02*
D03*
Y41913D02*
D03*
D41*
X19500Y54343D02*
D03*
X256000Y129657D02*
D03*
Y30315D02*
D03*
Y70130D02*
D03*
D42*
X19500Y34657D02*
D03*
X256000Y149343D02*
D03*
Y50000D02*
D03*
Y109500D02*
D03*
Y89815D02*
D03*
D43*
X197658Y151100D02*
D03*
X207658D02*
D03*
X217657D02*
D03*
X57500D02*
D03*
X47500D02*
D03*
X37500D02*
D03*
X27500D02*
D03*
D44*
X142000Y45000D02*
D03*
X162000Y49000D02*
D03*
Y41000D02*
D03*
D45*
X61000Y79500D02*
D03*
Y89500D02*
D03*
X71000Y84500D02*
D03*
X61000Y99500D02*
D03*
Y109500D02*
D03*
Y119500D02*
D03*
X71000Y94500D02*
D03*
Y114500D02*
D03*
Y124500D02*
D03*
D46*
X90016Y80484D02*
D03*
X90016Y90484D02*
D03*
X90016Y113516D02*
D03*
Y123516D02*
D03*
D47*
X36000Y79500D02*
D03*
Y124500D02*
D03*
X55122Y20370D02*
D03*
X77878D02*
D03*
X10630Y10630D02*
D03*
D48*
X48008Y133496D02*
D03*
Y70504D02*
D03*
D49*
X49492Y6000D02*
D03*
X83508D02*
D03*
D50*
X49492Y22457D02*
D03*
X83508D02*
D03*
D51*
X264961Y170472D02*
D03*
X10630D02*
D03*
D52*
X213240Y77477D02*
D03*
X211272Y73540D02*
D03*
X207335Y81414D02*
D03*
X209303Y77477D02*
D03*
X207335Y73540D02*
D03*
X209303Y69603D02*
D03*
X205366Y85351D02*
D03*
X203398Y81414D02*
D03*
X205366Y77477D02*
D03*
X203398Y73540D02*
D03*
X205366Y69603D02*
D03*
X203398Y65665D02*
D03*
X199461Y89288D02*
D03*
X201429Y85351D02*
D03*
X199461Y81414D02*
D03*
X201429Y77477D02*
D03*
X199461Y73540D02*
D03*
X201429Y69603D02*
D03*
X199461Y65665D02*
D03*
X201429Y61728D02*
D03*
X197492Y85351D02*
D03*
X195524Y81414D02*
D03*
X197492Y77477D02*
D03*
X195524Y73540D02*
D03*
X197492Y69603D02*
D03*
X195524Y65665D02*
D03*
X197492Y61728D02*
D03*
X193555Y85351D02*
D03*
X191587Y81414D02*
D03*
X193555Y77477D02*
D03*
X191587Y73540D02*
D03*
X193555Y69603D02*
D03*
X189618Y77477D02*
D03*
X187650Y73540D02*
D03*
X189618Y69603D02*
D03*
X185681Y77477D02*
D03*
X144343Y97162D02*
D03*
X142374Y101099D02*
D03*
X140406Y97162D02*
D03*
X142374Y93225D02*
D03*
X136469Y105035D02*
D03*
X138437Y101099D02*
D03*
X136469Y97162D02*
D03*
X138437Y93225D02*
D03*
X136469Y89288D02*
D03*
X134500Y108973D02*
D03*
X132532Y105035D02*
D03*
X134500Y101099D02*
D03*
X132532Y97162D02*
D03*
X134500Y93225D02*
D03*
X132532Y89288D02*
D03*
X134500Y85351D02*
D03*
X130563Y108973D02*
D03*
X128595Y105035D02*
D03*
X130563Y101099D02*
D03*
X128595Y97162D02*
D03*
X130563Y93225D02*
D03*
X128595Y89288D02*
D03*
X130563Y85351D02*
D03*
X126626Y108973D02*
D03*
X124658Y105035D02*
D03*
X126626Y101099D02*
D03*
X124658Y97162D02*
D03*
X126626Y93225D02*
D03*
X124658Y89288D02*
D03*
X126626Y85351D02*
D03*
X122689Y101099D02*
D03*
X120721Y97162D02*
D03*
X122689Y93225D02*
D03*
X118752Y101099D02*
D03*
X116784Y97162D02*
D03*
X118752Y93225D02*
D03*
X55760Y61728D02*
D03*
X53791Y57791D02*
D03*
X51823Y61728D02*
D03*
M02*
