G04*
G04 #@! TF.GenerationSoftware,Altium Limited,Altium Designer,19.1.9 (167)*
G04*
G04 Layer_Color=16711935*
%FSLAX25Y25*%
%MOIN*%
G70*
G01*
G75*
%ADD18R,0.04343X0.03162*%
%ADD22R,0.10642X0.07493*%
%ADD31P,0.05864X4X90.0*%
%ADD32R,0.04147X0.04147*%
%ADD41O,0.05800X0.10800*%
%ADD42C,0.08800*%
%ADD43C,0.08674*%
%ADD44C,0.00800*%
%ADD45C,0.14186*%
%ADD46O,0.04737X0.07099*%
%ADD47O,0.04737X0.09068*%
%ADD48R,0.08477X0.08477*%
%ADD49C,0.08477*%
%ADD50C,0.04200*%
%ADD51C,0.15800*%
%ADD52C,0.03162*%
%ADD94R,0.04737X0.13005*%
D18*
X271828Y69556D02*
D03*
Y62076D02*
D03*
X262772Y65816D02*
D03*
X271828Y89714D02*
D03*
Y82233D02*
D03*
X262772Y85974D02*
D03*
X271828Y29240D02*
D03*
Y21760D02*
D03*
X262772Y25500D02*
D03*
X271828Y49398D02*
D03*
Y41918D02*
D03*
X262772Y45658D02*
D03*
D22*
X59226Y8800D02*
D03*
X74974D02*
D03*
D31*
X185442Y96043D02*
D03*
X189758Y100357D02*
D03*
D32*
X163551Y93700D02*
D03*
X157449D02*
D03*
X270851Y76000D02*
D03*
X264749D02*
D03*
X270851Y96000D02*
D03*
X264749D02*
D03*
X270851Y36000D02*
D03*
X264749D02*
D03*
X270851Y55700D02*
D03*
X264749D02*
D03*
D41*
X27500Y151100D02*
D03*
X37500D02*
D03*
X47500D02*
D03*
X57500D02*
D03*
X217657D02*
D03*
X207658D02*
D03*
X197658D02*
D03*
D42*
X61000Y79500D02*
D03*
Y89500D02*
D03*
X71000Y84500D02*
D03*
X61000Y99500D02*
D03*
Y109500D02*
D03*
Y119500D02*
D03*
X71000Y94500D02*
D03*
Y114500D02*
D03*
Y124500D02*
D03*
D43*
X90016Y80484D02*
D03*
X90016Y90484D02*
D03*
X90016Y113516D02*
D03*
Y123516D02*
D03*
D44*
X36000Y79500D02*
D03*
Y124500D02*
D03*
X55122Y20370D02*
D03*
X77878D02*
D03*
X10630Y10630D02*
D03*
X264961D02*
D03*
D45*
X48008Y133496D02*
D03*
Y70504D02*
D03*
D46*
X49492Y6000D02*
D03*
X83508D02*
D03*
D47*
X49492Y22457D02*
D03*
X83508D02*
D03*
D48*
X19500Y54343D02*
D03*
X256000Y129657D02*
D03*
Y30315D02*
D03*
Y70130D02*
D03*
D49*
X19500Y34657D02*
D03*
X256000Y149343D02*
D03*
Y50000D02*
D03*
Y109500D02*
D03*
Y89815D02*
D03*
D50*
X142000Y45000D02*
D03*
X162000Y49000D02*
D03*
Y41000D02*
D03*
D51*
X264961Y170472D02*
D03*
X10630D02*
D03*
D52*
X211272Y77477D02*
D03*
X209303Y81414D02*
D03*
X207335Y77477D02*
D03*
X209303Y73540D02*
D03*
X207335Y69603D02*
D03*
X203398Y85351D02*
D03*
X205366Y81414D02*
D03*
X203398Y77477D02*
D03*
X205366Y73540D02*
D03*
X203398Y69603D02*
D03*
X205366Y65665D02*
D03*
X201429Y89288D02*
D03*
X199461Y85351D02*
D03*
X201429Y81414D02*
D03*
X199461Y77477D02*
D03*
X201429Y73540D02*
D03*
X199461Y69603D02*
D03*
X201429Y65665D02*
D03*
X199461Y61728D02*
D03*
X197492Y89288D02*
D03*
X195524Y85351D02*
D03*
X197492Y81414D02*
D03*
X195524Y77477D02*
D03*
X197492Y73540D02*
D03*
X195524Y69603D02*
D03*
X197492Y65665D02*
D03*
X193555Y81414D02*
D03*
X191587Y77477D02*
D03*
X193555Y73540D02*
D03*
X191587Y69603D02*
D03*
X193555Y65665D02*
D03*
X189618Y81414D02*
D03*
X187650Y77477D02*
D03*
X189618Y73540D02*
D03*
X185681D02*
D03*
X156154Y30232D02*
D03*
X140406Y101099D02*
D03*
X142374Y97162D02*
D03*
X140406Y93225D02*
D03*
X138437Y105035D02*
D03*
X136469Y101099D02*
D03*
X138437Y97162D02*
D03*
X136469Y93225D02*
D03*
X138437Y89288D02*
D03*
X132532Y108973D02*
D03*
X134500Y105035D02*
D03*
X132532Y101099D02*
D03*
X134500Y97162D02*
D03*
X132532Y93225D02*
D03*
X134500Y89288D02*
D03*
X132532Y85351D02*
D03*
X128595Y108973D02*
D03*
X130563Y105035D02*
D03*
X128595Y101099D02*
D03*
X130563Y97162D02*
D03*
X128595Y93225D02*
D03*
X130563Y89288D02*
D03*
X128595Y85351D02*
D03*
X130563Y81414D02*
D03*
X126626Y105035D02*
D03*
X124658Y101099D02*
D03*
X126626Y97162D02*
D03*
X124658Y93225D02*
D03*
X126626Y89288D02*
D03*
X122689Y105035D02*
D03*
X120721Y101099D02*
D03*
X122689Y97162D02*
D03*
X120721Y93225D02*
D03*
X122689Y89288D02*
D03*
X118752Y97162D02*
D03*
X114815D02*
D03*
X53791Y61728D02*
D03*
X55760Y57791D02*
D03*
D94*
X241850Y9055D02*
D03*
X231850D02*
D03*
X241850Y30315D02*
D03*
X231850D02*
D03*
X221850Y9055D02*
D03*
Y30315D02*
D03*
X211850Y9055D02*
D03*
Y30315D02*
D03*
X201850Y9055D02*
D03*
Y30315D02*
D03*
X191850Y9055D02*
D03*
Y30315D02*
D03*
X181850Y9055D02*
D03*
Y30315D02*
D03*
X171850Y9055D02*
D03*
Y30315D02*
D03*
X161850Y9055D02*
D03*
Y30315D02*
D03*
X151850D02*
D03*
Y9055D02*
D03*
M02*
