M48
;Layer_Color=9474304
;FILE_FORMAT=2:5
INCH,TZ
;TYPE=PLATED
T1F00S00C0.01181
T2F00S00C0.01575
T3F00S00C0.01968
T5F00S00C0.02559
T6F00S00C0.03937
T7F00S00C0.04000
T8F00S00C0.04331
T9F00S00C0.05118
T10F00S00C0.06732
T11F00S00C0.12598
T12F00S00C0.13032
;TYPE=NON_PLATED
T13F00S00C0.03500
%
T01
X33500Y3800
X65516Y21000
X67500Y30800
X70400Y42300
X73300Y41600
X76520
X79500
X115400Y26100
X115600Y21900
X120300Y22000
X118400Y17200
X113500Y16300
X134900Y24700
X142500Y22464
Y33900
X142100Y37600
X137000Y43000
X157000Y37500
X156154Y30232
X175600Y40800
X178500Y43500
X186600Y29900
X190000Y18100
X182600Y17800
X178400Y18600
X187000Y12500
X196700Y9300
Y15700
Y1900
X206800Y2700
X206900Y7700
X207100Y15800
X201900Y17500
X206500Y27600
X217000Y28900
X225800Y27900
X226800Y34800
X225100Y38000
X232900Y40300
X231800Y18300
X237300Y19300
X197200Y33400
X200800Y46300
X199461Y61728
X201429Y65665
X205366
X203398Y69603
X207335
X209303Y73540
X205366
X201429
X197492
X199461Y77477
X203398
X207335
X211272
X209303Y81414
X205366
X201429
X197492
X199461Y85351
X203398
X201429Y89288
X197492
X197049Y104900
X206600Y105900
X212608Y110224
X215743Y97410
X220500Y91600
X222200Y102000
X237449Y105600
X236500Y128900
X227400Y71319
X232700Y65637
X222793Y61600
X197492Y65665
X199461Y69603
X195524
X191587
X193555Y73540
X189618
X185681
X187650Y77477
X191587
X195524
X193555Y81414
X189618
X195524Y85351
X192500Y103100
Y111500
X180900Y100200
X176900
X172400Y100700
X168050Y99950
X171000Y92500
X167500Y90000
X163500Y87000
X160400Y82900
X175600
X176000Y95000
X181100Y95100
X166000Y108500
X162050Y124150
X155348
X149148
X144000
X123100Y120900
X113600Y122100
X112900Y126687
X111400Y131600
X104400Y131300
X98500Y131100
X94800Y141000
X103900Y144400
X115000Y141051
X112900Y111300
X122689Y105035
X126626
X130563
X134500
X138437
X136469Y101099
X140406
X142374Y97162
X138437
X134500
X130563
X126626
X122689
X118752
X114815
X120721Y101099
X124658
X128595
X132532
Y108973
X128595
Y93225
X132532
X136469
X140406
X138437Y89288
X134500
X130563
X126626
X122689
X120721Y93225
X124658
X128595Y85351
X132532
X130563Y81414
X128300Y66400
X124500Y67500
X131500Y62057
X135800Y62100
X130300Y58500
X133100Y52600
X142673Y55673
X154450Y54900
X157400Y57600
X160400Y60100
X163700Y60500
X164841Y63500
X173500Y68700
X174000Y54800
X172900Y48100
X182500Y47900
X196800Y46400
X193555Y65665
X164500Y45269
X140500Y67500
X144000Y72300
X109800Y70000
X112000Y67000
X116500Y58000
X99200Y79500
X98500Y83400
X99000Y89000
X101500Y93500
X105151Y96049
X102100Y105600
X99000Y103800
X100232Y116944
X83100Y107600
X79900Y98000
X53791Y61728
X55760Y57791
X150000Y150100
X156300
X162800
X172900Y139300
Y133700
X179000Y136600
X182100
X185200
X183600Y139500
X180500
T02
X102000Y10500
T03
X30500Y27100
X53700Y32000
X63864Y15700
X69000
X84800Y31600
T05
X55122Y20370
X77878
T06
X197658Y151100
X207658
X217657
X57500
X47500
X37500
X27500
T07
X61000Y79500
Y89500
Y99500
Y109500
Y119500
X71000Y114500
Y124500
Y94500
Y84500
T08
X90016Y80484
X90016Y90484
X90016Y113516
Y123516
T09
X19500Y34657
X256000Y30315
Y50000
Y70130
Y89815
Y109500
Y129657
Y149343
X19500Y54343
T10
X48008Y70504
Y133496
T11
X10630Y10630
X264961
Y170472
X10630
T12
X36000Y79500
Y124500
T13
X162000Y41000
Y49000
X142000Y45000
M30
