G04*
G04 #@! TF.GenerationSoftware,Altium Limited,Altium Designer,19.1.9 (167)*
G04*
G04 Layer_Color=65535*
%FSLAX25Y25*%
%MOIN*%
G70*
G01*
G75*
%ADD10C,0.00591*%
%ADD11C,0.01000*%
%ADD12C,0.00984*%
%ADD13C,0.01575*%
%ADD14C,0.00600*%
%ADD15C,0.00394*%
%ADD16C,0.00787*%
%ADD17C,0.00500*%
G36*
X335400Y99100D02*
D01*
D01*
D01*
D01*
D02*
G37*
D10*
X181931Y118989D02*
X182277Y118154D01*
X183113Y117808D01*
Y143792D02*
X182277Y143446D01*
X181931Y142611D01*
X87035Y12020D02*
X87324Y11324D01*
X88020Y11035D01*
X102980Y11035D02*
X103676Y11324D01*
X103965Y12020D01*
X55465Y56480D02*
X55176Y57176D01*
X54480Y57465D01*
X39520Y57465D02*
X38824Y57176D01*
X38535Y56480D01*
X183113Y117808D02*
X201813D01*
X181931Y119028D02*
Y126942D01*
X207916Y123910D02*
Y126942D01*
X201813Y117808D02*
X207916Y123910D01*
X201813Y143792D02*
X207916Y137690D01*
Y134658D02*
Y137690D01*
X181931Y134658D02*
Y142572D01*
X183113Y143792D02*
X201813D01*
X87035Y12020D02*
Y24815D01*
X88020Y11035D02*
X91642D01*
X90185Y27965D02*
X91642D01*
X87035Y24815D02*
X90185Y27965D01*
X100815Y27965D02*
X103965Y24815D01*
X99358Y27965D02*
X100815D01*
X99358Y11035D02*
X102980D01*
X103965Y12020D02*
Y24815D01*
X55465Y43685D02*
Y56480D01*
X50858Y57465D02*
X54480D01*
X50858Y40535D02*
X52315D01*
Y40535D02*
X55465Y43685D01*
X38535Y43685D02*
X41685Y40535D01*
Y40535D02*
X43142D01*
X39520Y57465D02*
X43142D01*
X38535Y43685D02*
Y56480D01*
D11*
X131118Y120334D02*
X130697Y121209D01*
X129751Y121424D01*
X128993Y120820D01*
Y119849D01*
X129751Y119245D01*
X130697Y119460D01*
X131118Y120334D01*
X200618Y52666D02*
X200197Y53540D01*
X199251Y53755D01*
X198493Y53151D01*
Y52180D01*
X199251Y51575D01*
X200197Y51791D01*
X200618Y52666D01*
X224350Y139289D02*
Y182596D01*
X165295Y139289D02*
X224350D01*
X165295Y127478D02*
Y139289D01*
X106240Y127478D02*
X165295D01*
X106240D02*
Y139289D01*
X22500D02*
X106240D01*
X22500D02*
Y151100D01*
Y182596D01*
X224350D01*
X-6953Y70504D02*
Y133496D01*
X-6996Y70504D02*
X38756D01*
X-6953Y133496D02*
X38756D01*
X95449Y70500D02*
Y133492D01*
X57653Y70504D02*
X95449D01*
X57653Y133496D02*
X95449D01*
X148165Y75824D02*
X153176Y80835D01*
X144824Y79165D02*
X149835Y84176D01*
X152597Y55629D02*
X164568Y67600D01*
X142575Y65651D02*
X152597Y55629D01*
X142575Y65651D02*
X154546Y77622D01*
X164568Y67600D01*
X69000Y146600D02*
Y152598D01*
X71999D01*
X72999Y151598D01*
Y149599D01*
X71999Y148599D01*
X69000D01*
X77997Y152598D02*
X75998D01*
X74998Y151598D01*
Y147600D01*
X75998Y146600D01*
X77997D01*
X78997Y147600D01*
Y151598D01*
X77997Y152598D01*
X84995D02*
X80996D01*
Y146600D01*
X84995D01*
X80996Y149599D02*
X82995D01*
X86994Y145600D02*
X90993D01*
X92992Y146600D02*
Y152598D01*
X94992Y150599D01*
X96991Y152598D01*
Y146600D01*
X99990D02*
X101989D01*
X102989Y147600D01*
Y149599D01*
X101989Y150599D01*
X99990D01*
X98990Y149599D01*
Y147600D01*
X99990Y146600D01*
X108987Y152598D02*
Y146600D01*
X105988D01*
X104988Y147600D01*
Y149599D01*
X105988Y150599D01*
X108987D01*
X110986D02*
Y147600D01*
X111986Y146600D01*
X114985D01*
Y150599D01*
X116984Y146600D02*
X118984D01*
X117984D01*
Y152598D01*
X116984D01*
X124982Y146600D02*
X122983D01*
X121983Y147600D01*
Y149599D01*
X122983Y150599D01*
X124982D01*
X125982Y149599D01*
Y148599D01*
X121983D01*
X24900Y178498D02*
X26899D01*
X25900D01*
Y172500D01*
X24900D01*
X26899D01*
X33897Y177498D02*
X32897Y178498D01*
X30898D01*
X29898Y177498D01*
Y173500D01*
X30898Y172500D01*
X32897D01*
X33897Y173500D01*
X38895Y172500D02*
Y178498D01*
X35896Y175499D01*
X39895D01*
X48100Y38298D02*
X52099Y32300D01*
Y38298D02*
X48100Y32300D01*
X54098D02*
X56097D01*
X55098D01*
Y38298D01*
X54098Y37298D01*
X77226Y43650D02*
Y49648D01*
X80225D01*
X81224Y48648D01*
Y46649D01*
X80225Y45649D01*
X77226D01*
X79225D02*
X81224Y43650D01*
X83224Y48648D02*
X84223Y49648D01*
X86223D01*
X87222Y48648D01*
Y47649D01*
X86223Y46649D01*
X85223D01*
X86223D01*
X87222Y45649D01*
Y44650D01*
X86223Y43650D01*
X84223D01*
X83224Y44650D01*
X89222D02*
X90221Y43650D01*
X92221D01*
X93220Y44650D01*
Y48648D01*
X92221Y49648D01*
X90221D01*
X89222Y48648D01*
Y47649D01*
X90221Y46649D01*
X93220D01*
X70800Y43700D02*
Y49698D01*
X73799D01*
X74799Y48698D01*
Y46699D01*
X73799Y45699D01*
X70800D01*
X72799D02*
X74799Y43700D01*
X76798D02*
X78797D01*
X77798D01*
Y49698D01*
X76798Y48698D01*
X81796Y43700D02*
X83796D01*
X82796D01*
Y49698D01*
X81796Y48698D01*
X181599Y152098D02*
X180599Y153098D01*
X178600D01*
X177600Y152098D01*
Y148100D01*
X178600Y147100D01*
X180599D01*
X181599Y148100D01*
X183598Y147100D02*
X185597D01*
X184598D01*
Y153098D01*
X183598Y152098D01*
X192595Y147100D02*
X188596D01*
X192595Y151099D01*
Y152098D01*
X191595Y153098D01*
X189596D01*
X188596Y152098D01*
D12*
X215146Y110148D02*
X214407Y110574D01*
Y109722D01*
X215146Y110148D01*
D13*
X111614Y60327D02*
X111070Y61076D01*
X110190Y60790D01*
Y59864D01*
X111070Y59578D01*
X111614Y60327D01*
D14*
X64902Y48925D02*
X76102D01*
X64902Y52075D02*
X76102D01*
X237500Y171000D02*
Y176000D01*
X228500Y171000D02*
Y176000D01*
X237500D01*
X79374Y58500D02*
X84374D01*
X79374Y67500D02*
X84374D01*
Y58500D02*
Y67500D01*
X70144Y30876D02*
Y40324D01*
X75656Y30876D02*
Y40324D01*
X82032Y30776D02*
Y40224D01*
X76520Y30776D02*
Y40224D01*
X130000Y117082D02*
X131061Y116021D01*
X149021Y95939D02*
X150082Y97000D01*
X128939Y77979D02*
X130000Y76918D01*
X109918Y97000D02*
X110979Y95939D01*
X130000Y76918D02*
X131061Y77979D01*
X149021Y98061D02*
X150082Y97000D01*
X128939Y116021D02*
X130000Y117082D01*
X109918Y97000D02*
X110979Y98061D01*
X117124Y122351D02*
X119351Y120124D01*
X35076Y12456D02*
X44524D01*
X35076Y6944D02*
X44524D01*
X198439Y56979D02*
X199500Y55918D01*
X179418Y76000D02*
X180479Y77061D01*
X199500Y96082D02*
X200561Y95021D01*
X218521Y77061D02*
X219582Y76000D01*
X198439Y95021D02*
X199500Y96082D01*
X179418Y76000D02*
X180479Y74939D01*
X199500Y55918D02*
X200561Y56979D01*
X218521Y74939D02*
X219582Y76000D01*
X100676Y116944D02*
X110124D01*
X100676Y122456D02*
X110124D01*
X100576Y116656D02*
X110024D01*
X100576Y111144D02*
X110024D01*
X115844Y133276D02*
Y142724D01*
X121356Y133276D02*
Y142724D01*
X35076Y6956D02*
X44524D01*
X35076Y1444D02*
X44524D01*
X108644Y133276D02*
Y142724D01*
X114156Y133276D02*
Y142724D01*
X80244Y138776D02*
Y148224D01*
X85756Y138776D02*
Y148224D01*
X232144Y134176D02*
Y143624D01*
X237656Y134176D02*
Y143624D01*
X105144Y4224D02*
Y13673D01*
X110656Y4224D02*
Y13673D01*
X127256Y26276D02*
Y35724D01*
X121744Y26276D02*
Y35724D01*
X134256Y26276D02*
Y35724D01*
X128744Y26276D02*
Y35724D01*
X141256Y26327D02*
Y35776D01*
X135744Y26327D02*
Y35776D01*
X132144Y3876D02*
Y13324D01*
X137656Y3876D02*
Y13324D01*
X236756Y94376D02*
Y103824D01*
X231244Y94376D02*
Y103824D01*
X181156Y6176D02*
Y15624D01*
X175644Y6176D02*
Y15624D01*
X130756Y3776D02*
Y13224D01*
X125244Y3776D02*
Y13224D01*
X224444Y94276D02*
Y103724D01*
X229956Y94276D02*
Y103724D01*
X125211Y71892D02*
X131892Y65211D01*
X129108Y75789D02*
X135789Y69108D01*
X106856Y133276D02*
Y142724D01*
X101344Y133276D02*
Y142724D01*
X178776Y114256D02*
X188224D01*
X178776Y108744D02*
X188224D01*
X155776Y107756D02*
X165224D01*
X155776Y102244D02*
X165224D01*
X155776Y114256D02*
X165224D01*
X155776Y108744D02*
X165224D01*
X167276D02*
X176724D01*
X167276Y114256D02*
X176724D01*
X172056Y137576D02*
Y147025D01*
X166544Y137576D02*
Y147025D01*
Y125976D02*
Y135425D01*
X172056Y125976D02*
Y135425D01*
X101744Y68276D02*
Y77724D01*
X107256Y68276D02*
Y77724D01*
X165556Y137476D02*
Y146925D01*
X160044Y137476D02*
Y146925D01*
X159056Y137476D02*
Y146925D01*
X153544Y137476D02*
Y146925D01*
X152556Y137576D02*
Y147025D01*
X147044Y137576D02*
Y147025D01*
X87244Y138776D02*
Y148224D01*
X92756Y138776D02*
Y148224D01*
X165556Y125925D02*
Y135373D01*
X160044Y125925D02*
Y135373D01*
X159056Y125925D02*
Y135373D01*
X153544Y125925D02*
Y135373D01*
X152556Y125976D02*
Y135425D01*
X147044Y125976D02*
Y135425D01*
X59276Y38244D02*
X68724D01*
X59276Y43756D02*
X68724D01*
X59276Y32744D02*
X68724D01*
X59276Y38256D02*
X68724D01*
X45756Y23676D02*
Y33124D01*
X40244Y23676D02*
Y33124D01*
X224486Y46413D02*
X226713Y44186D01*
X216887Y38514D02*
X219114Y36287D01*
X97425Y73001D02*
X100575D01*
X210925Y116601D02*
X214075D01*
X58925Y53448D02*
X62075D01*
X105401Y122925D02*
Y126075D01*
X226186Y61313D02*
X228413Y59086D01*
X97025Y138101D02*
X100175D01*
X199748Y49025D02*
Y52175D01*
X203400Y100025D02*
Y103175D01*
X173725Y76049D02*
X176875D01*
X220986Y67113D02*
X223213Y64886D01*
X112886Y70387D02*
X115113Y72614D01*
X102887Y82886D02*
X105114Y85113D01*
X105387Y86886D02*
X107614Y89113D01*
X102101Y98025D02*
Y101175D01*
X121500Y61425D02*
Y64575D01*
X118386Y71387D02*
X120613Y73614D01*
X139987Y75814D02*
X142214Y73587D01*
X105300Y107625D02*
Y110775D01*
X143758Y57259D02*
X145985Y59486D01*
X157086Y77787D02*
X159313Y80014D01*
X131425Y46000D02*
X134575D01*
X124001Y56425D02*
Y59575D01*
X106425Y21001D02*
X109575D01*
X78425Y50499D02*
X81575D01*
D15*
X212183Y36598D02*
X225507Y49921D01*
X203698Y45083D02*
X217021Y58407D01*
X143441Y3763D02*
Y26401D01*
Y3763D02*
X174937D01*
Y26401D01*
X143441D02*
X174937D01*
X182541Y3740D02*
Y26378D01*
Y3740D02*
X214037D01*
Y26378D01*
X182541D02*
X214037D01*
D16*
X7689Y64185D02*
X31311D01*
X3161D02*
X6114D01*
X7689D02*
X8181Y66547D01*
X5622D02*
X6114Y64185D01*
X5622Y66547D02*
X8181D01*
X32886Y64185D02*
X35839D01*
X32886D02*
X33378Y66547D01*
X30819D02*
X31311Y64185D01*
X30819Y66547D02*
X33378D01*
X3161Y24815D02*
X35839D01*
X3161D02*
Y64185D01*
X35839Y24815D02*
Y64185D01*
X215657Y115463D02*
X235343D01*
X215657Y123337D02*
X235343D01*
X215657Y115463D02*
Y123337D01*
X235343Y115463D02*
Y123337D01*
X164500Y38500D02*
Y51500D01*
X139500D02*
X164500D01*
X139500Y38500D02*
X164500D01*
X139500D02*
Y51500D01*
X114319Y14405D02*
X116681D01*
X120319D02*
X122681D01*
X105512Y64264D02*
X114764D01*
X105512Y34736D02*
X114764D01*
X85236D02*
X94488D01*
X85236Y64264D02*
X94488D01*
X114764Y34736D02*
Y64264D01*
X85236Y34736D02*
Y64264D01*
X244189Y119815D02*
X267811D01*
X269386D02*
X272339D01*
X267319Y117453D02*
X267811Y119815D01*
X269386D02*
X269878Y117453D01*
X267319D02*
X269878D01*
X239661Y119815D02*
X242614D01*
X242122Y117453D02*
X242614Y119815D01*
X244189D02*
X244681Y117453D01*
X242122D02*
X244681D01*
X239661Y159185D02*
X272339D01*
Y119815D02*
Y159185D01*
X239661Y119815D02*
Y159185D01*
X244189Y20472D02*
X267811D01*
X269386D02*
X272339D01*
X267319Y18110D02*
X267811Y20472D01*
X269386D02*
X269878Y18110D01*
X267319D02*
X269878D01*
X239661Y20472D02*
X242614D01*
X242122Y18110D02*
X242614Y20472D01*
X244189D02*
X244681Y18110D01*
X242122D02*
X244681D01*
X239661Y59842D02*
X272339D01*
Y20472D02*
Y59842D01*
X239661Y20472D02*
Y59842D01*
X244189Y60287D02*
X267811D01*
X269386D02*
X272339D01*
X267319Y57925D02*
X267811Y60287D01*
X269386D02*
X269878Y57925D01*
X267319D02*
X269878D01*
X239661Y60287D02*
X242614D01*
X242122Y57925D02*
X242614Y60287D01*
X244189D02*
X244681Y57925D01*
X242122D02*
X244681D01*
X239661Y119343D02*
X272339D01*
Y60287D02*
Y119343D01*
X239661Y60287D02*
Y119343D01*
D17*
X7400Y18200D02*
Y19533D01*
X153300Y82900D02*
X151886Y84314D01*
X152593Y85021D01*
X153064D01*
X153536Y84549D01*
X153536Y84078D01*
X152829Y83371D01*
X153300Y83842D02*
X154243D01*
X153536Y85492D02*
X153536Y85963D01*
X154007Y86434D01*
X154478D01*
X154714Y86199D01*
Y85728D01*
X154478Y85492D01*
X154714Y85728D01*
X155185D01*
X155421Y85492D01*
Y85021D01*
X154949Y84549D01*
X154478D01*
X121533Y40199D02*
X120200D01*
Y39200D01*
X120867D01*
X120200D01*
Y38200D01*
X122199Y40199D02*
Y38200D01*
X123199D01*
X123532Y38533D01*
Y38866D01*
X123199Y39200D01*
X122199D01*
X123199D01*
X123532Y39533D01*
Y39866D01*
X123199Y40199D01*
X122199D01*
X125532Y38200D02*
X124199D01*
X125532Y39533D01*
Y39866D01*
X125198Y40199D01*
X124532D01*
X124199Y39866D01*
X122233Y48299D02*
X120900D01*
Y47300D01*
X121566D01*
X120900D01*
Y46300D01*
X122899Y48299D02*
Y46300D01*
X123899D01*
X124232Y46633D01*
Y46966D01*
X123899Y47300D01*
X122899D01*
X123899D01*
X124232Y47633D01*
Y47966D01*
X123899Y48299D01*
X122899D01*
X124899Y46300D02*
X125565D01*
X125232D01*
Y48299D01*
X124899Y47966D01*
X29600Y10799D02*
Y8800D01*
X30600D01*
X30933Y9133D01*
Y10466D01*
X30600Y10799D01*
X29600D01*
X32599Y8800D02*
Y10799D01*
X31599Y9800D01*
X32932D01*
X35699Y104000D02*
X33700Y102667D01*
X35699D02*
X33700Y104000D01*
Y100668D02*
Y102001D01*
X35033Y100668D01*
X35366D01*
X35699Y101001D01*
Y101667D01*
X35366Y102001D01*
X99400Y116874D02*
X97401D01*
Y117874D01*
X97734Y118207D01*
X98400D01*
X98734Y117874D01*
Y116874D01*
Y117541D02*
X99400Y118207D01*
Y119873D02*
X97401D01*
X98400Y118874D01*
Y120207D01*
X97734Y120873D02*
X97401Y121206D01*
Y121873D01*
X97734Y122206D01*
X98067D01*
X98400Y121873D01*
Y121540D01*
Y121873D01*
X98734Y122206D01*
X99067D01*
X99400Y121873D01*
Y121206D01*
X99067Y120873D01*
X111300Y112900D02*
Y114899D01*
X112300D01*
X112633Y114566D01*
Y113900D01*
X112300Y113567D01*
X111300D01*
X111967D02*
X112633Y112900D01*
X114299D02*
Y114899D01*
X113299Y113900D01*
X114632D01*
X116632Y112900D02*
X115299D01*
X116632Y114233D01*
Y114566D01*
X116298Y114899D01*
X115632D01*
X115299Y114566D01*
X119600Y144300D02*
X117601D01*
Y145300D01*
X117934Y145633D01*
X118600D01*
X118933Y145300D01*
Y144300D01*
Y144966D02*
X119600Y145633D01*
Y147299D02*
X117601D01*
X118600Y146299D01*
Y147632D01*
X119600Y148299D02*
Y148965D01*
Y148632D01*
X117601D01*
X117934Y148299D01*
X112400Y144500D02*
X110401D01*
Y145500D01*
X110734Y145833D01*
X111400D01*
X111733Y145500D01*
Y144500D01*
Y145167D02*
X112400Y145833D01*
X110734Y146499D02*
X110401Y146833D01*
Y147499D01*
X110734Y147832D01*
X111067D01*
X111400Y147499D01*
Y147166D01*
Y147499D01*
X111733Y147832D01*
X112067D01*
X112400Y147499D01*
Y146833D01*
X112067Y146499D01*
X110734Y148499D02*
X110401Y148832D01*
Y149498D01*
X110734Y149832D01*
X111067D01*
X111400Y149498D01*
X111733Y149832D01*
X112067D01*
X112400Y149498D01*
Y148832D01*
X112067Y148499D01*
X111733D01*
X111400Y148832D01*
X111067Y148499D01*
X110734D01*
X111400Y148832D02*
Y149498D01*
X112733Y125266D02*
X112400Y125599D01*
X111733D01*
X111400Y125266D01*
Y123933D01*
X111733Y123600D01*
X112400D01*
X112733Y123933D01*
X114732Y123600D02*
X113399D01*
X114732Y124933D01*
Y125266D01*
X114399Y125599D01*
X113733D01*
X113399Y125266D01*
X115399D02*
X115732Y125599D01*
X116398D01*
X116732Y125266D01*
Y124933D01*
X116398Y124600D01*
X116065D01*
X116398D01*
X116732Y124267D01*
Y123933D01*
X116398Y123600D01*
X115732D01*
X115399Y123933D01*
X98034Y145733D02*
X97701Y145400D01*
Y144733D01*
X98034Y144400D01*
X99367D01*
X99700Y144733D01*
Y145400D01*
X99367Y145733D01*
X99700Y147732D02*
Y146399D01*
X98367Y147732D01*
X98034D01*
X97701Y147399D01*
Y146733D01*
X98034Y146399D01*
X99700Y148399D02*
Y149065D01*
Y148732D01*
X97701D01*
X98034Y148399D01*
X104933Y105666D02*
X104600Y105999D01*
X103933D01*
X103600Y105666D01*
Y104333D01*
X103933Y104000D01*
X104600D01*
X104933Y104333D01*
X105599Y105999D02*
X106932D01*
Y105666D01*
X105599Y104333D01*
Y104000D01*
X27300Y18399D02*
X28633D01*
X27966D01*
Y16400D01*
X30632Y18399D02*
X29299D01*
Y17400D01*
X29966Y17733D01*
X30299D01*
X30632Y17400D01*
Y16733D01*
X30299Y16400D01*
X29633D01*
X29299Y16733D01*
X27800Y3000D02*
Y4999D01*
X28800D01*
X29133Y4666D01*
Y4000D01*
X28800Y3666D01*
X27800D01*
X28466D02*
X29133Y3000D01*
X30799D02*
Y4999D01*
X29799Y4000D01*
X31132D01*
X31799Y4666D02*
X32132Y4999D01*
X32798D01*
X33132Y4666D01*
Y3333D01*
X32798Y3000D01*
X32132D01*
X31799Y3333D01*
Y4666D01*
X220700Y76699D02*
X221366D01*
X221033D01*
Y74700D01*
X220700D01*
X221366D01*
X223699Y76366D02*
X223366Y76699D01*
X222699D01*
X222366Y76366D01*
Y75033D01*
X222699Y74700D01*
X223366D01*
X223699Y75033D01*
X224365Y74700D02*
X225032D01*
X224699D01*
Y76699D01*
X224365Y76366D01*
X143900Y27700D02*
Y29699D01*
X144900D01*
X145233Y29366D01*
Y28700D01*
X144900Y28366D01*
X143900D01*
X144567D02*
X145233Y27700D01*
X146899D02*
X146233D01*
X145899Y28033D01*
Y28700D01*
X146233Y29033D01*
X146899D01*
X147232Y28700D01*
Y28366D01*
X145899D01*
X147899Y27700D02*
X148898D01*
X149232Y28033D01*
X148898Y28366D01*
X148232D01*
X147899Y28700D01*
X148232Y29033D01*
X149232D01*
X150898Y27700D02*
X150231D01*
X149898Y28033D01*
Y28700D01*
X150231Y29033D01*
X150898D01*
X151231Y28700D01*
Y28366D01*
X149898D01*
X152231Y29366D02*
Y29033D01*
X151897D01*
X152564D01*
X152231D01*
Y28033D01*
X152564Y27700D01*
X183100Y30099D02*
Y28100D01*
X184100D01*
X184433Y28433D01*
Y28766D01*
X184100Y29100D01*
X183100D01*
X184100D01*
X184433Y29433D01*
Y29766D01*
X184100Y30099D01*
X183100D01*
X185433Y28100D02*
X186099D01*
X186432Y28433D01*
Y29100D01*
X186099Y29433D01*
X185433D01*
X185099Y29100D01*
Y28433D01*
X185433Y28100D01*
X187432D02*
X188098D01*
X188432Y28433D01*
Y29100D01*
X188098Y29433D01*
X187432D01*
X187099Y29100D01*
Y28433D01*
X187432Y28100D01*
X189431Y29766D02*
Y29433D01*
X189098D01*
X189764D01*
X189431D01*
Y28433D01*
X189764Y28100D01*
X242433Y63899D02*
X241766D01*
X242100D01*
Y62233D01*
X241766Y61900D01*
X241433D01*
X241100Y62233D01*
X243099Y63566D02*
X243433Y63899D01*
X244099D01*
X244432Y63566D01*
Y63233D01*
X244099Y62900D01*
X243766D01*
X244099D01*
X244432Y62566D01*
Y62233D01*
X244099Y61900D01*
X243433D01*
X243099Y62233D01*
X92633Y4366D02*
X92300Y4699D01*
X91633D01*
X91300Y4366D01*
Y3033D01*
X91633Y2700D01*
X92300D01*
X92633Y3033D01*
X93299Y4366D02*
X93633Y4699D01*
X94299D01*
X94632Y4366D01*
Y4033D01*
X94299Y3700D01*
X93966D01*
X94299D01*
X94632Y3366D01*
Y3033D01*
X94299Y2700D01*
X93633D01*
X93299Y3033D01*
X95299Y4366D02*
X95632Y4699D01*
X96298D01*
X96632Y4366D01*
Y3033D01*
X96298Y2700D01*
X95632D01*
X95299Y3033D01*
Y4366D01*
X107734Y27933D02*
X107401Y27600D01*
Y26933D01*
X107734Y26600D01*
X109067D01*
X109400Y26933D01*
Y27600D01*
X109067Y27933D01*
X109400Y29932D02*
Y28599D01*
X108067Y29932D01*
X107734D01*
X107401Y29599D01*
Y28933D01*
X107734Y28599D01*
X79934Y41833D02*
X79601Y41500D01*
Y40833D01*
X79934Y40500D01*
X81267D01*
X81600Y40833D01*
Y41500D01*
X81267Y41833D01*
X81600Y42499D02*
Y43166D01*
Y42833D01*
X79601D01*
X79934Y42499D01*
X123533Y55466D02*
X123200Y55799D01*
X122533D01*
X122200Y55466D01*
Y54133D01*
X122533Y53800D01*
X123200D01*
X123533Y54133D01*
X124199Y55466D02*
X124533Y55799D01*
X125199D01*
X125532Y55466D01*
Y55133D01*
X125199Y54800D01*
X124866D01*
X125199D01*
X125532Y54466D01*
Y54133D01*
X125199Y53800D01*
X124533D01*
X124199Y54133D01*
X133034Y53433D02*
X132701Y53100D01*
Y52433D01*
X133034Y52100D01*
X134367D01*
X134700Y52433D01*
Y53100D01*
X134367Y53433D01*
X134700Y55099D02*
X132701D01*
X133700Y54099D01*
Y55432D01*
X200867Y63734D02*
X201200Y63401D01*
X201867D01*
X202200Y63734D01*
Y65067D01*
X201867Y65400D01*
X201200D01*
X200867Y65067D01*
X198868Y63401D02*
X200201D01*
Y64400D01*
X199534Y64067D01*
X199201D01*
X198868Y64400D01*
Y65067D01*
X199201Y65400D01*
X199867D01*
X200201Y65067D01*
X136405Y57339D02*
X136072Y57672D01*
X135406D01*
X135073Y57339D01*
Y56006D01*
X135406Y55673D01*
X136072D01*
X136405Y56006D01*
X138405Y57672D02*
X137738Y57339D01*
X137072Y56672D01*
Y56006D01*
X137405Y55673D01*
X138072D01*
X138405Y56006D01*
Y56339D01*
X138072Y56672D01*
X137072D01*
X142864Y72221D02*
X142393D01*
X141922Y71749D01*
X141922Y71278D01*
X142864Y70336D01*
X143336D01*
X143807Y70807D01*
X143807Y71278D01*
X143336Y72692D02*
X143336Y73163D01*
X143807Y73634D01*
X144278D01*
X144514Y73399D01*
Y72927D01*
X144985D01*
X145221Y72692D01*
Y72221D01*
X144749Y71749D01*
X144278D01*
X144043Y71985D01*
Y72456D01*
X143571D01*
X143336Y72692D01*
X144043Y72456D02*
X144514Y72927D01*
X114279Y76864D02*
Y76393D01*
X114751Y75922D01*
X115222Y75922D01*
X116164Y76864D01*
Y77336D01*
X115693Y77807D01*
X115222Y77807D01*
X114751Y78278D02*
Y78749D01*
X114279Y79221D01*
X113808D01*
X112866Y78278D01*
Y77807D01*
X113337Y77336D01*
X113808Y77336D01*
X114044Y77571D01*
Y78043D01*
X113337Y78749D01*
X128733Y62966D02*
X128400Y63299D01*
X127733D01*
X127400Y62966D01*
Y61633D01*
X127733Y61300D01*
X128400D01*
X128733Y61633D01*
X129399Y61300D02*
X130066D01*
X129733D01*
Y63299D01*
X129399Y62966D01*
X131065D02*
X131399Y63299D01*
X132065D01*
X132398Y62966D01*
Y61633D01*
X132065Y61300D01*
X131399D01*
X131065Y61633D01*
Y62966D01*
X124233Y125766D02*
X123900Y126099D01*
X123233D01*
X122900Y125766D01*
Y124433D01*
X123233Y124100D01*
X123900D01*
X124233Y124433D01*
X124899Y124100D02*
X125566D01*
X125233D01*
Y126099D01*
X124899Y125766D01*
X126566Y124100D02*
X127232D01*
X126899D01*
Y126099D01*
X126566Y125766D01*
X100433Y96166D02*
X100100Y96499D01*
X99433D01*
X99100Y96166D01*
Y94833D01*
X99433Y94500D01*
X100100D01*
X100433Y94833D01*
X101099Y94500D02*
X101766D01*
X101433D01*
Y96499D01*
X101099Y96166D01*
X102766D02*
X103099Y96499D01*
X103765D01*
X104098Y96166D01*
Y95833D01*
X103765Y95500D01*
X103432D01*
X103765D01*
X104098Y95166D01*
Y94833D01*
X103765Y94500D01*
X103099D01*
X102766Y94833D01*
X111921Y83536D02*
Y84007D01*
X111449Y84478D01*
X110978Y84478D01*
X110036Y83536D01*
Y83064D01*
X110507Y82593D01*
X110978Y82593D01*
X111214Y81886D02*
X111685Y81415D01*
X111449Y81651D01*
X112863Y83064D01*
X112392Y83064D01*
X113099Y80001D02*
X114513Y81415D01*
X113099D01*
X114041Y80472D01*
X109321Y79636D02*
Y80107D01*
X108849Y80578D01*
X108378Y80578D01*
X107436Y79636D01*
Y79164D01*
X107907Y78693D01*
X108378Y78693D01*
X108614Y77986D02*
X109085Y77515D01*
X108849Y77751D01*
X110263Y79164D01*
X109792Y79164D01*
X112148Y77279D02*
X111206Y78222D01*
X110499Y77515D01*
X111206Y77279D01*
X111441Y77044D01*
Y76573D01*
X110970Y76101D01*
X110499Y76101D01*
X110028Y76573D01*
Y77044D01*
X121333Y90166D02*
X121000Y90499D01*
X120333D01*
X120000Y90166D01*
Y88833D01*
X120333Y88500D01*
X121000D01*
X121333Y88833D01*
X121999Y88500D02*
X122666D01*
X122333D01*
Y90499D01*
X121999Y90166D01*
X124998Y90499D02*
X124332Y90166D01*
X123665Y89500D01*
Y88833D01*
X123999Y88500D01*
X124665D01*
X124998Y88833D01*
Y89166D01*
X124665Y89500D01*
X123665D01*
X212864Y57121D02*
X212393D01*
X211922Y56649D01*
X211922Y56178D01*
X212864Y55236D01*
X213336D01*
X213807Y55707D01*
X213807Y56178D01*
X214514Y56414D02*
X214985Y56885D01*
X214749Y56649D01*
X213336Y58063D01*
X213336Y57592D01*
X214278Y59006D02*
X215221Y59948D01*
X215456Y59712D01*
Y57828D01*
X215692Y57592D01*
X170634Y73233D02*
X170301Y72900D01*
Y72233D01*
X170634Y71900D01*
X171967D01*
X172300Y72233D01*
Y72900D01*
X171967Y73233D01*
X172300Y73899D02*
Y74566D01*
Y74233D01*
X170301D01*
X170634Y73899D01*
Y75565D02*
X170301Y75899D01*
Y76565D01*
X170634Y76898D01*
X170967D01*
X171300Y76565D01*
X171634Y76898D01*
X171967D01*
X172300Y76565D01*
Y75899D01*
X171967Y75565D01*
X171634D01*
X171300Y75899D01*
X170967Y75565D01*
X170634D01*
X171300Y75899D02*
Y76565D01*
X210633Y101966D02*
X210300Y102299D01*
X209633D01*
X209300Y101966D01*
Y100633D01*
X209633Y100300D01*
X210300D01*
X210633Y100633D01*
X211299Y100300D02*
X211966D01*
X211633D01*
Y102299D01*
X211299Y101966D01*
X212965Y100633D02*
X213299Y100300D01*
X213965D01*
X214298Y100633D01*
Y101966D01*
X213965Y102299D01*
X213299D01*
X212965Y101966D01*
Y101633D01*
X213299Y101300D01*
X214298D01*
X186633Y50666D02*
X186300Y50999D01*
X185633D01*
X185300Y50666D01*
Y49333D01*
X185633Y49000D01*
X186300D01*
X186633Y49333D01*
X188632Y49000D02*
X187299D01*
X188632Y50333D01*
Y50666D01*
X188299Y50999D01*
X187633D01*
X187299Y50666D01*
X189299D02*
X189632Y50999D01*
X190298D01*
X190632Y50666D01*
Y49333D01*
X190298Y49000D01*
X189632D01*
X189299Y49333D01*
Y50666D01*
X228564Y55321D02*
X228093D01*
X227622Y54849D01*
X227622Y54378D01*
X228564Y53436D01*
X229036D01*
X229507Y53907D01*
X229507Y54378D01*
X231156Y55556D02*
X230214Y54614D01*
Y56499D01*
X229978Y56734D01*
X229507D01*
X229036Y56263D01*
X229036Y55792D01*
X232570Y56970D02*
X231627Y56028D01*
Y57912D01*
X231392Y58148D01*
X230921D01*
X230449Y57677D01*
Y57206D01*
X139600Y54599D02*
X140933Y52600D01*
Y54599D02*
X139600Y52600D01*
X141599Y54266D02*
X141933Y54599D01*
X142599D01*
X142932Y54266D01*
Y53933D01*
X142599Y53600D01*
X142266D01*
X142599D01*
X142932Y53266D01*
Y52933D01*
X142599Y52600D01*
X141933D01*
X141599Y52933D01*
X60234Y60533D02*
X59901Y60200D01*
Y59533D01*
X60234Y59200D01*
X61567D01*
X61900Y59533D01*
Y60200D01*
X61567Y60533D01*
X61900Y62532D02*
Y61199D01*
X60567Y62532D01*
X60234D01*
X59901Y62199D01*
Y61533D01*
X60234Y61199D01*
X61900Y64198D02*
X59901D01*
X60900Y63199D01*
Y64532D01*
X69801Y58200D02*
Y58866D01*
Y58533D01*
X71800D01*
Y58200D01*
Y58866D01*
X70134Y61199D02*
X69801Y60866D01*
Y60199D01*
X70134Y59866D01*
X71467D01*
X71800Y60199D01*
Y60866D01*
X71467Y61199D01*
X69801Y63198D02*
Y61866D01*
X70800D01*
X70467Y62532D01*
Y62865D01*
X70800Y63198D01*
X71467D01*
X71800Y62865D01*
Y62199D01*
X71467Y61866D01*
X132800Y121699D02*
X133466D01*
X133133D01*
Y119700D01*
X132800D01*
X133466D01*
X135799Y121366D02*
X135466Y121699D01*
X134799D01*
X134466Y121366D01*
Y120033D01*
X134799Y119700D01*
X135466D01*
X135799Y120033D01*
X137798Y119700D02*
X136466D01*
X137798Y121033D01*
Y121366D01*
X137465Y121699D01*
X136799D01*
X136466Y121366D01*
X238001Y115600D02*
Y116267D01*
Y115933D01*
X240000D01*
Y115600D01*
Y116267D01*
X238334Y118599D02*
X238001Y118266D01*
Y117599D01*
X238334Y117266D01*
X239667D01*
X240000Y117599D01*
Y118266D01*
X239667Y118599D01*
X238334Y119265D02*
X238001Y119599D01*
Y120265D01*
X238334Y120598D01*
X238667D01*
X239000Y120265D01*
Y119932D01*
Y120265D01*
X239334Y120598D01*
X239667D01*
X240000Y120265D01*
Y119599D01*
X239667Y119265D01*
X122900Y15900D02*
X120901D01*
Y16900D01*
X121234Y17233D01*
X121900D01*
X122233Y16900D01*
Y15900D01*
X121234Y19232D02*
X120901Y18899D01*
Y18233D01*
X121234Y17899D01*
X122567D01*
X122900Y18233D01*
Y18899D01*
X122567Y19232D01*
X122900Y21898D02*
Y22565D01*
Y22231D01*
X120901D01*
X121234Y21898D01*
Y23564D02*
X120901Y23897D01*
Y24564D01*
X121234Y24897D01*
X121567D01*
X121900Y24564D01*
Y24231D01*
Y24564D01*
X122233Y24897D01*
X122567D01*
X122900Y24564D01*
Y23897D01*
X122567Y23564D01*
X116950Y15750D02*
X114951D01*
Y16750D01*
X115284Y17083D01*
X115950D01*
X116284Y16750D01*
Y15750D01*
X114951Y17749D02*
X116950D01*
X116284Y18416D01*
X116950Y19082D01*
X114951D01*
X116950Y19749D02*
X114951D01*
Y20748D01*
X115284Y21082D01*
X115950D01*
X116284Y20748D01*
Y19749D01*
Y20415D02*
X116950Y21082D01*
X73500Y33600D02*
X71501D01*
Y34600D01*
X71834Y34933D01*
X72500D01*
X72834Y34600D01*
Y33600D01*
Y34266D02*
X73500Y34933D01*
Y35599D02*
Y36266D01*
Y35933D01*
X71501D01*
X71834Y35599D01*
X57900Y35700D02*
X55901D01*
Y36700D01*
X56234Y37033D01*
X56900D01*
X57234Y36700D01*
Y35700D01*
Y36366D02*
X57900Y37033D01*
Y39032D02*
Y37699D01*
X56567Y39032D01*
X56234D01*
X55901Y38699D01*
Y38033D01*
X56234Y37699D01*
X151300Y119000D02*
X149301D01*
Y120000D01*
X149634Y120333D01*
X150301D01*
X150634Y120000D01*
Y119000D01*
Y119667D02*
X151300Y120333D01*
Y121999D02*
X149301D01*
X150301Y121000D01*
Y122332D01*
X158200Y118600D02*
X156201D01*
Y119600D01*
X156534Y119933D01*
X157201D01*
X157534Y119600D01*
Y118600D01*
Y119267D02*
X158200Y119933D01*
X156201Y121932D02*
Y120599D01*
X157201D01*
X156867Y121266D01*
Y121599D01*
X157201Y121932D01*
X157867D01*
X158200Y121599D01*
Y120933D01*
X157867Y120599D01*
X164100Y118900D02*
X162101D01*
Y119900D01*
X162434Y120233D01*
X163101D01*
X163434Y119900D01*
Y118900D01*
Y119567D02*
X164100Y120233D01*
X162101Y122232D02*
X162434Y121566D01*
X163101Y120899D01*
X163767D01*
X164100Y121233D01*
Y121899D01*
X163767Y122232D01*
X163434D01*
X163101Y121899D01*
Y120899D01*
X91000Y149800D02*
X89001D01*
Y150800D01*
X89334Y151133D01*
X90000D01*
X90334Y150800D01*
Y149800D01*
Y150467D02*
X91000Y151133D01*
X89001Y151799D02*
Y153132D01*
X89334D01*
X90667Y151799D01*
X91000D01*
X151300Y149200D02*
X149301D01*
Y150200D01*
X149634Y150533D01*
X150301D01*
X150634Y150200D01*
Y149200D01*
Y149867D02*
X151300Y150533D01*
X149634Y151199D02*
X149301Y151533D01*
Y152199D01*
X149634Y152532D01*
X149967D01*
X150301Y152199D01*
X150634Y152532D01*
X150967D01*
X151300Y152199D01*
Y151533D01*
X150967Y151199D01*
X150634D01*
X150301Y151533D01*
X149967Y151199D01*
X149634D01*
X150301Y151533D02*
Y152199D01*
X158200Y149200D02*
X156201D01*
Y150200D01*
X156534Y150533D01*
X157201D01*
X157534Y150200D01*
Y149200D01*
Y149867D02*
X158200Y150533D01*
X157867Y151199D02*
X158200Y151533D01*
Y152199D01*
X157867Y152532D01*
X156534D01*
X156201Y152199D01*
Y151533D01*
X156534Y151199D01*
X156867D01*
X157201Y151533D01*
Y152532D01*
X164400Y148700D02*
X162401D01*
Y149700D01*
X162734Y150033D01*
X163401D01*
X163734Y149700D01*
Y148700D01*
Y149367D02*
X164400Y150033D01*
Y150699D02*
Y151366D01*
Y151033D01*
X162401D01*
X162734Y150699D01*
Y152366D02*
X162401Y152699D01*
Y153365D01*
X162734Y153699D01*
X164067D01*
X164400Y153365D01*
Y152699D01*
X164067Y152366D01*
X162734D01*
X106200Y69200D02*
X104201D01*
Y70200D01*
X104534Y70533D01*
X105200D01*
X105534Y70200D01*
Y69200D01*
Y69866D02*
X106200Y70533D01*
Y71199D02*
Y71866D01*
Y71533D01*
X104201D01*
X104534Y71199D01*
X106200Y74198D02*
Y72865D01*
X104867Y74198D01*
X104534D01*
X104201Y73865D01*
Y73199D01*
X104534Y72865D01*
X171000Y116200D02*
X169001D01*
Y117200D01*
X169334Y117533D01*
X170001D01*
X170334Y117200D01*
Y116200D01*
Y116867D02*
X171000Y117533D01*
Y118200D02*
Y118866D01*
Y118533D01*
X169001D01*
X169334Y118200D01*
Y119866D02*
X169001Y120199D01*
Y120865D01*
X169334Y121199D01*
X169667D01*
X170001Y120865D01*
Y120532D01*
Y120865D01*
X170334Y121199D01*
X170667D01*
X171000Y120865D01*
Y120199D01*
X170667Y119866D01*
X170900Y149000D02*
X168901D01*
Y150000D01*
X169234Y150333D01*
X169901D01*
X170234Y150000D01*
Y149000D01*
Y149667D02*
X170900Y150333D01*
Y150999D02*
Y151666D01*
Y151333D01*
X168901D01*
X169234Y150999D01*
X170900Y153665D02*
X168901D01*
X169901Y152666D01*
Y153999D01*
X168300Y104300D02*
Y106299D01*
X169300D01*
X169633Y105966D01*
Y105300D01*
X169300Y104966D01*
X168300D01*
X168966D02*
X169633Y104300D01*
X170299D02*
X170966D01*
X170633D01*
Y106299D01*
X170299Y105966D01*
X173298Y106299D02*
X171966D01*
Y105300D01*
X172632Y105633D01*
X172965D01*
X173298Y105300D01*
Y104633D01*
X172965Y104300D01*
X172299D01*
X171966Y104633D01*
X156500Y115400D02*
Y117399D01*
X157500D01*
X157833Y117066D01*
Y116400D01*
X157500Y116067D01*
X156500D01*
X157167D02*
X157833Y115400D01*
X158499D02*
X159166D01*
X158833D01*
Y117399D01*
X158499Y117066D01*
X161498Y117399D02*
X160832Y117066D01*
X160166Y116400D01*
Y115733D01*
X160499Y115400D01*
X161165D01*
X161498Y115733D01*
Y116067D01*
X161165Y116400D01*
X160166D01*
X156600Y97800D02*
Y99799D01*
X157600D01*
X157933Y99466D01*
Y98800D01*
X157600Y98466D01*
X156600D01*
X157266D02*
X157933Y97800D01*
X158599D02*
X159266D01*
X158933D01*
Y99799D01*
X158599Y99466D01*
X160266Y99799D02*
X161598D01*
Y99466D01*
X160266Y98133D01*
Y97800D01*
X179800Y104300D02*
Y106299D01*
X180800D01*
X181133Y105966D01*
Y105300D01*
X180800Y104966D01*
X179800D01*
X180466D02*
X181133Y104300D01*
X181799D02*
X182466D01*
X182133D01*
Y106299D01*
X181799Y105966D01*
X183466D02*
X183799Y106299D01*
X184465D01*
X184798Y105966D01*
Y105633D01*
X184465Y105300D01*
X184798Y104966D01*
Y104633D01*
X184465Y104300D01*
X183799D01*
X183466Y104633D01*
Y104966D01*
X183799Y105300D01*
X183466Y105633D01*
Y105966D01*
X183799Y105300D02*
X184465D01*
X105200Y144700D02*
X103201D01*
Y145700D01*
X103534Y146033D01*
X104200D01*
X104534Y145700D01*
Y144700D01*
Y145367D02*
X105200Y146033D01*
Y148032D02*
Y146699D01*
X103867Y148032D01*
X103534D01*
X103201Y147699D01*
Y147033D01*
X103534Y146699D01*
X105200Y148699D02*
Y149365D01*
Y149032D01*
X103201D01*
X103534Y148699D01*
X126400Y72300D02*
X127814Y73714D01*
X128521Y73007D01*
Y72536D01*
X128049Y72064D01*
X127578Y72064D01*
X126871Y72771D01*
X127342Y72300D02*
Y71358D01*
X128756Y69944D02*
X127814Y70886D01*
X129699D01*
X129934Y71122D01*
Y71593D01*
X129463Y72064D01*
X128992Y72064D01*
X130170Y68530D02*
X129227Y69472D01*
X131113D01*
X131348Y69708D01*
Y70179D01*
X130877Y70651D01*
X130406D01*
X228800Y84300D02*
X226801D01*
Y85300D01*
X227134Y85633D01*
X227800D01*
X228134Y85300D01*
Y84300D01*
Y84966D02*
X228800Y85633D01*
Y87632D02*
Y86299D01*
X227467Y87632D01*
X227134D01*
X226801Y87299D01*
Y86633D01*
X227134Y86299D01*
Y88299D02*
X226801Y88632D01*
Y89298D01*
X227134Y89632D01*
X227467D01*
X227800Y89298D01*
Y88965D01*
Y89298D01*
X228134Y89632D01*
X228467D01*
X228800Y89298D01*
Y88632D01*
X228467Y88299D01*
X129100Y14400D02*
X127101D01*
Y15400D01*
X127434Y15733D01*
X128100D01*
X128434Y15400D01*
Y14400D01*
Y15067D02*
X129100Y15733D01*
Y17732D02*
Y16399D01*
X127767Y17732D01*
X127434D01*
X127101Y17399D01*
Y16733D01*
X127434Y16399D01*
X129100Y19398D02*
X127101D01*
X128100Y18399D01*
Y19732D01*
X179400Y17200D02*
X177401D01*
Y18200D01*
X177734Y18533D01*
X178400D01*
X178734Y18200D01*
Y17200D01*
Y17866D02*
X179400Y18533D01*
Y20532D02*
Y19199D01*
X178067Y20532D01*
X177734D01*
X177401Y20199D01*
Y19533D01*
X177734Y19199D01*
X177401Y22532D02*
Y21199D01*
X178400D01*
X178067Y21865D01*
Y22198D01*
X178400Y22532D01*
X179067D01*
X179400Y22198D01*
Y21532D01*
X179067Y21199D01*
X235700Y84300D02*
X233701D01*
Y85300D01*
X234034Y85633D01*
X234700D01*
X235034Y85300D01*
Y84300D01*
Y84966D02*
X235700Y85633D01*
Y87632D02*
Y86299D01*
X234367Y87632D01*
X234034D01*
X233701Y87299D01*
Y86633D01*
X234034Y86299D01*
X233701Y89632D02*
X234034Y88965D01*
X234700Y88299D01*
X235367D01*
X235700Y88632D01*
Y89298D01*
X235367Y89632D01*
X235034D01*
X234700Y89298D01*
Y88299D01*
X135900Y14100D02*
X133901D01*
Y15100D01*
X134234Y15433D01*
X134900D01*
X135233Y15100D01*
Y14100D01*
Y14766D02*
X135900Y15433D01*
Y17432D02*
Y16099D01*
X134567Y17432D01*
X134234D01*
X133901Y17099D01*
Y16433D01*
X134234Y16099D01*
X133901Y18099D02*
Y19432D01*
X134234D01*
X135567Y18099D01*
X135900D01*
X139700Y19700D02*
X137701D01*
Y20700D01*
X138034Y21033D01*
X138700D01*
X139033Y20700D01*
Y19700D01*
Y20367D02*
X139700Y21033D01*
Y23032D02*
Y21699D01*
X138367Y23032D01*
X138034D01*
X137701Y22699D01*
Y22033D01*
X138034Y21699D01*
Y23699D02*
X137701Y24032D01*
Y24698D01*
X138034Y25032D01*
X138367D01*
X138700Y24698D01*
X139033Y25032D01*
X139367D01*
X139700Y24698D01*
Y24032D01*
X139367Y23699D01*
X139033D01*
X138700Y24032D01*
X138367Y23699D01*
X138034D01*
X138700Y24032D02*
Y24698D01*
X132600Y20100D02*
X130601D01*
Y21100D01*
X130934Y21433D01*
X131600D01*
X131933Y21100D01*
Y20100D01*
Y20766D02*
X132600Y21433D01*
Y23432D02*
Y22099D01*
X131267Y23432D01*
X130934D01*
X130601Y23099D01*
Y22433D01*
X130934Y22099D01*
X132267Y24099D02*
X132600Y24432D01*
Y25098D01*
X132267Y25432D01*
X130934D01*
X130601Y25098D01*
Y24432D01*
X130934Y24099D01*
X131267D01*
X131600Y24432D01*
Y25432D01*
X120824Y27949D02*
X118825D01*
Y28949D01*
X119158Y29282D01*
X119825D01*
X120158Y28949D01*
Y27949D01*
Y28615D02*
X120824Y29282D01*
X119158Y29948D02*
X118825Y30281D01*
Y30948D01*
X119158Y31281D01*
X119492D01*
X119825Y30948D01*
Y30615D01*
Y30948D01*
X120158Y31281D01*
X120491D01*
X120824Y30948D01*
Y30281D01*
X120491Y29948D01*
X119158Y31947D02*
X118825Y32281D01*
Y32947D01*
X119158Y33280D01*
X120491D01*
X120824Y32947D01*
Y32281D01*
X120491Y31947D01*
X119158D01*
X104100Y2400D02*
X102101D01*
Y3400D01*
X102434Y3733D01*
X103100D01*
X103434Y3400D01*
Y2400D01*
Y3067D02*
X104100Y3733D01*
X102434Y4399D02*
X102101Y4733D01*
Y5399D01*
X102434Y5732D01*
X102767D01*
X103100Y5399D01*
Y5066D01*
Y5399D01*
X103434Y5732D01*
X103767D01*
X104100Y5399D01*
Y4733D01*
X103767Y4399D01*
X104100Y6399D02*
Y7065D01*
Y6732D01*
X102101D01*
X102434Y6399D01*
X97600Y50599D02*
Y48600D01*
X98933D01*
X99599D02*
X100266D01*
X99933D01*
Y50599D01*
X99599Y50266D01*
X70747Y81500D02*
X68748D01*
Y80500D01*
X69081Y80167D01*
X70414D01*
X70747Y80500D01*
Y81500D01*
X68748Y78168D02*
Y79501D01*
X70081Y78168D01*
X70414D01*
X70747Y78501D01*
Y79167D01*
X70414Y79501D01*
X242333Y24299D02*
X241666D01*
X242000D01*
Y22633D01*
X241666Y22300D01*
X241333D01*
X241000Y22633D01*
X244332Y24299D02*
X242999D01*
Y23300D01*
X243666Y23633D01*
X243999D01*
X244332Y23300D01*
Y22633D01*
X243999Y22300D01*
X243333D01*
X242999Y22633D01*
X5733Y61099D02*
X5066D01*
X5400D01*
Y59433D01*
X5066Y59100D01*
X4733D01*
X4400Y59433D01*
X7732Y59100D02*
X6399D01*
X7732Y60433D01*
Y60766D01*
X7399Y61099D01*
X6733D01*
X6399Y60766D01*
X242533Y123499D02*
X241866D01*
X242200D01*
Y121833D01*
X241866Y121500D01*
X241533D01*
X241200Y121833D01*
X244532Y123499D02*
X243866Y123166D01*
X243199Y122500D01*
Y121833D01*
X243533Y121500D01*
X244199D01*
X244532Y121833D01*
Y122167D01*
X244199Y122500D01*
X243199D01*
X236200Y145300D02*
X234201D01*
Y146300D01*
X234534Y146633D01*
X235200D01*
X235534Y146300D01*
Y145300D01*
Y145966D02*
X236200Y146633D01*
X234534Y147299D02*
X234201Y147633D01*
Y148299D01*
X234534Y148632D01*
X234867D01*
X235200Y148299D01*
Y147966D01*
Y148299D01*
X235534Y148632D01*
X235867D01*
X236200Y148299D01*
Y147633D01*
X235867Y147299D01*
X234201Y150632D02*
X234534Y149965D01*
X235200Y149299D01*
X235867D01*
X236200Y149632D01*
Y150298D01*
X235867Y150632D01*
X235534D01*
X235200Y150298D01*
Y149299D01*
X38934Y60133D02*
X38601Y59800D01*
Y59133D01*
X38934Y58800D01*
X40267D01*
X40600Y59133D01*
Y59800D01*
X40267Y60133D01*
X40600Y62132D02*
Y60799D01*
X39267Y62132D01*
X38934D01*
X38601Y61799D01*
Y61133D01*
X38934Y60799D01*
X38601Y64132D02*
Y62799D01*
X39600D01*
X39267Y63465D01*
Y63798D01*
X39600Y64132D01*
X40267D01*
X40600Y63798D01*
Y63132D01*
X40267Y62799D01*
X212667Y124234D02*
X213000Y123901D01*
X213667D01*
X214000Y124234D01*
Y125567D01*
X213667Y125900D01*
X213000D01*
X212667Y125567D01*
X210668Y125900D02*
X212001D01*
X210668Y124567D01*
Y124234D01*
X211001Y123901D01*
X211667D01*
X212001Y124234D01*
X208668Y123901D02*
X209335Y124234D01*
X210001Y124900D01*
Y125567D01*
X209668Y125900D01*
X209002D01*
X208668Y125567D01*
Y125233D01*
X209002Y124900D01*
X210001D01*
X99134Y70533D02*
X98801Y70200D01*
Y69533D01*
X99134Y69200D01*
X100467D01*
X100800Y69533D01*
Y70200D01*
X100467Y70533D01*
X100800Y72532D02*
Y71199D01*
X99467Y72532D01*
X99134D01*
X98801Y72199D01*
Y71533D01*
X99134Y71199D01*
X98801Y73199D02*
Y74532D01*
X99134D01*
X100467Y73199D01*
X100800D01*
X218522Y31878D02*
X218051D01*
X217579Y31407D01*
X217579Y30936D01*
X218522Y29993D01*
X218993D01*
X219464Y30464D01*
X219464Y30936D01*
X221114Y32114D02*
X220171Y31171D01*
Y33056D01*
X219936Y33292D01*
X219464D01*
X218993Y32821D01*
X218993Y32349D01*
X220407Y33763D02*
Y34234D01*
X220878Y34706D01*
X221349D01*
X221585Y34470D01*
Y33999D01*
X222056Y33999D01*
X222292Y33763D01*
X222292Y33292D01*
X221821Y32821D01*
X221349D01*
X221114Y33056D01*
Y33527D01*
X220642Y33527D01*
X220407Y33763D01*
X221114Y33527D02*
X221585Y33999D01*
X227464Y41321D02*
X226993D01*
X226522Y40849D01*
X226522Y40378D01*
X227464Y39436D01*
X227936D01*
X228407Y39907D01*
X228407Y40378D01*
X230056Y41556D02*
X229114Y40614D01*
Y42499D01*
X228878Y42734D01*
X228407D01*
X227936Y42263D01*
X227936Y41792D01*
X230292Y42263D02*
X230763D01*
X231234Y42734D01*
X231234Y43206D01*
X230292Y44148D01*
X229821D01*
X229349Y43677D01*
Y43206D01*
X229585Y42970D01*
X230056Y42970D01*
X230763Y43677D01*
X242401Y172300D02*
X244400D01*
Y173300D01*
X244067Y173633D01*
X242734D01*
X242401Y173300D01*
Y172300D01*
X242734Y174299D02*
X242401Y174633D01*
Y175299D01*
X242734Y175632D01*
X243067D01*
X243400Y175299D01*
Y174966D01*
Y175299D01*
X243734Y175632D01*
X244067D01*
X244400Y175299D01*
Y174633D01*
X244067Y174299D01*
X38901Y36233D02*
Y34900D01*
X39900D01*
Y35566D01*
Y34900D01*
X40900D01*
Y36899D02*
Y37566D01*
Y37233D01*
X38901D01*
X39234Y36899D01*
X84500Y149600D02*
X82501D01*
Y150600D01*
X82834Y150933D01*
X83500D01*
X83834Y150600D01*
Y149600D01*
Y150267D02*
X84500Y150933D01*
X82834Y151599D02*
X82501Y151933D01*
Y152599D01*
X82834Y152932D01*
X83167D01*
X83500Y152599D01*
Y152266D01*
Y152599D01*
X83834Y152932D01*
X84167D01*
X84500Y152599D01*
Y151933D01*
X84167Y151599D01*
X82501Y153599D02*
Y154932D01*
X82834D01*
X84167Y153599D01*
X84500D01*
X153986Y55314D02*
X156342Y54843D01*
X154929Y56256D02*
X155400Y53900D01*
Y56727D02*
X156342Y57670D01*
X155871Y57199D01*
X157285Y55785D01*
X158228Y56727D02*
X157285Y57670D01*
Y58613D01*
X158228D01*
X159170Y57670D01*
X158463Y58377D01*
X157521Y57434D01*
X158228Y59555D02*
X159641Y58141D01*
X160584Y59084D01*
X161055Y59555D02*
X161526Y60026D01*
X161291Y59791D01*
X159877Y61204D01*
X159877Y60733D01*
X212514Y52014D02*
X212042Y49657D01*
X213456Y51071D02*
X211100Y50600D01*
X213928D02*
X214870Y49657D01*
X214399Y50129D01*
X212985Y48715D01*
X213928Y47772D02*
X214870Y48715D01*
X215812D01*
Y47772D01*
X214870Y46830D01*
X215577Y47537D01*
X214634Y48479D01*
X216755Y47772D02*
X215341Y46359D01*
X216284Y45416D01*
X217698Y44003D02*
X216755Y44945D01*
X218640D01*
X218876Y45181D01*
Y45652D01*
X218404Y46123D01*
X217933Y46123D01*
M02*
