G04*
G04 #@! TF.GenerationSoftware,Altium Limited,Altium Designer,19.1.8 (144)*
G04*
G04 Layer_Color=32896*
%FSLAX25Y25*%
%MOIN*%
G70*
G01*
G75*
%ADD12C,0.00984*%
%ADD14C,0.00787*%
%ADD15C,0.00600*%
%ADD16C,0.01000*%
%ADD91C,0.00631*%
%ADD92C,0.00900*%
G36*
X335400Y99100D02*
D01*
D01*
D01*
D01*
D02*
G37*
D12*
X269692Y87414D02*
X268954Y87840D01*
Y86987D01*
X269692Y87414D01*
Y48480D02*
X268954Y48906D01*
Y48054D01*
X269692Y48480D01*
Y67947D02*
X268954Y68373D01*
Y67521D01*
X269692Y67947D01*
Y106880D02*
X268954Y107307D01*
Y106454D01*
X269692Y106880D01*
D14*
X261523Y74225D02*
X265708D01*
X261523Y85642D02*
X265708D01*
X261523Y74225D02*
Y76784D01*
Y83083D02*
Y85642D01*
Y35291D02*
X265708D01*
X261523Y46709D02*
X265708D01*
X261523Y35291D02*
Y37850D01*
Y44150D02*
Y46709D01*
Y54758D02*
X265708D01*
X261523Y66175D02*
X265708D01*
X261523Y54758D02*
Y57317D01*
Y63616D02*
Y66175D01*
Y93691D02*
X265708D01*
X261523Y105109D02*
X265708D01*
X261523Y93691D02*
Y96250D01*
Y102550D02*
Y105109D01*
X146850Y29685D02*
X148779D01*
X146850Y9685D02*
X148779D01*
X146850D02*
Y29685D01*
X246850Y9685D02*
Y29685D01*
X244921D02*
X246850D01*
X244921Y9685D02*
X246850D01*
X147663Y7480D02*
X145039D01*
X147663Y4857D01*
Y4200D01*
X147007Y3545D01*
X145695D01*
X145039Y4200D01*
X146614Y35433D02*
X147926D01*
X147270D01*
Y31497D01*
X146614Y32153D01*
X245905Y35433D02*
X247217D01*
X246562D01*
Y31497D01*
X245905Y32153D01*
X249185Y34777D02*
X249841Y35433D01*
X251153D01*
X251809Y34777D01*
Y32153D01*
X251153Y31497D01*
X249841D01*
X249185Y32153D01*
Y32809D01*
X249841Y33465D01*
X251809D01*
X248529Y7480D02*
X245905D01*
X248529Y4857D01*
Y4200D01*
X247873Y3545D01*
X246562D01*
X245905Y4200D01*
X249841D02*
X250497Y3545D01*
X251809D01*
X252465Y4200D01*
Y6824D01*
X251809Y7480D01*
X250497D01*
X249841Y6824D01*
Y4200D01*
D15*
X262276Y28644D02*
X271724D01*
X262276Y34156D02*
X271724D01*
X262276Y67711D02*
X271724D01*
X262276Y73223D02*
X271724D01*
X262276Y48177D02*
X271724D01*
X262276Y53689D02*
X271724D01*
X262276Y87244D02*
X271724D01*
X262276Y92756D02*
X271724D01*
X182311Y96808D02*
X188992Y103489D01*
X186208Y92911D02*
X192889Y99592D01*
X155776Y90944D02*
X165224D01*
X155776Y96456D02*
X165224D01*
X270900Y24100D02*
Y27299D01*
X269301D01*
X268767Y26766D01*
Y25699D01*
X269301Y25166D01*
X270900D01*
X269834D02*
X268767Y24100D01*
X267701Y26766D02*
X267168Y27299D01*
X266102D01*
X265568Y26766D01*
Y26233D01*
X266102Y25699D01*
X266635D01*
X266102D01*
X265568Y25166D01*
Y24633D01*
X266102Y24100D01*
X267168D01*
X267701Y24633D01*
X264502Y26766D02*
X263969Y27299D01*
X262903D01*
X262369Y26766D01*
Y26233D01*
X262903Y25699D01*
X263436D01*
X262903D01*
X262369Y25166D01*
Y24633D01*
X262903Y24100D01*
X263969D01*
X264502Y24633D01*
X250500Y46800D02*
Y49999D01*
X248901D01*
X248367Y49466D01*
Y48399D01*
X248901Y47866D01*
X250500D01*
X249434D02*
X248367Y46800D01*
X247301Y49466D02*
X246768Y49999D01*
X245702D01*
X245168Y49466D01*
Y48933D01*
X245702Y48399D01*
X246235D01*
X245702D01*
X245168Y47866D01*
Y47333D01*
X245702Y46800D01*
X246768D01*
X247301Y47333D01*
X241969Y46800D02*
X244102D01*
X241969Y48933D01*
Y49466D01*
X242503Y49999D01*
X243569D01*
X244102Y49466D01*
X249800Y66500D02*
Y69699D01*
X248200D01*
X247667Y69166D01*
Y68099D01*
X248200Y67566D01*
X249800D01*
X248734D02*
X247667Y66500D01*
X246601Y69166D02*
X246068Y69699D01*
X245002D01*
X244468Y69166D01*
Y68633D01*
X245002Y68099D01*
X245535D01*
X245002D01*
X244468Y67566D01*
Y67033D01*
X245002Y66500D01*
X246068D01*
X246601Y67033D01*
X241269Y69699D02*
X243402D01*
Y68099D01*
X242336Y68633D01*
X241803D01*
X241269Y68099D01*
Y67033D01*
X241803Y66500D01*
X242869D01*
X243402Y67033D01*
X249700Y87900D02*
Y91099D01*
X248100D01*
X247567Y90566D01*
Y89499D01*
X248100Y88966D01*
X249700D01*
X248634D02*
X247567Y87900D01*
X246501Y90566D02*
X245968Y91099D01*
X244901D01*
X244368Y90566D01*
Y90033D01*
X244901Y89499D01*
X245435D01*
X244901D01*
X244368Y88966D01*
Y88433D01*
X244901Y87900D01*
X245968D01*
X246501Y88433D01*
X241703Y87900D02*
Y91099D01*
X243302Y89499D01*
X241169D01*
X256600Y80299D02*
X254467D01*
X255534D01*
Y77100D01*
X251801D02*
Y80299D01*
X253401Y78699D01*
X251268D01*
X255400Y99699D02*
X253267D01*
X254334D01*
Y96500D01*
X252201Y99166D02*
X251668Y99699D01*
X250602D01*
X250068Y99166D01*
Y98633D01*
X250602Y98099D01*
X251135D01*
X250602D01*
X250068Y97566D01*
Y97033D01*
X250602Y96500D01*
X251668D01*
X252201Y97033D01*
X255600Y60599D02*
X253467D01*
X254534D01*
Y57400D01*
X252401D02*
X251335D01*
X251868D01*
Y60599D01*
X252401Y60066D01*
X256000Y42499D02*
X253867D01*
X254934D01*
Y39300D01*
X250668D02*
X252801D01*
X250668Y41433D01*
Y41966D01*
X251202Y42499D01*
X252268D01*
X252801Y41966D01*
D16*
X51100Y2300D02*
Y15300D01*
Y2300D02*
X57600D01*
X51100Y15300D02*
X57600D01*
X262298Y6934D02*
Y4934D01*
Y5934D01*
X257300D01*
X256300Y4934D01*
Y3935D01*
X257300Y2935D01*
X256300Y8933D02*
Y10932D01*
Y9933D01*
X262298D01*
X261299Y8933D01*
X192200Y106800D02*
Y112798D01*
X189201D01*
X188201Y111798D01*
Y109799D01*
X189201Y108799D01*
X192200D01*
X190201D02*
X188201Y106800D01*
X186202D02*
X184203D01*
X185202D01*
Y112798D01*
X186202Y111798D01*
X181204Y107800D02*
X180204Y106800D01*
X178205D01*
X177205Y107800D01*
Y111798D01*
X178205Y112798D01*
X180204D01*
X181204Y111798D01*
Y110799D01*
X180204Y109799D01*
X177205D01*
X164600Y99800D02*
Y105798D01*
X161601D01*
X160601Y104798D01*
Y102799D01*
X161601Y101799D01*
X164600D01*
X162601D02*
X160601Y99800D01*
X154603D02*
X158602D01*
X154603Y103799D01*
Y104798D01*
X155603Y105798D01*
X157602D01*
X158602Y104798D01*
X152604D02*
X151604Y105798D01*
X149605D01*
X148605Y104798D01*
Y100800D01*
X149605Y99800D01*
X151604D01*
X152604Y100800D01*
Y104798D01*
X41602Y10800D02*
X47600D01*
Y7801D01*
X46600Y6801D01*
X42602D01*
X41602Y7801D01*
Y10800D01*
X47600Y4802D02*
Y2803D01*
Y3802D01*
X41602D01*
X42602Y4802D01*
D91*
X85936Y146501D02*
X85289Y147317D01*
X84470Y147962D01*
X83526Y148401D01*
X82505Y148609D01*
X81464Y148577D01*
X80458Y148306D01*
X85936Y146501D02*
X85289Y147317D01*
X84470Y147962D01*
X83526Y148401D01*
X82505Y148609D01*
X81464Y148577D01*
X80458Y148306D01*
X78050Y142268D02*
X78601Y141367D01*
X79348Y140621D01*
X80248Y140069D01*
X79764Y147956D02*
X78948Y147308D01*
X78303Y146490D01*
X77864Y145545D01*
X77655Y144525D01*
X77688Y143484D01*
X77959Y142478D01*
X79764Y147956D02*
X78948Y147308D01*
X78303Y146490D01*
X77864Y145545D01*
X77655Y144525D01*
X77688Y143484D01*
X77959Y142478D01*
X78050Y142268D02*
X78601Y141367D01*
X79348Y140621D01*
X80248Y140069D01*
X70225Y147018D02*
X70375Y147140D01*
X70225Y147018D02*
X70375Y147140D01*
X91728Y156770D02*
X91713Y156761D01*
X91973Y156736D02*
X91728Y156770D01*
X79124Y155890D02*
X79247Y156040D01*
X91973Y156736D02*
X91728Y156770D01*
X79124Y155890D02*
X79247Y156040D01*
X91728Y156770D02*
X91713Y156761D01*
X91713Y131524D02*
X91961Y131537D01*
Y131537D02*
X91973Y131548D01*
X91713Y131524D02*
X91961Y131537D01*
Y131537D02*
X91973Y131548D01*
X70375Y141144D02*
X70225Y141267D01*
X70375Y141144D02*
X70225Y141267D01*
X97992Y142186D02*
X97993Y142202D01*
X97827Y142001D02*
X97992Y142186D01*
X97827Y142001D02*
X97992Y142186D01*
X97993Y142202D01*
X93870Y147140D02*
X94020Y147018D01*
X93870Y147140D02*
X94020Y147018D01*
X92549Y137956D02*
X92569Y137762D01*
X92549Y137956D02*
X92569Y137762D01*
X88502Y133696D02*
X88309Y133715D01*
X88502Y133696D02*
X88309Y133715D01*
X84264Y159847D02*
X84079Y160012D01*
X84079D02*
X84062Y160013D01*
X84079Y160012D02*
X84062Y160013D01*
X84264Y159847D02*
X84079Y160012D01*
X84482Y140329D02*
X85298Y140976D01*
X85942Y141794D01*
X86381Y142739D01*
X86590Y143760D01*
X86558Y144801D01*
X86286Y145807D01*
X86091Y146229D02*
X85936Y146501D01*
X84482Y140329D02*
X85298Y140976D01*
X85942Y141794D01*
X86381Y142739D01*
X86590Y143760D01*
X86558Y144801D01*
X86286Y145807D01*
X86091Y146229D02*
X85936Y146501D01*
X79985Y159863D02*
X79981Y159847D01*
X80183Y160013D02*
X79985Y159863D01*
X80183Y160013D02*
X79985Y159863D01*
Y159863D02*
X79981Y159847D01*
X75936Y133715D02*
X75743Y133696D01*
X75936Y133715D02*
X75743Y133696D01*
X77959Y142478D02*
X78050Y142268D01*
X77959Y142478D02*
X78050Y142268D01*
X71676Y137762D02*
X71696Y137956D01*
X71676Y137762D02*
X71696Y137956D01*
X66252Y142202D02*
X66402Y142005D01*
X66252Y142202D02*
X66402Y142005D01*
X97843Y146279D02*
X97827Y146283D01*
X97843Y146279D02*
X97827Y146283D01*
X97993Y146082D02*
X97843Y146279D01*
X97993Y146082D02*
X97843Y146279D01*
X94728Y153980D02*
X94717Y153993D01*
X94741Y153733D02*
X94728Y153980D01*
X94741Y153733D02*
X94728Y153980D01*
X94728Y153980D02*
X94717Y153993D01*
X92569Y150522D02*
X92549Y150329D01*
X92569Y150522D02*
X92549Y150329D01*
X94020Y141267D02*
X93870Y141144D01*
X94020Y141267D02*
X93870Y141144D01*
X94717Y134292D02*
X94750Y134537D01*
X94717Y134292D02*
X94750Y134537D01*
Y134537D02*
X94741Y134551D01*
X94750Y134537D02*
X94741Y134551D01*
X88309Y154569D02*
X88502Y154588D01*
X88309Y154569D02*
X88502Y154588D01*
X84998Y156040D02*
X85121Y155890D01*
X84998Y156040D02*
X85121Y155890D01*
X86286Y145807D02*
X86195Y146017D01*
X86091Y146229D01*
X86195Y146017D02*
X86091Y146229D01*
X86286Y145807D02*
X86195Y146017D01*
X83987Y140064D02*
X83884Y139833D01*
Y139833D02*
X83889Y139817D01*
X83997Y140069D02*
X84209Y140174D01*
X84209D02*
X84482Y140329D01*
X83889Y139817D02*
X83893Y139806D01*
X83987Y140064D02*
X83884Y139833D01*
X83997Y140069D02*
X84209Y140174D01*
X83997Y140069D02*
X83987Y140064D01*
X84209Y140174D02*
X84482Y140329D01*
X83997Y140069D02*
X83987Y140064D01*
X83884Y139833D02*
X83889Y139817D01*
X83889D02*
X83893Y139806D01*
X86814Y133100D02*
X86829Y133104D01*
X86586Y133211D02*
X86655Y133131D01*
X86829Y133104D02*
X86840Y133107D01*
X86582Y133221D02*
X86586Y133211D01*
X86840Y133107D02*
X86849Y133111D01*
X86582Y133221D02*
X86586Y133211D01*
X86655Y133131D02*
X86814Y133100D01*
X86814Y133100D02*
X86829Y133104D01*
X86586Y133211D02*
X86655Y133131D01*
Y133131D02*
X86814Y133100D01*
X86840Y133107D02*
X86849Y133111D01*
X86829Y133104D02*
X86840Y133107D01*
X80458Y148306D02*
X80248Y148215D01*
X80458Y148306D02*
X80248Y148215D01*
X80036Y148111D02*
X79764Y147956D01*
X80248Y148215D02*
X80036Y148111D01*
X80036Y148111D02*
X79764Y147956D01*
X80248Y148215D02*
X80036Y148111D01*
X80273Y140056D02*
X80259Y140064D01*
X80259Y140064D02*
X80248Y140069D01*
X80259Y140064D02*
X80248Y140069D01*
X80356Y139816D02*
X80273Y140056D01*
X80273Y140056D02*
X80259Y140064D01*
X80352Y139806D02*
X80356Y139816D01*
X80352Y139806D02*
X80356Y139816D01*
X80356Y139816D02*
X80273Y140056D01*
X75743Y154588D02*
X75936Y154569D01*
X75743Y154588D02*
X75936Y154569D01*
X77655Y133204D02*
X77660Y133214D01*
X77408Y133106D02*
X77513Y133099D01*
X77398Y133110D02*
X77408Y133106D01*
Y133106D02*
X77513Y133099D01*
X77655Y133204D02*
X77660Y133214D01*
X77398Y133110D02*
X77408Y133106D01*
X77660Y133214D02*
X77664Y133223D01*
X77513Y133099D02*
X77647Y133190D01*
X77513Y133099D02*
X77647Y133190D01*
X77655Y133204D01*
X77647Y133190D02*
X77655Y133204D01*
X77660Y133214D02*
X77664Y133223D01*
X72532Y156761D02*
X72284Y156747D01*
X72272Y156736D01*
X72284Y156747D02*
X72272Y156736D01*
X72532Y156761D02*
X72284Y156747D01*
X71696Y150329D02*
X71676Y150522D01*
X71696Y150329D02*
X71676Y150522D01*
X72272Y131548D02*
X72518Y131515D01*
X72272Y131548D02*
X72518Y131515D01*
X72518D02*
X72532Y131524D01*
X72518Y131515D02*
X72532Y131524D01*
X69495Y153747D02*
X69504Y153733D01*
X69529Y153993D02*
X69495Y153747D01*
X69529Y153993D02*
X69495Y153747D01*
X69504Y153733D01*
X66418Y146283D02*
X66253Y146099D01*
X66418Y146283D02*
X66253Y146099D01*
Y146099D02*
X66252Y146082D01*
X66253Y146099D02*
X66252Y146082D01*
X66402Y142005D02*
X66418Y142001D01*
X66402Y142005D02*
X66418Y142001D01*
X69517Y134304D02*
X69529Y134292D01*
X69517Y134304D02*
X69529Y134292D01*
X69504Y134551D02*
X69517Y134304D01*
X69504Y134551D02*
X69517Y134304D01*
X91973Y131548D02*
X94717Y134292D01*
X91973Y131548D02*
X94717Y134292D01*
X75936Y154569D02*
X79124Y155890D01*
X91973Y156736D02*
X94717Y153993D01*
X91973Y156736D02*
X94717Y153993D01*
X75936Y154569D02*
X79124Y155890D01*
X94020Y147018D02*
X97827Y146283D01*
X94020Y147018D02*
X97827Y146283D01*
X94020Y141267D02*
X97827Y142001D01*
X94020Y141267D02*
X97827Y142001D01*
X88503Y133696D02*
X91713Y131524D01*
X88503Y133696D02*
X91713Y131524D01*
X72532D02*
X75743Y133696D01*
X69529Y134292D02*
X72272Y131548D01*
X72532Y131524D02*
X75743Y133696D01*
X69529Y134292D02*
X72272Y131548D01*
X88503Y154588D02*
X91713Y156761D01*
X80183Y160013D02*
X84062D01*
X80183D02*
X84062D01*
X79247Y156040D02*
X79982Y159847D01*
X85121Y155890D02*
X88309Y154569D01*
X85121Y155890D02*
X88309Y154569D01*
X79247Y156040D02*
X79982Y159847D01*
X88503Y154588D02*
X91713Y156761D01*
X86849Y133111D02*
X88309Y133715D01*
X86849Y133111D02*
X88309Y133715D01*
X77664Y133223D02*
X80352Y139806D01*
X77664Y133223D02*
X80352Y139806D01*
X72532Y156761D02*
X75743Y154588D01*
X69529Y153993D02*
X72272Y156736D01*
X69529Y153993D02*
X72272Y156736D01*
X72532Y156761D02*
X75743Y154588D01*
X69504Y153733D02*
X71676Y150522D01*
X69504Y153733D02*
X71676Y150522D01*
X66418Y146283D02*
X70225Y147018D01*
X66418Y146283D02*
X70225Y147018D01*
X70375Y141144D02*
X71696Y137956D01*
X70375Y141144D02*
X71696Y137956D01*
X69504Y134551D02*
X71676Y137762D01*
X69504Y134551D02*
X71676Y137762D01*
X70375Y147140D02*
X71696Y150329D01*
X70375Y147140D02*
X71696Y150329D01*
X66418Y142001D02*
X70225Y141267D01*
X66418Y142001D02*
X70225Y141267D01*
X97993Y142202D02*
Y146082D01*
Y142202D02*
Y146082D01*
X92569Y150522D02*
X94741Y153733D01*
X92569Y150522D02*
X94741Y153733D01*
X92549Y137956D02*
X93870Y141144D01*
X92549Y137956D02*
X93870Y141144D01*
X92569Y137762D02*
X94741Y134551D01*
X92569Y137762D02*
X94741Y134551D01*
X84264Y159847D02*
X84998Y156040D01*
X84264Y159847D02*
X84998Y156040D01*
X83893Y139806D02*
X86581Y133223D01*
X83893Y139806D02*
X86581Y133223D01*
X75936Y133715D02*
X77396Y133111D01*
X75936Y133715D02*
X77396Y133111D01*
X66252Y142202D02*
Y146082D01*
Y142202D02*
Y146082D01*
X92549Y150329D02*
X93870Y147140D01*
X92549Y150329D02*
X93870Y147140D01*
X86581Y133223D02*
X86582Y133221D01*
X86581Y133223D02*
X86582Y133221D01*
X77396Y133111D02*
X77398Y133110D01*
X77396Y133111D02*
X77398Y133110D01*
D92*
X183834Y175632D02*
X184501Y176299D01*
X185834D01*
X186500Y175632D01*
Y174966D01*
X185834Y174299D01*
X184501D01*
X183834Y173633D01*
Y172967D01*
X184501Y172300D01*
X185834D01*
X186500Y172967D01*
X182501Y176299D02*
X179835D01*
X181168D01*
Y172300D01*
X178503D02*
Y176299D01*
X177170Y174966D01*
X175837Y176299D01*
Y172300D01*
X174504Y175632D02*
X173837Y176299D01*
X172504D01*
X171838Y175632D01*
Y174966D01*
X172504Y174299D01*
X173171D01*
X172504D01*
X171838Y173633D01*
Y172967D01*
X172504Y172300D01*
X173837D01*
X174504Y172967D01*
X167839Y172300D02*
X170505D01*
X167839Y174966D01*
Y175632D01*
X168506Y176299D01*
X169839D01*
X170505Y175632D01*
X166506Y171634D02*
X163841D01*
X162508Y176299D02*
Y172300D01*
X161175Y173633D01*
X159842Y172300D01*
Y176299D01*
X155843D02*
X158509D01*
Y174299D01*
X157176Y174966D01*
X156510D01*
X155843Y174299D01*
Y172967D01*
X156510Y172300D01*
X157843D01*
X158509Y172967D01*
X151845Y176299D02*
X154510D01*
Y174299D01*
X153177Y174966D01*
X152511D01*
X151845Y174299D01*
Y172967D01*
X152511Y172300D01*
X153844D01*
X154510Y172967D01*
X150512Y175632D02*
X149845Y176299D01*
X148512D01*
X147846Y175632D01*
Y172967D01*
X148512Y172300D01*
X149845D01*
X150512Y172967D01*
Y175632D01*
X146513D02*
X145846Y176299D01*
X144514D01*
X143847Y175632D01*
Y172967D01*
X144514Y172300D01*
X145846D01*
X146513Y172967D01*
Y175632D01*
X142514Y171634D02*
X139848D01*
X138515Y176299D02*
Y172300D01*
X136516D01*
X135850Y172967D01*
Y175632D01*
X136516Y176299D01*
X138515D01*
X132517Y172300D02*
X133850D01*
X134517Y172967D01*
Y174299D01*
X133850Y174966D01*
X132517D01*
X131851Y174299D01*
Y173633D01*
X134517D01*
X130518Y174966D02*
X129185Y172300D01*
X127852Y174966D01*
X122521Y176299D02*
Y173633D01*
X121188Y172300D01*
X119855Y173633D01*
Y176299D01*
X118522Y172300D02*
X117189D01*
X117856D01*
Y176299D01*
X118522Y175632D01*
X115190Y172300D02*
Y172967D01*
X114523D01*
Y172300D01*
X115190D01*
X111857Y175632D02*
X111191Y176299D01*
X109858D01*
X109192Y175632D01*
Y172967D01*
X109858Y172300D01*
X111191D01*
X111857Y172967D01*
Y175632D01*
X183734Y169599D02*
Y165600D01*
X185733D01*
X186400Y166267D01*
Y167599D01*
X185733Y168266D01*
X183734D01*
X180402Y165600D02*
X181735D01*
X182401Y166267D01*
Y167599D01*
X181735Y168266D01*
X180402D01*
X179736Y167599D01*
Y166933D01*
X182401D01*
X178403Y165600D02*
X176403D01*
X175737Y166267D01*
X176403Y166933D01*
X177736D01*
X178403Y167599D01*
X177736Y168266D01*
X175737D01*
X174404Y165600D02*
X173071D01*
X173737D01*
Y168266D01*
X174404D01*
X169739Y164267D02*
X169072D01*
X168406Y164934D01*
Y168266D01*
X170405D01*
X171072Y167599D01*
Y166267D01*
X170405Y165600D01*
X168406D01*
X167073D02*
Y168266D01*
X165074D01*
X164407Y167599D01*
Y165600D01*
X161075D02*
X162408D01*
X163074Y166267D01*
Y167599D01*
X162408Y168266D01*
X161075D01*
X160408Y167599D01*
Y166933D01*
X163074D01*
X156410Y169599D02*
Y165600D01*
X158409D01*
X159075Y166267D01*
Y167599D01*
X158409Y168266D01*
X156410D01*
X151078Y169599D02*
Y165600D01*
X149079D01*
X148412Y166267D01*
Y166933D01*
Y167599D01*
X149079Y168266D01*
X151078D01*
X147079D02*
Y166267D01*
X146413Y165600D01*
X144414D01*
Y164934D01*
X145080Y164267D01*
X145747D01*
X144414Y165600D02*
Y168266D01*
X139082Y169599D02*
Y166933D01*
X137749Y165600D01*
X136416Y166933D01*
Y169599D01*
X134417Y168266D02*
X133084D01*
X132417Y167599D01*
Y165600D01*
X134417D01*
X135083Y166267D01*
X134417Y166933D01*
X132417D01*
X131085Y165600D02*
X129752D01*
X130418D01*
Y169599D01*
X131085D01*
X125753Y165600D02*
X127086D01*
X127752Y166267D01*
Y167599D01*
X127086Y168266D01*
X125753D01*
X125086Y167599D01*
Y166933D01*
X127752D01*
X123753Y165600D02*
Y168266D01*
X121754D01*
X121088Y167599D01*
Y165600D01*
X119088Y168932D02*
Y168266D01*
X119755D01*
X118422D01*
X119088D01*
Y166267D01*
X118422Y165600D01*
X116423D02*
X115090D01*
X115756D01*
Y168266D01*
X116423D01*
X113090Y165600D02*
Y168266D01*
X111091D01*
X110424Y167599D01*
Y165600D01*
X102427Y169599D02*
X105093D01*
Y167599D01*
X103760D01*
X105093D01*
Y165600D01*
X101094D02*
X99761D01*
X100428D01*
Y168266D01*
X101094D01*
X97762Y165600D02*
X95763D01*
X95096Y166267D01*
X95763Y166933D01*
X97096D01*
X97762Y167599D01*
X97096Y168266D01*
X95096D01*
X91097D02*
X93097D01*
X93763Y167599D01*
Y166267D01*
X93097Y165600D01*
X91097D01*
X89764Y169599D02*
Y165600D01*
Y167599D01*
X89098Y168266D01*
X87765D01*
X87099Y167599D01*
Y165600D01*
X83766D02*
X85099D01*
X85766Y166267D01*
Y167599D01*
X85099Y168266D01*
X83766D01*
X83100Y167599D01*
Y166933D01*
X85766D01*
X81767Y168266D02*
Y165600D01*
Y166933D01*
X81101Y167599D01*
X80434Y168266D01*
X79768D01*
X183934Y158900D02*
X186600D01*
X183934Y161566D01*
Y162232D01*
X184601Y162899D01*
X185933D01*
X186600Y162232D01*
X182601D02*
X181935Y162899D01*
X180602D01*
X179936Y162232D01*
Y159566D01*
X180602Y158900D01*
X181935D01*
X182601Y159566D01*
Y162232D01*
X178603Y158900D02*
X177270D01*
X177936D01*
Y162899D01*
X178603Y162232D01*
X175270Y159566D02*
X174604Y158900D01*
X173271D01*
X172605Y159566D01*
Y162232D01*
X173271Y162899D01*
X174604D01*
X175270Y162232D01*
Y161566D01*
X174604Y160899D01*
X172605D01*
M02*
