G04*
G04 #@! TF.GenerationSoftware,Altium Limited,Altium Designer,19.1.8 (144)*
G04*
G04 Layer_Color=32768*
%FSLAX25Y25*%
%MOIN*%
G70*
G01*
G75*
%ADD17C,0.00394*%
%ADD93C,0.00197*%
D17*
X264476Y77965D02*
Y81902D01*
X262507Y79933D02*
X266444D01*
X264476Y39031D02*
Y42968D01*
X262507Y41000D02*
X266444D01*
X264476Y58498D02*
Y62435D01*
X262507Y60467D02*
X266444D01*
X264476Y97431D02*
Y101368D01*
X262507Y99400D02*
X266444D01*
X199114Y109764D02*
Y130236D01*
X225886Y109764D02*
Y130236D01*
X199114D02*
X225886D01*
X199114Y109764D02*
X225886D01*
X210531Y120000D02*
X214469D01*
X212500Y118032D02*
Y121968D01*
X112941Y14504D02*
X118059D01*
X112941Y2496D02*
X118059D01*
Y14504D01*
X112941Y2496D02*
Y14504D01*
X115500Y6728D02*
Y10272D01*
X113728Y8500D02*
X117272D01*
X118941Y14504D02*
X124059D01*
X118941Y2496D02*
X124059D01*
Y14504D01*
X118941Y2496D02*
Y14504D01*
X121500Y6728D02*
Y10272D01*
X119728Y8500D02*
X123272D01*
X196850Y17717D02*
Y21654D01*
X194882Y19685D02*
X198819D01*
X146063Y2165D02*
X247638D01*
Y37205D01*
X146063D02*
X247638D01*
X146063Y2165D02*
Y37205D01*
D93*
X257389Y73831D02*
Y86036D01*
Y73831D02*
X271562D01*
Y86036D01*
X257389D02*
X271562D01*
X257389Y34898D02*
Y47102D01*
Y34898D02*
X271562D01*
Y47102D01*
X257389D02*
X271562D01*
X257389Y54364D02*
Y66569D01*
Y54364D02*
X271562D01*
Y66569D01*
X257389D02*
X271562D01*
X257389Y93298D02*
Y105502D01*
Y93298D02*
X271562D01*
Y105502D01*
X257389D02*
X271562D01*
X238874Y17323D02*
Y60630D01*
X273126D01*
Y17323D02*
Y60630D01*
X238874Y17323D02*
X273126D01*
X256000Y38189D02*
Y42126D01*
X254031Y40157D02*
X257968D01*
X254031Y139500D02*
X257968D01*
X256000Y137531D02*
Y141469D01*
X238874Y116665D02*
X273126D01*
Y159972D01*
X238874D02*
X273126D01*
X238874Y116665D02*
Y159972D01*
Y57138D02*
Y120130D01*
X273126D01*
Y57138D02*
Y120130D01*
X238874Y57138D02*
X273126D01*
X256000Y87846D02*
Y91783D01*
X254031Y89815D02*
X257968D01*
X98032Y49500D02*
X101969D01*
X100000Y47532D02*
Y51468D01*
X84449Y32965D02*
X115551D01*
X84449D02*
Y66035D01*
X115551D01*
Y32965D02*
Y66035D01*
X36626Y24028D02*
Y67335D01*
X2374Y24028D02*
X36626D01*
X2374D02*
Y67335D01*
X36626D01*
X19500Y42531D02*
Y46468D01*
X17531Y44500D02*
X21468D01*
M02*
