G04*
G04 #@! TF.GenerationSoftware,Altium Limited,Altium Designer,19.1.8 (144)*
G04*
G04 Layer_Physical_Order=2*
G04 Layer_Color=16711680*
%FSLAX25Y25*%
%MOIN*%
G70*
G01*
G75*
%ADD15C,0.00600*%
%ADD16C,0.01000*%
%ADD18C,0.00800*%
%ADD54R,0.03347X0.03347*%
%ADD57P,0.04733X4X90.0*%
%ADD65R,0.09843X0.06693*%
%ADD72C,0.02000*%
%ADD73C,0.05000*%
%ADD74C,0.06000*%
%ADD75C,0.07677*%
%ADD76R,0.07677X0.07677*%
%ADD77O,0.05000X0.10000*%
%ADD78C,0.08000*%
%ADD79C,0.07874*%
%ADD80C,0.13386*%
%ADD81C,0.03400*%
%ADD82O,0.03937X0.08268*%
%ADD83O,0.03937X0.06299*%
%ADD84C,0.02362*%
%ADD85C,0.03937*%
%ADD86C,0.03150*%
%ADD87R,0.03937X0.03150*%
%ADD88R,0.03937X0.12205*%
G36*
X275590Y663D02*
X275129Y471D01*
X275000Y600D01*
X274400Y0D01*
X197962D01*
X197811Y500D01*
X197984Y616D01*
X198378Y1205D01*
X198516Y1900D01*
X198378Y2595D01*
X197984Y3184D01*
X197720Y3361D01*
Y5393D01*
X198820Y6493D01*
X199282Y6302D01*
Y2353D01*
X204419D01*
Y7729D01*
X204633Y7803D01*
X205130Y7471D01*
X205222Y7005D01*
X205616Y6416D01*
X205982Y6171D01*
Y4296D01*
X205516Y3984D01*
X205122Y3395D01*
X204984Y2700D01*
X205122Y2005D01*
X205516Y1416D01*
X206105Y1022D01*
X206800Y884D01*
X207495Y1022D01*
X208084Y1416D01*
X208478Y2005D01*
X208616Y2700D01*
X208478Y3395D01*
X208084Y3984D01*
X207818Y4162D01*
Y6171D01*
X208184Y6416D01*
X208578Y7005D01*
X208716Y7700D01*
X208578Y8395D01*
X208184Y8984D01*
X207614Y9365D01*
X207547Y9423D01*
X207439Y9897D01*
X207821Y10279D01*
X208042Y10610D01*
X208120Y11000D01*
Y14339D01*
X208384Y14516D01*
X208778Y15105D01*
X208782Y15126D01*
X209282Y15077D01*
Y2353D01*
X214419D01*
Y10182D01*
X217721Y13484D01*
X217942Y13814D01*
X218020Y14205D01*
Y27439D01*
X218284Y27616D01*
X218678Y28205D01*
X218756Y28597D01*
X218782Y28729D01*
X219282Y28679D01*
Y23613D01*
X224419D01*
Y26079D01*
X224919Y26347D01*
X225105Y26222D01*
X225800Y26084D01*
X226495Y26222D01*
X227084Y26616D01*
X227582Y26462D01*
Y25080D01*
X221201Y18699D01*
X221003Y18402D01*
X220933Y18050D01*
Y15757D01*
X219282D01*
Y2353D01*
X224419D01*
Y15757D01*
X222768D01*
Y17670D01*
X228782Y23684D01*
X229282Y23613D01*
Y23613D01*
X229282Y23613D01*
X230882D01*
Y19829D01*
X230516Y19584D01*
X230122Y18995D01*
X229984Y18300D01*
X230122Y17605D01*
X230516Y17016D01*
X231105Y16622D01*
X231800Y16484D01*
X232495Y16622D01*
X233084Y17016D01*
X233478Y17605D01*
X233616Y18300D01*
X233478Y18995D01*
X233084Y19584D01*
X232718Y19829D01*
Y23613D01*
X234419D01*
Y36605D01*
X234419Y36776D01*
X234919Y36983D01*
X236382Y35520D01*
Y20829D01*
X236016Y20584D01*
X235622Y19995D01*
X235484Y19300D01*
X235622Y18605D01*
X236016Y18016D01*
X236605Y17622D01*
X237300Y17484D01*
X237995Y17622D01*
X238584Y18016D01*
X238978Y18605D01*
X239116Y19300D01*
X238978Y19995D01*
X238584Y20584D01*
X238218Y20829D01*
Y35900D01*
X238148Y36251D01*
X237949Y36549D01*
X233549Y40949D01*
X233251Y41148D01*
X232900Y41218D01*
X232129D01*
X231884Y41584D01*
X231740Y41680D01*
X231892Y42180D01*
X240978D01*
X246280Y36878D01*
Y28100D01*
X246358Y27710D01*
X246579Y27379D01*
X249779Y24179D01*
X250110Y23958D01*
X250500Y23880D01*
X263551D01*
X263941Y23958D01*
X264272Y24179D01*
X269220Y29127D01*
X272324D01*
Y33673D01*
X271071D01*
Y35085D01*
X271768D01*
Y39435D01*
X266632D01*
Y35085D01*
X269032D01*
Y33673D01*
X267778D01*
Y30569D01*
X267084Y29875D01*
X266622Y30066D01*
Y30900D01*
X264449D01*
Y28727D01*
X265283D01*
X265474Y28265D01*
X263129Y25920D01*
X260439D01*
Y34754D01*
X259127D01*
Y37005D01*
X260032Y37910D01*
X260560Y37980D01*
X261315Y38292D01*
X261962Y38789D01*
X261990Y38825D01*
X262320D01*
Y39255D01*
X262459Y39437D01*
X262771Y40191D01*
X262878Y41000D01*
X262771Y41809D01*
X262459Y42563D01*
X262320Y42745D01*
Y43175D01*
X262694Y43478D01*
X263718D01*
X263718Y43478D01*
X264147Y43564D01*
X264511Y43807D01*
X265770Y45066D01*
X266231Y44874D01*
Y42165D01*
X268700D01*
Y44740D01*
Y47315D01*
X268672D01*
X268481Y47777D01*
X269364Y48660D01*
X272324D01*
Y53207D01*
X271173D01*
Y54552D01*
X271768D01*
Y58901D01*
X266632D01*
Y54552D01*
X268930D01*
Y53207D01*
X267778D01*
Y50246D01*
X267084Y49552D01*
X266622Y49744D01*
Y50433D01*
X264449D01*
Y48260D01*
X265139D01*
X265330Y47798D01*
X263253Y45722D01*
X258525D01*
X258367Y46222D01*
X259166Y46834D01*
X259877Y47762D01*
X260324Y48841D01*
X260477Y50000D01*
X260324Y51159D01*
X259877Y52238D01*
X259166Y53166D01*
X259127Y53196D01*
Y55420D01*
X261962Y58256D01*
X261990Y58292D01*
X262320D01*
Y58722D01*
X262459Y58903D01*
X262771Y59657D01*
X262878Y60467D01*
X262771Y61276D01*
X262459Y62030D01*
X262320Y62212D01*
Y62642D01*
X262312D01*
X262209Y62778D01*
X262458Y63278D01*
X263984D01*
X263984Y63278D01*
X264414Y63364D01*
X264778Y63607D01*
X265770Y64599D01*
X266231Y64408D01*
Y61632D01*
X268700D01*
Y64207D01*
Y66782D01*
X268605D01*
X268414Y67244D01*
X269364Y68193D01*
X272324D01*
Y72740D01*
X271173D01*
Y74018D01*
X271768D01*
Y78368D01*
X266632D01*
Y74018D01*
X268930D01*
Y72740D01*
X267778D01*
Y69779D01*
X267084Y69086D01*
X266622Y69277D01*
Y69967D01*
X264449D01*
Y67793D01*
X265139D01*
X265330Y67331D01*
X263520Y65522D01*
X260868D01*
X260439Y65691D01*
Y74569D01*
X260243D01*
Y76003D01*
X261962Y77722D01*
X261990Y77759D01*
X262320D01*
Y78188D01*
X262459Y78370D01*
X262771Y79124D01*
X262878Y79933D01*
X262771Y80743D01*
X262459Y81497D01*
X262320Y81678D01*
Y82108D01*
X261990D01*
X261962Y82144D01*
X261524Y82480D01*
X261694Y82980D01*
X264051D01*
X264441Y83058D01*
X264772Y83279D01*
X265770Y84276D01*
X266018Y84174D01*
X268700D01*
Y86248D01*
X268395D01*
X268203Y86710D01*
X269220Y87727D01*
X272324D01*
Y92273D01*
X271071D01*
Y93485D01*
X271768D01*
Y97835D01*
X266632D01*
Y93485D01*
X269032D01*
Y92273D01*
X267778D01*
Y89169D01*
X267084Y88475D01*
X266622Y88666D01*
Y89500D01*
X264449D01*
Y87327D01*
X265283D01*
X265474Y86865D01*
X263629Y85020D01*
X257267D01*
X257159Y85491D01*
X258238Y85938D01*
X259166Y86649D01*
X259877Y87577D01*
X260324Y88656D01*
X260477Y89815D01*
X260324Y90974D01*
X259877Y92053D01*
X259227Y92900D01*
Y94454D01*
X261962Y97189D01*
X261990Y97225D01*
X262320D01*
Y97655D01*
X262459Y97837D01*
X262771Y98591D01*
X262878Y99400D01*
X262771Y100209D01*
X262459Y100963D01*
X262320Y101145D01*
Y101575D01*
X261990D01*
X261962Y101611D01*
X261315Y102108D01*
X260560Y102420D01*
X259751Y102527D01*
X258942Y102420D01*
X258188Y102108D01*
X257540Y101611D01*
X257504Y101575D01*
X257183D01*
Y101253D01*
X253890Y97960D01*
X253393Y97313D01*
X253081Y96559D01*
X253027Y96154D01*
X252974Y95749D01*
X252974Y95749D01*
Y93088D01*
X252834Y92981D01*
X252123Y92053D01*
X251676Y90974D01*
X251523Y89815D01*
X251676Y88656D01*
X252123Y87577D01*
X252834Y86649D01*
X253762Y85938D01*
X254841Y85491D01*
X254940Y85478D01*
X254957Y84971D01*
X254810Y84942D01*
X254479Y84721D01*
X235395Y65636D01*
X234885Y65834D01*
X234755Y66488D01*
X234273Y67210D01*
X233551Y67692D01*
X233200Y67762D01*
Y65637D01*
X232700D01*
Y65137D01*
X230576D01*
X230645Y64786D01*
X231128Y64065D01*
X231849Y63583D01*
X232504Y63453D01*
X232701Y62943D01*
X214897Y45138D01*
X203203D01*
X202892Y45638D01*
X202924Y45800D01*
X200800D01*
Y46800D01*
X202924D01*
X202854Y47151D01*
X202373Y47872D01*
X201651Y48355D01*
X201028Y48479D01*
X200846Y49004D01*
X213500Y61658D01*
X214279Y60879D01*
X214610Y60658D01*
X215000Y60580D01*
X221332D01*
X221508Y60316D01*
X222097Y59922D01*
X222793Y59784D01*
X223487Y59922D01*
X224077Y60316D01*
X224470Y60905D01*
X224608Y61600D01*
X224470Y62295D01*
X224077Y62884D01*
X223487Y63278D01*
X222793Y63416D01*
X222097Y63278D01*
X221508Y62884D01*
X221332Y62620D01*
X215422D01*
X214221Y63821D01*
X213890Y64042D01*
X213500Y64120D01*
X213110Y64042D01*
X212779Y63821D01*
X197112Y48154D01*
X196800Y48216D01*
X196105Y48078D01*
X195516Y47684D01*
X195339Y47420D01*
X191922D01*
X179520Y59822D01*
Y80000D01*
X179442Y80390D01*
X179221Y80721D01*
X178524Y81419D01*
X178715Y81880D01*
X183600D01*
X183990Y81958D01*
X184321Y82179D01*
X206288Y104146D01*
X206600Y104084D01*
X207295Y104222D01*
X207884Y104616D01*
X208061Y104880D01*
X217750D01*
X218141Y104958D01*
X218471Y105179D01*
X218563Y105271D01*
X219000Y105184D01*
X219695Y105322D01*
X220284Y105716D01*
X220678Y106305D01*
X220816Y107000D01*
X220678Y107695D01*
X220631Y107764D01*
Y115300D01*
X220507Y115924D01*
X220153Y116454D01*
X217431Y119176D01*
Y136336D01*
X217478Y136405D01*
X217616Y137100D01*
X217478Y137795D01*
X217084Y138384D01*
X216495Y138778D01*
X215800Y138916D01*
X215105Y138778D01*
X214516Y138384D01*
X214122Y137795D01*
X213984Y137100D01*
X214122Y136405D01*
X214169Y136336D01*
Y118500D01*
X214293Y117876D01*
X214647Y117347D01*
X217369Y114624D01*
Y107764D01*
X217322Y107695D01*
X217184Y107000D01*
X217118Y106920D01*
X208061D01*
X207884Y107184D01*
X207295Y107578D01*
X206600Y107716D01*
X205905Y107578D01*
X205316Y107184D01*
X204922Y106595D01*
X204784Y105900D01*
X204846Y105588D01*
X183178Y83920D01*
X177061D01*
X176884Y84184D01*
X176295Y84578D01*
X175600Y84716D01*
X174905Y84578D01*
X174316Y84184D01*
X173922Y83595D01*
X173784Y82900D01*
X173922Y82205D01*
X174316Y81616D01*
X174905Y81222D01*
X175600Y81084D01*
X175912Y81146D01*
X177480Y79578D01*
Y59722D01*
X174312Y56554D01*
X174000Y56616D01*
X173305Y56478D01*
X172716Y56084D01*
X172322Y55495D01*
X172184Y54800D01*
X172322Y54105D01*
X172716Y53516D01*
X173305Y53122D01*
X174000Y52984D01*
X174695Y53122D01*
X175284Y53516D01*
X175678Y54105D01*
X175816Y54800D01*
X175754Y55112D01*
X178550Y57908D01*
X187039Y49420D01*
X186831Y48920D01*
X183961D01*
X183784Y49184D01*
X183195Y49578D01*
X182500Y49716D01*
X181805Y49578D01*
X181216Y49184D01*
X180822Y48595D01*
X180684Y47900D01*
X180822Y47205D01*
X181216Y46616D01*
X181805Y46222D01*
X182500Y46084D01*
X183195Y46222D01*
X183784Y46616D01*
X183961Y46880D01*
X186778D01*
X189777Y43881D01*
X189585Y43420D01*
X180382D01*
X180316Y43500D01*
X180178Y44195D01*
X179784Y44784D01*
X179195Y45178D01*
X178500Y45316D01*
X177805Y45178D01*
X177216Y44784D01*
X176822Y44195D01*
X176684Y43500D01*
X176822Y42805D01*
X176917Y42664D01*
X176556Y42303D01*
X176295Y42478D01*
X175600Y42616D01*
X174905Y42478D01*
X174420Y42153D01*
X174052Y42278D01*
X173920Y42375D01*
Y46639D01*
X174184Y46816D01*
X174578Y47405D01*
X174716Y48100D01*
X174578Y48795D01*
X174184Y49384D01*
X173595Y49778D01*
X172900Y49916D01*
X172205Y49778D01*
X171616Y49384D01*
X171222Y48795D01*
X171084Y48100D01*
X171222Y47405D01*
X171616Y46816D01*
X171880Y46639D01*
Y39400D01*
X171958Y39010D01*
X172179Y38679D01*
X172979Y37879D01*
X173310Y37658D01*
X173700Y37580D01*
X217600D01*
X217990Y37658D01*
X218321Y37879D01*
X222622Y42180D01*
X229308D01*
X229460Y41680D01*
X229316Y41584D01*
X228922Y40995D01*
X228784Y40300D01*
X228922Y39605D01*
X229316Y39016D01*
X229905Y38622D01*
X230600Y38484D01*
X231295Y38622D01*
X231884Y39016D01*
X232062Y39282D01*
X232587Y39316D01*
X234385Y37517D01*
X234178Y37017D01*
X234019Y37017D01*
X229282D01*
Y34585D01*
X228782Y34361D01*
X228567Y34554D01*
X228616Y34800D01*
X228478Y35495D01*
X228084Y36084D01*
X227495Y36478D01*
X226800Y36616D01*
X226105Y36478D01*
X225516Y36084D01*
X225122Y35495D01*
X224984Y34800D01*
X225122Y34105D01*
X225516Y33516D01*
X226105Y33122D01*
X226800Y32984D01*
X227232Y33070D01*
X227582Y32720D01*
Y29338D01*
X227084Y29184D01*
X226495Y29578D01*
X225800Y29716D01*
X225105Y29578D01*
X224919Y29453D01*
X224419Y29721D01*
Y36380D01*
X225251Y36545D01*
X225973Y37027D01*
X226455Y37749D01*
X226524Y38100D01*
X222276D01*
X222345Y37749D01*
X222500Y37517D01*
X222233Y37017D01*
X219282D01*
Y29121D01*
X218782Y29072D01*
X218756Y29203D01*
X218678Y29595D01*
X218284Y30184D01*
X217695Y30578D01*
X217000Y30716D01*
X216305Y30578D01*
X215716Y30184D01*
X215322Y29595D01*
X215184Y28900D01*
X215322Y28205D01*
X215716Y27616D01*
X215980Y27439D01*
Y14627D01*
X214881Y13528D01*
X214419Y13719D01*
Y15757D01*
X209395D01*
X209261Y15769D01*
X208878Y15990D01*
X208778Y16495D01*
X208384Y17084D01*
X207795Y17478D01*
X207100Y17616D01*
X206405Y17478D01*
X205816Y17084D01*
X205422Y16495D01*
X205284Y15800D01*
X205422Y15105D01*
X205816Y14516D01*
X206080Y14339D01*
Y11422D01*
X204919Y10261D01*
X204419Y10468D01*
Y15757D01*
X203398D01*
X203260Y16054D01*
X203212Y16258D01*
X203578Y16805D01*
X203716Y17500D01*
X203578Y18195D01*
X203184Y18784D01*
X202870Y18994D01*
Y23613D01*
X204419D01*
Y26609D01*
X204919Y26760D01*
X205216Y26316D01*
X205805Y25922D01*
X206500Y25784D01*
X207195Y25922D01*
X207784Y26316D01*
X208178Y26905D01*
X208316Y27600D01*
X208178Y28295D01*
X207784Y28884D01*
X207770Y29028D01*
X208122Y29380D01*
X209282D01*
Y23613D01*
X214419D01*
Y37017D01*
X209282D01*
Y31420D01*
X207700D01*
X207310Y31342D01*
X206979Y31121D01*
X205863Y30005D01*
X205642Y29674D01*
X205564Y29284D01*
Y29117D01*
X205216Y28884D01*
X204919Y28440D01*
X204419Y28591D01*
Y37017D01*
X199282D01*
Y34390D01*
X198782Y34238D01*
X198484Y34684D01*
X197895Y35078D01*
X197200Y35216D01*
X196505Y35078D01*
X195916Y34684D01*
X195522Y34095D01*
X195384Y33400D01*
X195522Y32705D01*
X195916Y32116D01*
X196180Y31939D01*
Y22811D01*
X196258Y22421D01*
X196479Y22090D01*
X197862Y20708D01*
Y17596D01*
X197471Y17388D01*
X197362Y17384D01*
X196700Y17516D01*
X196388Y17454D01*
X192870Y20972D01*
Y23613D01*
X194419D01*
Y37017D01*
X189282D01*
Y23613D01*
X190831D01*
Y20550D01*
X190899Y20208D01*
X190879Y20167D01*
X190775Y20031D01*
X190542Y19808D01*
X190000Y19916D01*
X189568Y19830D01*
X187249Y22149D01*
X186951Y22348D01*
X186600Y22418D01*
X176780D01*
X174436Y24761D01*
Y29946D01*
X174419Y30035D01*
Y37017D01*
X169282D01*
Y23613D01*
X172990D01*
X175751Y20851D01*
X176049Y20652D01*
X176400Y20582D01*
X176610D01*
X176767Y20082D01*
X176346Y19451D01*
X176276Y19100D01*
X178400D01*
Y18600D01*
X178900D01*
Y16476D01*
X179251Y16545D01*
X179973Y17028D01*
X180323Y17553D01*
X180854Y17447D01*
X180922Y17105D01*
X181316Y16516D01*
X181580Y16339D01*
Y15757D01*
X179282D01*
Y2720D01*
X175522D01*
X174439Y3803D01*
Y4200D01*
X174419Y4298D01*
Y15757D01*
X169282D01*
Y2353D01*
X173005D01*
X174379Y979D01*
X174710Y758D01*
X175100Y680D01*
X185200D01*
X185590Y758D01*
X185921Y979D01*
X187621Y2679D01*
X187842Y3010D01*
X187920Y3400D01*
Y10972D01*
X188284Y11216D01*
X188678Y11805D01*
X188782Y12329D01*
X189282Y12279D01*
Y2353D01*
X194419D01*
Y8280D01*
X195239D01*
X195416Y8016D01*
X196005Y7622D01*
X196299Y7564D01*
X196464Y7021D01*
X195979Y6536D01*
X195758Y6206D01*
X195680Y5816D01*
Y3361D01*
X195416Y3184D01*
X195022Y2595D01*
X194884Y1900D01*
X195022Y1205D01*
X195416Y616D01*
X195589Y500D01*
X195438Y0D01*
X101114D01*
X100907Y500D01*
X107831Y7424D01*
X149282D01*
Y2353D01*
X154419D01*
Y15757D01*
X149282D01*
Y10687D01*
X107155D01*
X106531Y10562D01*
X106002Y10209D01*
X104500Y8707D01*
X104123Y9037D01*
X104249Y9201D01*
X104508Y9828D01*
X104531Y10000D01*
X102500D01*
Y7969D01*
X102672Y7992D01*
X103298Y8251D01*
X103463Y8377D01*
X103793Y8000D01*
X98675Y2882D01*
X85889D01*
X85643Y3382D01*
X85751Y3524D01*
X86010Y4148D01*
X86098Y4819D01*
Y7181D01*
X86010Y7852D01*
X85751Y8476D01*
X85340Y9013D01*
X84803Y9425D01*
X84178Y9684D01*
X83508Y9772D01*
X82837Y9684D01*
X82213Y9425D01*
X81676Y9013D01*
X81264Y8476D01*
X81006Y7852D01*
X80995Y7774D01*
X80495Y7807D01*
Y11109D01*
X82465Y13079D01*
X100309D01*
X100479Y12578D01*
X100164Y12336D01*
X99751Y11799D01*
X99492Y11172D01*
X99469Y11000D01*
X104531D01*
X104508Y11172D01*
X104249Y11799D01*
X103836Y12336D01*
X103521Y12578D01*
X103691Y13079D01*
X107400D01*
X107400Y13078D01*
X107829Y13164D01*
X108193Y13407D01*
X110819Y16033D01*
X111362Y15869D01*
X111445Y15449D01*
X111927Y14728D01*
X112649Y14245D01*
X113000Y14176D01*
Y16300D01*
X113500D01*
Y16800D01*
X115624D01*
X115554Y17151D01*
X115073Y17873D01*
X114351Y18355D01*
X113931Y18438D01*
X113767Y18981D01*
X115325Y20539D01*
X115600Y20484D01*
X116295Y20622D01*
X116884Y21016D01*
X117278Y21605D01*
X117416Y22300D01*
X117278Y22995D01*
X116884Y23584D01*
X116295Y23978D01*
X116269Y23983D01*
X116260Y24006D01*
X116216Y24503D01*
X116684Y24816D01*
X117078Y25405D01*
X117216Y26100D01*
X117078Y26795D01*
X116763Y27265D01*
X116863Y27674D01*
X116947Y27810D01*
X117116Y27843D01*
X119280Y25678D01*
Y23461D01*
X119016Y23284D01*
X118622Y22695D01*
X118484Y22000D01*
X118622Y21305D01*
X119016Y20716D01*
X119605Y20322D01*
X120300Y20184D01*
X120995Y20322D01*
X121584Y20716D01*
X121978Y21305D01*
X122116Y22000D01*
X121978Y22695D01*
X121584Y23284D01*
X121320Y23461D01*
Y26100D01*
X121242Y26490D01*
X121021Y26821D01*
X118089Y29752D01*
X117759Y29974D01*
X117368Y30051D01*
X84812D01*
X84747Y30182D01*
X84613Y30551D01*
X84892Y31225D01*
X84928Y31500D01*
X79072D01*
X79108Y31225D01*
X79387Y30551D01*
X79253Y30182D01*
X79189Y30051D01*
X70391D01*
X69254Y31188D01*
X69316Y31500D01*
X69178Y32195D01*
X68784Y32784D01*
X68195Y33178D01*
X67500Y33316D01*
X66805Y33178D01*
X66216Y32784D01*
X65822Y32195D01*
X65684Y31500D01*
X65822Y30805D01*
X66216Y30216D01*
X66805Y29822D01*
X67500Y29684D01*
X67812Y29746D01*
X69248Y28310D01*
X69578Y28089D01*
X69968Y28012D01*
X70417D01*
X70608Y27550D01*
X65812Y22754D01*
X65500Y22816D01*
X64805Y22678D01*
X64216Y22284D01*
X63822Y21695D01*
X63684Y21000D01*
X63822Y20305D01*
X64216Y19716D01*
X64805Y19322D01*
X65500Y19184D01*
X66195Y19322D01*
X66784Y19716D01*
X67178Y20305D01*
X67316Y21000D01*
X67254Y21312D01*
X72513Y26571D01*
X81136D01*
X81382Y26071D01*
X81264Y25917D01*
X81006Y25293D01*
X80917Y24622D01*
Y20291D01*
X81006Y19621D01*
X81264Y18996D01*
X81676Y18460D01*
X82213Y18048D01*
X82837Y17789D01*
X83508Y17701D01*
X84178Y17789D01*
X84803Y18048D01*
X85340Y18460D01*
X85751Y18996D01*
X86010Y19621D01*
X86098Y20291D01*
Y24622D01*
X86010Y25293D01*
X85751Y25917D01*
X85634Y26071D01*
X85880Y26571D01*
X113197D01*
X113586Y26112D01*
X113584Y26100D01*
X113722Y25405D01*
X114116Y24816D01*
X114705Y24422D01*
X114731Y24417D01*
X114740Y24394D01*
X114784Y23897D01*
X114316Y23584D01*
X113922Y22995D01*
X113784Y22300D01*
X113806Y22192D01*
X106935Y15322D01*
X82000D01*
X82000Y15322D01*
X81571Y15236D01*
X81207Y14993D01*
X81207Y14993D01*
X78982Y12768D01*
X77820D01*
X77820Y12768D01*
X77712Y12746D01*
X76631D01*
Y13400D01*
X76507Y14024D01*
X76153Y14554D01*
X73853Y16853D01*
X73324Y17207D01*
X72700Y17331D01*
X70986D01*
X70832Y17532D01*
X70295Y17944D01*
X69670Y18202D01*
X69000Y18291D01*
X68330Y18202D01*
X67705Y17944D01*
X67168Y17532D01*
X67014Y17331D01*
X65850D01*
X65696Y17532D01*
X65160Y17944D01*
X64535Y18202D01*
X63864Y18291D01*
X63194Y18202D01*
X62569Y17944D01*
X62033Y17532D01*
X61621Y16995D01*
X61362Y16371D01*
X61274Y15700D01*
X61362Y15030D01*
X61621Y14405D01*
X62033Y13868D01*
X62569Y13456D01*
X63076Y13246D01*
X62976Y12746D01*
X60192D01*
X59872Y13163D01*
X59872Y13163D01*
X57068Y15968D01*
X56315Y16545D01*
X55440Y16907D01*
X54500Y17031D01*
X38812D01*
X34131Y22085D01*
Y27100D01*
X34007Y28040D01*
X33645Y28916D01*
X33068Y29667D01*
X32315Y30245D01*
X31440Y30607D01*
X30500Y30731D01*
X29560Y30607D01*
X28684Y30245D01*
X27933Y29667D01*
X27355Y28916D01*
X26993Y28040D01*
X26869Y27100D01*
Y20661D01*
X26922Y20260D01*
X26959Y19856D01*
X26984Y19791D01*
X26993Y19722D01*
X27148Y19347D01*
X27288Y18967D01*
X27329Y18910D01*
X27355Y18846D01*
X27602Y18524D01*
X27836Y18194D01*
X34563Y10932D01*
X34616Y10888D01*
X34659Y10832D01*
X34980Y10586D01*
X35292Y10327D01*
X35355Y10298D01*
X35411Y10255D01*
X35785Y10100D01*
X36153Y9931D01*
X36222Y9919D01*
X36287Y9893D01*
X36688Y9840D01*
X37088Y9772D01*
X37157Y9778D01*
X37226Y9769D01*
X47824D01*
X47994Y9269D01*
X47660Y9013D01*
X47249Y8476D01*
X46990Y7852D01*
X46902Y7181D01*
Y4819D01*
X46990Y4148D01*
X47249Y3524D01*
X47660Y2987D01*
X48197Y2575D01*
X48822Y2317D01*
X49492Y2228D01*
X50163Y2317D01*
X50788Y2575D01*
X51324Y2987D01*
X51736Y3524D01*
X51995Y4148D01*
X52083Y4819D01*
Y7181D01*
X51995Y7852D01*
X51736Y8476D01*
X51324Y9013D01*
X50990Y9269D01*
X51160Y9769D01*
X52996D01*
X53682Y9083D01*
X53705Y8911D01*
Y4854D01*
X62440D01*
X66794Y500D01*
X66587Y0D01*
X0D01*
Y181102D01*
X275591D01*
X275590Y663D01*
D02*
G37*
G36*
X257295Y62778D02*
X257190Y62642D01*
X257183D01*
Y62320D01*
X253789Y58926D01*
X253292Y58279D01*
X252980Y57525D01*
X252873Y56716D01*
X252873Y56715D01*
Y53196D01*
X252834Y53166D01*
X252123Y52238D01*
X251676Y51159D01*
X251523Y50000D01*
X251676Y48841D01*
X252123Y47762D01*
X252834Y46834D01*
X253633Y46222D01*
X253475Y45722D01*
X250600D01*
X250171Y45636D01*
X250146Y45620D01*
X238615D01*
X238423Y46082D01*
X255620Y63278D01*
X257048D01*
X257295Y62778D01*
D02*
G37*
G36*
X257978Y82480D02*
X257540Y82144D01*
X257504Y82108D01*
X257183D01*
Y81787D01*
X254905Y79509D01*
X254408Y78861D01*
X254096Y78107D01*
X253989Y77298D01*
X253989Y77298D01*
Y74569D01*
X251561D01*
Y65691D01*
X254353D01*
X254507Y65193D01*
X254264Y64829D01*
X254258Y64800D01*
X236478Y47020D01*
X221040D01*
X220650Y46942D01*
X220319Y46721D01*
X217177Y43578D01*
X216958Y43609D01*
X216781Y44139D01*
X255622Y82980D01*
X257809D01*
X257978Y82480D01*
D02*
G37*
G36*
X250171Y43564D02*
X250600Y43478D01*
X256049D01*
X256257Y42978D01*
X253789Y40511D01*
X253292Y39863D01*
X252980Y39109D01*
X252873Y38300D01*
X252873Y38300D01*
Y34754D01*
X251561D01*
Y25920D01*
X250922D01*
X248320Y28522D01*
Y37300D01*
X248242Y37690D01*
X248021Y38021D01*
X242923Y43119D01*
X243115Y43580D01*
X250146D01*
X250171Y43564D01*
D02*
G37*
G36*
X67168Y13868D02*
X67705Y13456D01*
X68330Y13198D01*
X69000Y13109D01*
X69178Y13133D01*
X69453Y12665D01*
Y4854D01*
X80448Y4854D01*
X80508Y4849D01*
X80933Y4702D01*
X81006Y4148D01*
X81264Y3524D01*
X81373Y3382D01*
X81126Y2882D01*
X69026D01*
X64747Y7161D01*
Y12746D01*
X64747D01*
X64653Y13246D01*
X65160Y13456D01*
X65696Y13868D01*
X65850Y14069D01*
X67014D01*
X67168Y13868D01*
D02*
G37*
G36*
X188270Y18532D02*
X188184Y18100D01*
X188322Y17405D01*
X188716Y16816D01*
X189305Y16422D01*
X190000Y16284D01*
X190695Y16422D01*
X191284Y16816D01*
X191678Y17405D01*
X191816Y18100D01*
X191733Y18518D01*
X192194Y18765D01*
X194678Y16280D01*
X194645Y16188D01*
X194419Y15757D01*
X194419Y15757D01*
X194419Y15757D01*
X189282D01*
Y12721D01*
X188782Y12671D01*
X188678Y13195D01*
X188284Y13784D01*
X187695Y14178D01*
X187000Y14316D01*
X186305Y14178D01*
X185716Y13784D01*
X185322Y13195D01*
X185184Y12500D01*
X185322Y11805D01*
X185716Y11216D01*
X185880Y11106D01*
Y3822D01*
X184919Y2861D01*
X184419Y3060D01*
Y15757D01*
X183620D01*
Y16339D01*
X183884Y16516D01*
X184278Y17105D01*
X184416Y17800D01*
X184278Y18495D01*
X183884Y19084D01*
X183295Y19478D01*
X182600Y19616D01*
X181905Y19478D01*
X181316Y19084D01*
X181101Y18763D01*
X180570Y18868D01*
X180455Y19451D01*
X180033Y20082D01*
X180191Y20582D01*
X186220D01*
X188270Y18532D01*
D02*
G37*
%LPC*%
G36*
X264961Y177405D02*
X263608Y177272D01*
X262308Y176877D01*
X261109Y176237D01*
X260059Y175374D01*
X259196Y174324D01*
X258556Y173125D01*
X258161Y171825D01*
X258028Y170472D01*
X258161Y169120D01*
X258556Y167819D01*
X259196Y166621D01*
X260059Y165570D01*
X261109Y164708D01*
X262308Y164068D01*
X263608Y163673D01*
X264961Y163540D01*
X266313Y163673D01*
X267614Y164068D01*
X268812Y164708D01*
X269863Y165570D01*
X270725Y166621D01*
X271365Y167819D01*
X271760Y169120D01*
X271893Y170472D01*
X271760Y171825D01*
X271365Y173125D01*
X270725Y174324D01*
X269863Y175374D01*
X268812Y176237D01*
X267614Y176877D01*
X266313Y177272D01*
X264961Y177405D01*
D02*
G37*
G36*
X10630D02*
X9277Y177272D01*
X7977Y176877D01*
X6778Y176237D01*
X5728Y175374D01*
X4866Y174324D01*
X4225Y173125D01*
X3830Y171825D01*
X3697Y170472D01*
X3830Y169120D01*
X4225Y167819D01*
X4866Y166621D01*
X5728Y165570D01*
X6778Y164708D01*
X7977Y164068D01*
X9277Y163673D01*
X10630Y163540D01*
X11982Y163673D01*
X13283Y164068D01*
X14481Y164708D01*
X15532Y165570D01*
X16394Y166621D01*
X17035Y167819D01*
X17429Y169120D01*
X17562Y170472D01*
X17429Y171825D01*
X17035Y173125D01*
X16394Y174324D01*
X15532Y175374D01*
X14481Y176237D01*
X13283Y176877D01*
X11982Y177272D01*
X10630Y177405D01*
D02*
G37*
G36*
X184000Y152124D02*
Y150500D01*
X185624D01*
X185555Y150851D01*
X185073Y151573D01*
X184351Y152055D01*
X184000Y152124D01*
D02*
G37*
G36*
X183000D02*
X182649Y152055D01*
X181928Y151573D01*
X181446Y150851D01*
X181376Y150500D01*
X183000D01*
Y152124D01*
D02*
G37*
G36*
X177500D02*
Y150500D01*
X179124D01*
X179054Y150851D01*
X178572Y151573D01*
X177851Y152055D01*
X177500Y152124D01*
D02*
G37*
G36*
X176500D02*
X176149Y152055D01*
X175427Y151573D01*
X174945Y150851D01*
X174876Y150500D01*
X176500D01*
Y152124D01*
D02*
G37*
G36*
X171100D02*
Y150500D01*
X172724D01*
X172654Y150851D01*
X172172Y151573D01*
X171451Y152055D01*
X171100Y152124D01*
D02*
G37*
G36*
X170100D02*
X169749Y152055D01*
X169027Y151573D01*
X168545Y150851D01*
X168476Y150500D01*
X170100D01*
Y152124D01*
D02*
G37*
G36*
X198158Y154464D02*
Y149000D01*
X201188D01*
Y151000D01*
X201067Y151914D01*
X200715Y152765D01*
X200154Y153496D01*
X199423Y154057D01*
X198571Y154410D01*
X198158Y154464D01*
D02*
G37*
G36*
X197158D02*
X196744Y154410D01*
X195892Y154057D01*
X195161Y153496D01*
X194600Y152765D01*
X194248Y151914D01*
X194127Y151000D01*
Y149000D01*
X197158D01*
Y154464D01*
D02*
G37*
G36*
X185624Y149500D02*
X184000D01*
Y147876D01*
X184351Y147945D01*
X185073Y148427D01*
X185555Y149149D01*
X185624Y149500D01*
D02*
G37*
G36*
X183000D02*
X181376D01*
X181446Y149149D01*
X181928Y148427D01*
X182649Y147945D01*
X183000Y147876D01*
Y149500D01*
D02*
G37*
G36*
X179124D02*
X177500D01*
Y147876D01*
X177851Y147945D01*
X178572Y148427D01*
X179054Y149149D01*
X179124Y149500D01*
D02*
G37*
G36*
X176500D02*
X174876D01*
X174945Y149149D01*
X175427Y148427D01*
X176149Y147945D01*
X176500Y147876D01*
Y149500D01*
D02*
G37*
G36*
X172724D02*
X171100D01*
Y147876D01*
X171451Y147945D01*
X172172Y148427D01*
X172654Y149149D01*
X172724Y149500D01*
D02*
G37*
G36*
X170100D02*
X168476D01*
X168545Y149149D01*
X169027Y148427D01*
X169749Y147945D01*
X170100Y147876D01*
Y149500D01*
D02*
G37*
G36*
X256000Y153819D02*
X254841Y153667D01*
X253762Y153220D01*
X252834Y152508D01*
X252123Y151581D01*
X251676Y150501D01*
X251523Y149343D01*
X251676Y148184D01*
X252123Y147104D01*
X252834Y146177D01*
X253762Y145465D01*
X254841Y145018D01*
X256000Y144866D01*
X257159Y145018D01*
X258238Y145465D01*
X259166Y146177D01*
X259877Y147104D01*
X260324Y148184D01*
X260477Y149343D01*
X260324Y150501D01*
X259877Y151581D01*
X259166Y152508D01*
X258238Y153220D01*
X257159Y153667D01*
X256000Y153819D01*
D02*
G37*
G36*
X217657Y154127D02*
X216848Y154020D01*
X216094Y153708D01*
X215446Y153211D01*
X214950Y152563D01*
X214637Y151809D01*
X214531Y151000D01*
Y146000D01*
X214637Y145191D01*
X214950Y144437D01*
X215446Y143789D01*
X216094Y143292D01*
X216848Y142980D01*
X217657Y142873D01*
X218467Y142980D01*
X219221Y143292D01*
X219868Y143789D01*
X220365Y144437D01*
X220678Y145191D01*
X220784Y146000D01*
Y151000D01*
X220678Y151809D01*
X220365Y152563D01*
X219868Y153211D01*
X219221Y153708D01*
X218467Y154020D01*
X217657Y154127D01*
D02*
G37*
G36*
X207658D02*
X206848Y154020D01*
X206094Y153708D01*
X205447Y153211D01*
X204950Y152563D01*
X204637Y151809D01*
X204531Y151000D01*
Y146000D01*
X204637Y145191D01*
X204950Y144437D01*
X205447Y143789D01*
X206094Y143292D01*
X206848Y142980D01*
X207658Y142873D01*
X208467Y142980D01*
X209221Y143292D01*
X209868Y143789D01*
X210365Y144437D01*
X210678Y145191D01*
X210784Y146000D01*
Y151000D01*
X210678Y151809D01*
X210365Y152563D01*
X209868Y153211D01*
X209221Y153708D01*
X208467Y154020D01*
X207658Y154127D01*
D02*
G37*
G36*
X57500D02*
X56691Y154020D01*
X55937Y153708D01*
X55289Y153211D01*
X54792Y152563D01*
X54480Y151809D01*
X54373Y151000D01*
Y146000D01*
X54480Y145191D01*
X54792Y144437D01*
X55289Y143789D01*
X55937Y143292D01*
X56691Y142980D01*
X57500Y142873D01*
X58309Y142980D01*
X59063Y143292D01*
X59711Y143789D01*
X60208Y144437D01*
X60520Y145191D01*
X60627Y146000D01*
Y151000D01*
X60520Y151809D01*
X60208Y152563D01*
X59711Y153211D01*
X59063Y153708D01*
X58309Y154020D01*
X57500Y154127D01*
D02*
G37*
G36*
X47500D02*
X46691Y154020D01*
X45937Y153708D01*
X45289Y153211D01*
X44792Y152563D01*
X44480Y151809D01*
X44373Y151000D01*
Y146000D01*
X44480Y145191D01*
X44792Y144437D01*
X45289Y143789D01*
X45937Y143292D01*
X46691Y142980D01*
X47500Y142873D01*
X48309Y142980D01*
X49063Y143292D01*
X49711Y143789D01*
X50208Y144437D01*
X50520Y145191D01*
X50627Y146000D01*
Y151000D01*
X50520Y151809D01*
X50208Y152563D01*
X49711Y153211D01*
X49063Y153708D01*
X48309Y154020D01*
X47500Y154127D01*
D02*
G37*
G36*
X37500D02*
X36691Y154020D01*
X35937Y153708D01*
X35289Y153211D01*
X34792Y152563D01*
X34480Y151809D01*
X34373Y151000D01*
Y146000D01*
X34480Y145191D01*
X34792Y144437D01*
X35289Y143789D01*
X35937Y143292D01*
X36691Y142980D01*
X37500Y142873D01*
X38309Y142980D01*
X39063Y143292D01*
X39711Y143789D01*
X40208Y144437D01*
X40520Y145191D01*
X40627Y146000D01*
Y151000D01*
X40520Y151809D01*
X40208Y152563D01*
X39711Y153211D01*
X39063Y153708D01*
X38309Y154020D01*
X37500Y154127D01*
D02*
G37*
G36*
X27500D02*
X26691Y154020D01*
X25937Y153708D01*
X25289Y153211D01*
X24792Y152563D01*
X24480Y151809D01*
X24373Y151000D01*
Y146000D01*
X24480Y145191D01*
X24792Y144437D01*
X25289Y143789D01*
X25937Y143292D01*
X26691Y142980D01*
X27500Y142873D01*
X28309Y142980D01*
X29063Y143292D01*
X29711Y143789D01*
X30208Y144437D01*
X30520Y145191D01*
X30627Y146000D01*
Y151000D01*
X30520Y151809D01*
X30208Y152563D01*
X29711Y153211D01*
X29063Y153708D01*
X28309Y154020D01*
X27500Y154127D01*
D02*
G37*
G36*
X201188Y148000D02*
X198158D01*
Y142536D01*
X198571Y142590D01*
X199423Y142943D01*
X200154Y143504D01*
X200715Y144235D01*
X201067Y145086D01*
X201188Y146000D01*
Y148000D01*
D02*
G37*
G36*
X197158D02*
X194127D01*
Y146000D01*
X194248Y145086D01*
X194600Y144235D01*
X195161Y143504D01*
X195892Y142943D01*
X196744Y142590D01*
X197158Y142536D01*
Y148000D01*
D02*
G37*
G36*
X195002Y140224D02*
Y138600D01*
X196627D01*
X196557Y138951D01*
X196075Y139673D01*
X195353Y140155D01*
X195002Y140224D01*
D02*
G37*
G36*
X194002D02*
X193651Y140155D01*
X192930Y139673D01*
X192448Y138951D01*
X192378Y138600D01*
X194002D01*
Y140224D01*
D02*
G37*
G36*
X97100Y138324D02*
Y136700D01*
X98724D01*
X98655Y137051D01*
X98172Y137773D01*
X97451Y138254D01*
X97100Y138324D01*
D02*
G37*
G36*
X96100D02*
X95749Y138254D01*
X95028Y137773D01*
X94546Y137051D01*
X94476Y136700D01*
X96100D01*
Y138324D01*
D02*
G37*
G36*
X196627Y137600D02*
X195002D01*
Y135976D01*
X195353Y136046D01*
X196075Y136528D01*
X196557Y137249D01*
X196627Y137600D01*
D02*
G37*
G36*
X194002D02*
X192378D01*
X192448Y137249D01*
X192930Y136528D01*
X193651Y136046D01*
X194002Y135976D01*
Y137600D01*
D02*
G37*
G36*
X98724Y135700D02*
X97100D01*
Y134076D01*
X97451Y134145D01*
X98172Y134627D01*
X98655Y135349D01*
X98724Y135700D01*
D02*
G37*
G36*
X96100D02*
X94476D01*
X94546Y135349D01*
X95028Y134627D01*
X95749Y134145D01*
X96100Y134076D01*
Y135700D01*
D02*
G37*
G36*
X205500Y135624D02*
Y134000D01*
X207124D01*
X207055Y134351D01*
X206573Y135073D01*
X205851Y135555D01*
X205500Y135624D01*
D02*
G37*
G36*
X204500D02*
X204149Y135555D01*
X203428Y135073D01*
X202945Y134351D01*
X202876Y134000D01*
X204500D01*
Y135624D01*
D02*
G37*
G36*
X48508Y141177D02*
Y133996D01*
X55689D01*
X55589Y135004D01*
X55150Y136454D01*
X54435Y137791D01*
X53474Y138962D01*
X52302Y139923D01*
X50966Y140638D01*
X49516Y141078D01*
X48508Y141177D01*
D02*
G37*
G36*
X47508D02*
X46500Y141078D01*
X45050Y140638D01*
X43713Y139923D01*
X42542Y138962D01*
X41581Y137791D01*
X40866Y136454D01*
X40426Y135004D01*
X40327Y133996D01*
X47508D01*
Y141177D01*
D02*
G37*
G36*
X195235Y134690D02*
Y133065D01*
X196859D01*
X196789Y133416D01*
X196307Y134138D01*
X195586Y134620D01*
X195235Y134690D01*
D02*
G37*
G36*
X194235D02*
X193884Y134620D01*
X193162Y134138D01*
X192680Y133416D01*
X192610Y133065D01*
X194235D01*
Y134690D01*
D02*
G37*
G36*
X207124Y133000D02*
X205500D01*
Y131376D01*
X205851Y131446D01*
X206573Y131928D01*
X207055Y132649D01*
X207124Y133000D01*
D02*
G37*
G36*
X204500D02*
X202876D01*
X202945Y132649D01*
X203428Y131928D01*
X204149Y131446D01*
X204500Y131376D01*
Y133000D01*
D02*
G37*
G36*
X196859Y132065D02*
X195235D01*
Y130441D01*
X195586Y130511D01*
X196307Y130993D01*
X196789Y131714D01*
X196859Y132065D01*
D02*
G37*
G36*
X194235D02*
X192610D01*
X192680Y131714D01*
X193162Y130993D01*
X193884Y130511D01*
X194235Y130441D01*
Y132065D01*
D02*
G37*
G36*
X47508Y132996D02*
X40327D01*
X40426Y131988D01*
X40866Y130538D01*
X41037Y130218D01*
X40643Y129895D01*
X39972Y130445D01*
X38736Y131106D01*
X37395Y131513D01*
X36000Y131650D01*
X34605Y131513D01*
X33264Y131106D01*
X32028Y130445D01*
X30944Y129556D01*
X30055Y128472D01*
X29394Y127236D01*
X28987Y125895D01*
X28850Y124500D01*
X28987Y123105D01*
X29394Y121764D01*
X30055Y120528D01*
X30944Y119444D01*
X32028Y118555D01*
X33264Y117894D01*
X34605Y117487D01*
X36000Y117350D01*
X37395Y117487D01*
X38736Y117894D01*
X39972Y118555D01*
X41056Y119444D01*
X41945Y120528D01*
X42606Y121764D01*
X43013Y123105D01*
X43150Y124500D01*
X43013Y125895D01*
X42606Y127236D01*
X42516Y127404D01*
X42910Y127728D01*
X43713Y127069D01*
X45050Y126354D01*
X46500Y125915D01*
X47508Y125815D01*
Y132996D01*
D02*
G37*
G36*
X117630Y127624D02*
Y126000D01*
X119254D01*
X119185Y126351D01*
X118702Y127073D01*
X117981Y127555D01*
X117630Y127624D01*
D02*
G37*
G36*
X116630D02*
X116279Y127555D01*
X115558Y127073D01*
X115076Y126351D01*
X115006Y126000D01*
X116630D01*
Y127624D01*
D02*
G37*
G36*
X55689Y132996D02*
X48508D01*
Y125815D01*
X49516Y125915D01*
X50966Y126354D01*
X52302Y127069D01*
X53474Y128030D01*
X54435Y129201D01*
X55150Y130538D01*
X55589Y131988D01*
X55689Y132996D01*
D02*
G37*
G36*
X260439Y134096D02*
X251561D01*
Y125219D01*
X260439D01*
Y134096D01*
D02*
G37*
G36*
X164700Y132016D02*
X164005Y131878D01*
X163416Y131484D01*
X163022Y130895D01*
X162884Y130200D01*
X163022Y129505D01*
X163416Y128916D01*
X164005Y128522D01*
X164700Y128384D01*
X164892Y128422D01*
X166078Y127235D01*
Y126693D01*
X165916Y126584D01*
X165522Y125995D01*
X165384Y125300D01*
X165422Y125108D01*
X156656Y116342D01*
X156413Y115978D01*
X156327Y115549D01*
X156327Y115549D01*
Y95973D01*
X155176D01*
Y91427D01*
X156327D01*
Y86213D01*
X144192Y74078D01*
X144000Y74116D01*
X143305Y73978D01*
X142716Y73584D01*
X142322Y72995D01*
X142184Y72300D01*
X142322Y71605D01*
X142716Y71016D01*
X142878Y70907D01*
Y68766D01*
X142378Y68615D01*
X142072Y69073D01*
X141351Y69555D01*
X141000Y69624D01*
Y67500D01*
X140500D01*
Y67000D01*
X138376D01*
X138445Y66649D01*
X138511Y66550D01*
X138320Y66088D01*
X138149Y66054D01*
X137427Y65573D01*
X136945Y64851D01*
X136810Y64169D01*
X136627Y63942D01*
X136303Y63816D01*
X135800Y63916D01*
X135105Y63778D01*
X134516Y63384D01*
X134122Y62795D01*
X133984Y62100D01*
X134020Y61920D01*
X133569Y61684D01*
X133292Y61938D01*
X133316Y62057D01*
X133178Y62752D01*
X132784Y63341D01*
X132195Y63735D01*
X131500Y63873D01*
X130805Y63735D01*
X130216Y63341D01*
X129822Y62752D01*
X129684Y62057D01*
X129822Y61362D01*
X130216Y60773D01*
X130069Y60270D01*
X129605Y60178D01*
X129016Y59784D01*
X128907Y59622D01*
X127165D01*
X115993Y70793D01*
X115629Y71036D01*
X115200Y71122D01*
X115200Y71122D01*
X111193D01*
X111084Y71284D01*
X110922Y71393D01*
Y72100D01*
X110922Y72100D01*
X110836Y72529D01*
X110593Y72893D01*
X110593Y72893D01*
X102326Y81160D01*
X102274Y81238D01*
X102274Y81238D01*
X100938Y82574D01*
X100860Y82626D01*
X100278Y83208D01*
X100316Y83400D01*
X100178Y84095D01*
X99784Y84684D01*
X99195Y85078D01*
X98500Y85216D01*
X98308Y85178D01*
X97422Y86065D01*
Y86830D01*
X97922Y87097D01*
X98149Y86945D01*
X98500Y86876D01*
Y89000D01*
Y91124D01*
X98149Y91054D01*
X97922Y90903D01*
X97422Y91170D01*
Y97834D01*
X97922Y97986D01*
X98027Y97828D01*
X98749Y97346D01*
X99100Y97276D01*
Y99400D01*
Y101524D01*
X98749Y101454D01*
X98027Y100972D01*
X97922Y100814D01*
X97422Y100966D01*
Y107835D01*
X102108Y112522D01*
X102300Y112484D01*
X102995Y112622D01*
X103584Y113016D01*
X103978Y113605D01*
X104116Y114300D01*
X104111Y114325D01*
X105308Y115522D01*
X105500Y115484D01*
X106195Y115622D01*
X106784Y116016D01*
X107178Y116605D01*
X107316Y117300D01*
X107278Y117492D01*
X110165Y120378D01*
X111107D01*
X111216Y120216D01*
X111805Y119822D01*
X112500Y119684D01*
X113195Y119822D01*
X113784Y120216D01*
X114082Y120662D01*
X114582Y120511D01*
Y116080D01*
X110232Y111730D01*
X109800Y111816D01*
X109105Y111678D01*
X108516Y111284D01*
X108122Y110695D01*
X107984Y110000D01*
X108122Y109305D01*
X108516Y108716D01*
X109105Y108322D01*
X109800Y108184D01*
X110495Y108322D01*
X111084Y108716D01*
X111478Y109305D01*
X111616Y110000D01*
X111530Y110432D01*
X116149Y115051D01*
X116348Y115349D01*
X116418Y115700D01*
Y122300D01*
X116348Y122651D01*
X116149Y122949D01*
X116085Y123013D01*
X116131Y123116D01*
X116379Y123425D01*
X116630Y123376D01*
Y125000D01*
X115006D01*
X115056Y124749D01*
X114746Y124501D01*
X114643Y124455D01*
X109849Y129249D01*
X109551Y129448D01*
X109200Y129518D01*
X105729D01*
X105484Y129884D01*
X104895Y130278D01*
X104200Y130416D01*
X103505Y130278D01*
X102916Y129884D01*
X102522Y129295D01*
X102384Y128600D01*
X102522Y127905D01*
X102916Y127316D01*
X103505Y126922D01*
X104200Y126784D01*
X104895Y126922D01*
X105484Y127316D01*
X105729Y127682D01*
X108820D01*
X112720Y123782D01*
X112534Y123389D01*
X112483Y123312D01*
X111805Y123178D01*
X111216Y122784D01*
X111107Y122622D01*
X109700D01*
X109700Y122622D01*
X109271Y122536D01*
X108907Y122293D01*
X108907Y122293D01*
X105692Y119078D01*
X105500Y119116D01*
X104805Y118978D01*
X104216Y118584D01*
X103822Y117995D01*
X103684Y117300D01*
X103722Y117108D01*
X102658Y116045D01*
X102300Y116116D01*
X101605Y115978D01*
X101016Y115584D01*
X100622Y114995D01*
X100484Y114300D01*
X100522Y114108D01*
X95507Y109093D01*
X95264Y108729D01*
X95178Y108300D01*
X95178Y108300D01*
Y85600D01*
X95178Y85600D01*
X95264Y85171D01*
X95507Y84807D01*
X96722Y83592D01*
X96684Y83400D01*
X96822Y82705D01*
X97216Y82116D01*
X97752Y81757D01*
X97816Y81485D01*
X97830Y81208D01*
X97628Y81072D01*
X97145Y80351D01*
X97076Y80000D01*
X99200D01*
Y79500D01*
X99700D01*
Y77376D01*
X100051Y77446D01*
X100773Y77928D01*
X101136Y78471D01*
X101716Y78598D01*
X108488Y71826D01*
X108516Y71284D01*
X108122Y70695D01*
X107984Y70000D01*
X108122Y69305D01*
X108516Y68716D01*
X109105Y68322D01*
X109594Y68225D01*
X109693Y68120D01*
X109894Y67786D01*
X109915Y67697D01*
X109876Y67500D01*
X114124D01*
X114055Y67851D01*
X113702Y68378D01*
X113946Y68878D01*
X114735D01*
X125907Y57707D01*
X125907Y57707D01*
X126271Y57464D01*
X126700Y57378D01*
X126700Y57378D01*
X128413D01*
X128440Y57340D01*
X128178Y56840D01*
X118904D01*
X118593Y57341D01*
X118624Y57500D01*
X116500D01*
Y58000D01*
X116000D01*
Y60124D01*
X115649Y60054D01*
X114927Y59572D01*
X114445Y58851D01*
X114362Y58431D01*
X113819Y58267D01*
X93940Y78146D01*
X93979Y78196D01*
X94436Y79300D01*
X94592Y80484D01*
X94436Y81669D01*
X93979Y82772D01*
X93252Y83720D01*
X92304Y84447D01*
X91200Y84904D01*
X90016Y85061D01*
X88831Y84904D01*
X87728Y84447D01*
X86780Y83720D01*
X86053Y82772D01*
X85596Y81669D01*
X85440Y80484D01*
X85596Y79300D01*
X86053Y78196D01*
X86780Y77249D01*
X87728Y76521D01*
X88831Y76064D01*
X90016Y75908D01*
X91200Y76064D01*
X92304Y76521D01*
X92354Y76560D01*
X113796Y55118D01*
X113589Y54618D01*
X108480D01*
X84918Y78180D01*
Y101300D01*
X84848Y101651D01*
X84649Y101949D01*
X80818Y105780D01*
Y107382D01*
X81318Y107431D01*
X81345Y107294D01*
X81422Y106905D01*
X81816Y106316D01*
X82405Y105922D01*
X83100Y105784D01*
X83292Y105822D01*
X88894Y100220D01*
Y94913D01*
X88831Y94905D01*
X87728Y94447D01*
X86780Y93720D01*
X86053Y92772D01*
X85596Y91669D01*
X85440Y90484D01*
X85596Y89300D01*
X86053Y88196D01*
X86780Y87248D01*
X87728Y86521D01*
X88831Y86064D01*
X90016Y85908D01*
X91200Y86064D01*
X92304Y86521D01*
X93252Y87248D01*
X93979Y88196D01*
X94436Y89300D01*
X94592Y90484D01*
X94436Y91669D01*
X93979Y92772D01*
X93252Y93720D01*
X92304Y94447D01*
X91200Y94905D01*
X91137Y94913D01*
Y100684D01*
X91137Y100684D01*
X91052Y101113D01*
X90809Y101477D01*
X90809Y101477D01*
X84878Y107408D01*
X84916Y107600D01*
X84778Y108295D01*
X84384Y108884D01*
X83795Y109278D01*
X83100Y109416D01*
X82405Y109278D01*
X81816Y108884D01*
X81422Y108295D01*
X81345Y107905D01*
X81318Y107769D01*
X80818Y107818D01*
Y109620D01*
X83796Y112598D01*
X85561D01*
X85596Y112331D01*
X86053Y111228D01*
X86780Y110280D01*
X87728Y109553D01*
X88831Y109096D01*
X90016Y108940D01*
X91200Y109096D01*
X92304Y109553D01*
X93252Y110280D01*
X93979Y111228D01*
X94436Y112331D01*
X94592Y113516D01*
X94436Y114700D01*
X93979Y115804D01*
X93252Y116752D01*
X92304Y117479D01*
X91200Y117936D01*
X90016Y118092D01*
X88831Y117936D01*
X87728Y117479D01*
X86780Y116752D01*
X86053Y115804D01*
X85596Y114700D01*
X85561Y114433D01*
X83416D01*
X83065Y114364D01*
X82767Y114165D01*
X79251Y110649D01*
X79052Y110351D01*
X78982Y110000D01*
Y105400D01*
X79052Y105049D01*
X79251Y104751D01*
X83082Y100920D01*
Y95816D01*
X82641Y95580D01*
X82495Y95678D01*
X81800Y95816D01*
X81637Y95784D01*
X81441Y96119D01*
X81405Y96247D01*
X81778Y96805D01*
X81916Y97500D01*
X81778Y98195D01*
X81384Y98784D01*
X80795Y99178D01*
X80576Y99221D01*
X79649Y100149D01*
X79351Y100348D01*
X79000Y100418D01*
X65519D01*
X65482Y100701D01*
X65018Y101820D01*
X64281Y102781D01*
X63320Y103518D01*
X62201Y103982D01*
X61000Y104140D01*
X59799Y103982D01*
X58680Y103518D01*
X57719Y102781D01*
X56982Y101820D01*
X56518Y100701D01*
X56360Y99500D01*
X56518Y98299D01*
X56982Y97180D01*
X57719Y96219D01*
X58680Y95482D01*
X59799Y95018D01*
X61000Y94860D01*
X62201Y95018D01*
X63320Y95482D01*
X64281Y96219D01*
X65018Y97180D01*
X65482Y98299D01*
X65519Y98582D01*
X67943D01*
X68112Y98082D01*
X67719Y97781D01*
X66982Y96820D01*
X66518Y95701D01*
X66360Y94500D01*
X66518Y93299D01*
X66982Y92180D01*
X67719Y91219D01*
X68680Y90482D01*
X69799Y90018D01*
X71000Y89860D01*
X72201Y90018D01*
X73320Y90482D01*
X74281Y91219D01*
X75018Y92180D01*
X75392Y93082D01*
X80271D01*
X80516Y92716D01*
X81105Y92322D01*
X81800Y92184D01*
X82495Y92322D01*
X82641Y92420D01*
X83082Y92184D01*
Y77800D01*
X83152Y77449D01*
X83351Y77151D01*
X107451Y53051D01*
X107749Y52852D01*
X108100Y52782D01*
X130403D01*
X130876Y52600D01*
X131045Y51749D01*
X131527Y51028D01*
X132249Y50545D01*
X132600Y50476D01*
Y52600D01*
X133100D01*
Y53100D01*
X135224D01*
X135154Y53451D01*
X134672Y54172D01*
X133951Y54655D01*
X133769Y54691D01*
X133624Y55169D01*
X135378Y56924D01*
X135878Y56717D01*
Y44393D01*
X135716Y44284D01*
X135322Y43695D01*
X135184Y43000D01*
X135322Y42305D01*
X135716Y41716D01*
X136305Y41322D01*
X137000Y41184D01*
X137695Y41322D01*
X137931Y41480D01*
X138250Y41091D01*
X134179Y37021D01*
X133958Y36690D01*
X133880Y36300D01*
Y26161D01*
X133616Y25984D01*
X133222Y25395D01*
X133084Y24700D01*
X133222Y24005D01*
X133616Y23416D01*
X134205Y23022D01*
X134900Y22884D01*
X135595Y23022D01*
X136184Y23416D01*
X136578Y24005D01*
X136716Y24700D01*
X136578Y25395D01*
X136184Y25984D01*
X135920Y26161D01*
Y35878D01*
X138180Y38138D01*
X138680Y37931D01*
Y36700D01*
X138758Y36310D01*
X138979Y35979D01*
X140746Y34212D01*
X140684Y33900D01*
X140822Y33205D01*
X141216Y32616D01*
X141805Y32222D01*
X142500Y32084D01*
X143195Y32222D01*
X143784Y32616D01*
X144178Y33205D01*
X144316Y33900D01*
X144178Y34595D01*
X143784Y35184D01*
X143358Y35469D01*
X143510Y35969D01*
X149282D01*
Y23613D01*
X154419D01*
Y36426D01*
X154898Y36715D01*
X154953Y36638D01*
X155428Y35928D01*
X156149Y35445D01*
X156500Y35376D01*
Y37500D01*
X157500D01*
Y35376D01*
X157851Y35445D01*
X158572Y35928D01*
X158782Y36241D01*
X159282Y36089D01*
Y23613D01*
X164419D01*
Y35677D01*
X165580Y36838D01*
X166080Y36631D01*
Y18822D01*
X163016Y15757D01*
X159282D01*
Y2353D01*
X164419D01*
Y14277D01*
X167821Y17679D01*
X168042Y18010D01*
X168120Y18400D01*
Y60500D01*
X168042Y60890D01*
X167821Y61221D01*
X165854Y63188D01*
X165916Y63500D01*
X165778Y64195D01*
X165384Y64784D01*
X164795Y65178D01*
X164100Y65316D01*
X163405Y65178D01*
X162816Y64784D01*
X162422Y64195D01*
X162397Y64067D01*
X161866Y63961D01*
X161784Y64084D01*
X161195Y64478D01*
X160500Y64616D01*
X159805Y64478D01*
X159216Y64084D01*
X158822Y63495D01*
X158684Y62800D01*
X158822Y62105D01*
X159216Y61516D01*
X159480Y61339D01*
Y59392D01*
X158980Y59241D01*
X158684Y59684D01*
X158095Y60078D01*
X157400Y60216D01*
X156705Y60078D01*
X156116Y59684D01*
X155722Y59095D01*
X155584Y58400D01*
X155722Y57705D01*
X156116Y57116D01*
X156380Y56939D01*
Y56116D01*
X155880Y55965D01*
X155734Y56184D01*
X155145Y56578D01*
X154450Y56716D01*
X153755Y56578D01*
X153166Y56184D01*
X152772Y55595D01*
X152634Y54900D01*
X152772Y54205D01*
X153166Y53616D01*
X153430Y53439D01*
Y52372D01*
X144158Y43100D01*
X143771Y43418D01*
X143770Y43420D01*
X144214Y44083D01*
X144396Y45000D01*
X144214Y45917D01*
X143694Y46694D01*
X142917Y47214D01*
X142000Y47396D01*
X141083Y47214D01*
X140306Y46694D01*
X139786Y45917D01*
X139604Y45000D01*
X139786Y44083D01*
X140256Y43381D01*
X140189Y43029D01*
X140110Y42842D01*
X139779Y42621D01*
X138909Y41750D01*
X138520Y42069D01*
X138678Y42305D01*
X138816Y43000D01*
X138678Y43695D01*
X138284Y44284D01*
X138122Y44393D01*
Y56935D01*
X144793Y63607D01*
X144793Y63607D01*
X145036Y63971D01*
X145122Y64400D01*
Y70907D01*
X145284Y71016D01*
X145678Y71605D01*
X145816Y72300D01*
X145778Y72492D01*
X158242Y84956D01*
X158242Y84956D01*
X158485Y85320D01*
X158570Y85749D01*
Y91427D01*
X159722D01*
Y95973D01*
X158570D01*
Y115084D01*
X167008Y123522D01*
X167200Y123484D01*
X167895Y123622D01*
X168484Y124016D01*
X168593Y124178D01*
X175248D01*
X175322Y123805D01*
X175716Y123216D01*
X176305Y122822D01*
X177000Y122684D01*
X177192Y122722D01*
X178707Y121207D01*
X178707Y121207D01*
X179071Y120964D01*
X179500Y120878D01*
X180107D01*
X180216Y120716D01*
X180805Y120322D01*
X181500Y120184D01*
X182195Y120322D01*
X182784Y120716D01*
X182893Y120878D01*
X184835D01*
X190078Y115635D01*
Y112693D01*
X189916Y112584D01*
X189522Y111995D01*
X189384Y111300D01*
X189522Y110605D01*
X189916Y110016D01*
X190078Y109907D01*
Y106065D01*
X189807Y105793D01*
X189564Y105429D01*
X189478Y105000D01*
X189564Y104571D01*
X189807Y104207D01*
X190072Y103942D01*
X189746Y103561D01*
X186543Y100357D01*
X189758Y97143D01*
X192972Y100357D01*
X192521Y100809D01*
X192711Y101326D01*
X193195Y101422D01*
X193784Y101816D01*
X194178Y102405D01*
X194316Y103100D01*
X194178Y103795D01*
X193784Y104384D01*
X193195Y104778D01*
X192648Y104887D01*
X192576Y104936D01*
X192344Y105243D01*
X192278Y105382D01*
X192322Y105600D01*
X192322Y105600D01*
Y109907D01*
X192484Y110016D01*
X192878Y110605D01*
X193016Y111300D01*
X192878Y111995D01*
X192484Y112584D01*
X192322Y112693D01*
Y116100D01*
X192322Y116100D01*
X192236Y116529D01*
X191993Y116893D01*
X186093Y122793D01*
X185729Y123036D01*
X185300Y123122D01*
X185300Y123122D01*
X182893D01*
X182784Y123284D01*
X182195Y123678D01*
X181500Y123816D01*
X180805Y123678D01*
X180216Y123284D01*
X179691Y123395D01*
X178778Y124308D01*
X178816Y124500D01*
X178678Y125195D01*
X178284Y125784D01*
X177695Y126178D01*
X177000Y126316D01*
X176453Y126207D01*
X176261Y126336D01*
X175831Y126422D01*
X175831Y126422D01*
X168593D01*
X168484Y126584D01*
X168322Y126693D01*
Y127700D01*
X168236Y128129D01*
X167993Y128493D01*
X167993Y128493D01*
X166478Y130008D01*
X166516Y130200D01*
X166378Y130895D01*
X165984Y131484D01*
X165395Y131878D01*
X164700Y132016D01*
D02*
G37*
G36*
X119254Y125000D02*
X117630D01*
Y123376D01*
X117981Y123445D01*
X118702Y123927D01*
X119185Y124649D01*
X119254Y125000D01*
D02*
G37*
G36*
X71000Y129140D02*
X69799Y128982D01*
X68680Y128518D01*
X67719Y127781D01*
X66982Y126820D01*
X66518Y125701D01*
X66360Y124500D01*
X66518Y123299D01*
X66982Y122180D01*
X67719Y121219D01*
X68680Y120482D01*
X69799Y120018D01*
X71000Y119860D01*
X72201Y120018D01*
X73320Y120482D01*
X74281Y121219D01*
X75018Y122180D01*
X75482Y123299D01*
X75640Y124500D01*
X75482Y125701D01*
X75018Y126820D01*
X74281Y127781D01*
X73320Y128518D01*
X72201Y128982D01*
X71000Y129140D01*
D02*
G37*
G36*
X90016Y128092D02*
X88831Y127936D01*
X87728Y127479D01*
X86780Y126751D01*
X86053Y125804D01*
X85596Y124700D01*
X85440Y123516D01*
X85596Y122331D01*
X86053Y121228D01*
X86780Y120280D01*
X87728Y119553D01*
X88831Y119096D01*
X90016Y118939D01*
X91200Y119096D01*
X92304Y119553D01*
X93252Y120280D01*
X93979Y121228D01*
X94436Y122331D01*
X94592Y123516D01*
X94436Y124700D01*
X93979Y125804D01*
X93252Y126751D01*
X92304Y127479D01*
X91200Y127936D01*
X90016Y128092D01*
D02*
G37*
G36*
X196000Y119316D02*
X195305Y119178D01*
X194716Y118784D01*
X194322Y118195D01*
X194184Y117500D01*
X194322Y116805D01*
X194716Y116216D01*
X195305Y115822D01*
X196000Y115684D01*
X196695Y115822D01*
X197284Y116216D01*
X197393Y116378D01*
X210541D01*
X210716Y116116D01*
X211305Y115722D01*
X212000Y115584D01*
X212695Y115722D01*
X213284Y116116D01*
X213678Y116705D01*
X213816Y117400D01*
X213678Y118095D01*
X213284Y118684D01*
X212695Y119078D01*
X212000Y119216D01*
X211305Y119078D01*
X210716Y118684D01*
X210674Y118622D01*
X197393D01*
X197284Y118784D01*
X196695Y119178D01*
X196000Y119316D01*
D02*
G37*
G36*
X61000Y124140D02*
X59799Y123982D01*
X58680Y123518D01*
X57719Y122781D01*
X56982Y121820D01*
X56518Y120701D01*
X56360Y119500D01*
X56518Y118299D01*
X56982Y117180D01*
X57719Y116219D01*
X58680Y115482D01*
X59799Y115018D01*
X61000Y114860D01*
X62201Y115018D01*
X63320Y115482D01*
X64281Y116219D01*
X65018Y117180D01*
X65482Y118299D01*
X65640Y119500D01*
X65482Y120701D01*
X65018Y121820D01*
X64281Y122781D01*
X63320Y123518D01*
X62201Y123982D01*
X61000Y124140D01*
D02*
G37*
G36*
X229500Y114624D02*
Y113000D01*
X231124D01*
X231055Y113351D01*
X230573Y114073D01*
X229851Y114555D01*
X229500Y114624D01*
D02*
G37*
G36*
X228500D02*
X228149Y114555D01*
X227428Y114073D01*
X226945Y113351D01*
X226876Y113000D01*
X228500D01*
Y114624D01*
D02*
G37*
G36*
X234949Y112624D02*
Y111000D01*
X236573D01*
X236503Y111351D01*
X236021Y112073D01*
X235300Y112555D01*
X234949Y112624D01*
D02*
G37*
G36*
X233949D02*
X233598Y112555D01*
X232876Y112073D01*
X232394Y111351D01*
X232324Y111000D01*
X233949D01*
Y112624D01*
D02*
G37*
G36*
X196000Y114316D02*
X195305Y114178D01*
X194716Y113784D01*
X194322Y113195D01*
X194184Y112500D01*
X194322Y111805D01*
X194716Y111216D01*
X195305Y110822D01*
X196000Y110684D01*
X196695Y110822D01*
X197284Y111216D01*
X197461Y111480D01*
X210872D01*
X211116Y111116D01*
X211705Y110722D01*
X212400Y110584D01*
X213095Y110722D01*
X213684Y111116D01*
X214078Y111705D01*
X214216Y112400D01*
X214078Y113095D01*
X213684Y113684D01*
X213095Y114078D01*
X212400Y114216D01*
X211705Y114078D01*
X211116Y113684D01*
X211006Y113520D01*
X197461D01*
X197284Y113784D01*
X196695Y114178D01*
X196000Y114316D01*
D02*
G37*
G36*
X231124Y112000D02*
X229500D01*
Y110376D01*
X229851Y110445D01*
X230573Y110927D01*
X231055Y111649D01*
X231124Y112000D01*
D02*
G37*
G36*
X228500D02*
X226876D01*
X226945Y111649D01*
X227428Y110927D01*
X228149Y110445D01*
X228500Y110376D01*
Y112000D01*
D02*
G37*
G36*
X71000Y119140D02*
X69799Y118982D01*
X68680Y118518D01*
X67719Y117781D01*
X66982Y116820D01*
X66518Y115701D01*
X66360Y114500D01*
X66518Y113299D01*
X66982Y112180D01*
X67719Y111219D01*
X68680Y110482D01*
X69799Y110018D01*
X71000Y109860D01*
X72201Y110018D01*
X73320Y110482D01*
X74281Y111219D01*
X75018Y112180D01*
X75482Y113299D01*
X75640Y114500D01*
X75482Y115701D01*
X75018Y116820D01*
X74281Y117781D01*
X73320Y118518D01*
X72201Y118982D01*
X71000Y119140D01*
D02*
G37*
G36*
X166500Y110624D02*
Y109000D01*
X168124D01*
X168054Y109351D01*
X167572Y110073D01*
X166851Y110555D01*
X166500Y110624D01*
D02*
G37*
G36*
X165500D02*
X165149Y110555D01*
X164427Y110073D01*
X163945Y109351D01*
X163876Y109000D01*
X165500D01*
Y110624D01*
D02*
G37*
G36*
X236573Y110000D02*
X234949D01*
Y108376D01*
X235300Y108446D01*
X236021Y108928D01*
X236503Y109649D01*
X236573Y110000D01*
D02*
G37*
G36*
X233949D02*
X232324D01*
X232394Y109649D01*
X232876Y108928D01*
X233598Y108446D01*
X233949Y108376D01*
Y110000D01*
D02*
G37*
G36*
X101500Y109624D02*
Y108000D01*
X103124D01*
X103054Y108351D01*
X102573Y109072D01*
X101851Y109555D01*
X101500Y109624D01*
D02*
G37*
G36*
X100500D02*
X100149Y109555D01*
X99427Y109072D01*
X98945Y108351D01*
X98876Y108000D01*
X100500D01*
Y109624D01*
D02*
G37*
G36*
X168124Y108000D02*
X166500D01*
Y106376D01*
X166851Y106446D01*
X167572Y106928D01*
X168054Y107649D01*
X168124Y108000D01*
D02*
G37*
G36*
X165500D02*
X163876D01*
X163945Y107649D01*
X164427Y106928D01*
X165149Y106446D01*
X165500Y106376D01*
Y108000D01*
D02*
G37*
G36*
X197549Y107024D02*
Y105400D01*
X199173D01*
X199103Y105751D01*
X198621Y106473D01*
X197900Y106955D01*
X197549Y107024D01*
D02*
G37*
G36*
X196549D02*
X196198Y106955D01*
X195476Y106473D01*
X194994Y105751D01*
X194924Y105400D01*
X196549D01*
Y107024D01*
D02*
G37*
G36*
X103124Y107000D02*
X101500D01*
Y105376D01*
X101851Y105446D01*
X102573Y105928D01*
X103054Y106649D01*
X103124Y107000D01*
D02*
G37*
G36*
X100500D02*
X98876D01*
X98945Y106649D01*
X99427Y105928D01*
X100149Y105446D01*
X100500Y105376D01*
Y107000D01*
D02*
G37*
G36*
X256000Y113977D02*
X254841Y113824D01*
X253762Y113377D01*
X252834Y112666D01*
X252123Y111738D01*
X251676Y110659D01*
X251523Y109500D01*
X251676Y108341D01*
X252123Y107262D01*
X252834Y106334D01*
X253762Y105623D01*
X254841Y105176D01*
X256000Y105023D01*
X257159Y105176D01*
X258238Y105623D01*
X259166Y106334D01*
X259877Y107262D01*
X260324Y108341D01*
X260477Y109500D01*
X260324Y110659D01*
X259877Y111738D01*
X259166Y112666D01*
X258238Y113377D01*
X257159Y113824D01*
X256000Y113977D01*
D02*
G37*
G36*
X61000Y114140D02*
X59799Y113982D01*
X58680Y113518D01*
X57719Y112781D01*
X56982Y111820D01*
X56518Y110701D01*
X56360Y109500D01*
X56518Y108299D01*
X56982Y107180D01*
X57719Y106219D01*
X58680Y105482D01*
X59799Y105018D01*
X61000Y104860D01*
X62201Y105018D01*
X63320Y105482D01*
X64281Y106219D01*
X65018Y107180D01*
X65482Y108299D01*
X65640Y109500D01*
X65482Y110701D01*
X65018Y111820D01*
X64281Y112781D01*
X63320Y113518D01*
X62201Y113982D01*
X61000Y114140D01*
D02*
G37*
G36*
X272168Y105715D02*
X269700D01*
Y103640D01*
X272168D01*
Y105715D01*
D02*
G37*
G36*
X268700D02*
X266231D01*
Y103640D01*
X268700D01*
Y105715D01*
D02*
G37*
G36*
X199173Y104400D02*
X197549D01*
Y102776D01*
X197900Y102846D01*
X198621Y103328D01*
X199103Y104049D01*
X199173Y104400D01*
D02*
G37*
G36*
X196549D02*
X194924D01*
X194994Y104049D01*
X195476Y103328D01*
X196198Y102846D01*
X196549Y102776D01*
Y104400D01*
D02*
G37*
G36*
X272168Y102640D02*
X269700D01*
Y100565D01*
X272168D01*
Y102640D01*
D02*
G37*
G36*
X268700D02*
X266231D01*
Y100565D01*
X268700D01*
Y102640D01*
D02*
G37*
G36*
X180900Y102016D02*
X180205Y101878D01*
X179616Y101484D01*
X179222Y100895D01*
X179155Y100556D01*
X178645D01*
X178578Y100895D01*
X178184Y101484D01*
X177595Y101878D01*
X176900Y102016D01*
X176205Y101878D01*
X175616Y101484D01*
X175222Y100895D01*
X175084Y100200D01*
X175220Y99518D01*
X170351Y94649D01*
X170152Y94351D01*
X170089Y94033D01*
X169716Y93784D01*
X169322Y93195D01*
X169184Y92500D01*
X169322Y91805D01*
X169716Y91216D01*
X170305Y90822D01*
X171000Y90684D01*
X171695Y90822D01*
X172284Y91216D01*
X172678Y91805D01*
X172816Y92500D01*
X172678Y93195D01*
X172284Y93784D01*
X172266Y93968D01*
X173768Y95470D01*
X174229Y95224D01*
X174184Y95000D01*
X174322Y94305D01*
X174716Y93716D01*
X175305Y93322D01*
X176000Y93184D01*
X176695Y93322D01*
X177284Y93716D01*
X177678Y94305D01*
X177816Y95000D01*
X177730Y95432D01*
X180718Y98420D01*
X180900Y98384D01*
X181595Y98522D01*
X182184Y98916D01*
X182578Y99505D01*
X182716Y100200D01*
X182578Y100895D01*
X182184Y101484D01*
X181595Y101878D01*
X180900Y102016D01*
D02*
G37*
G36*
X100100Y101524D02*
Y99900D01*
X101724D01*
X101655Y100251D01*
X101172Y100972D01*
X100451Y101454D01*
X100100Y101524D01*
D02*
G37*
G36*
X172400Y102516D02*
X171705Y102378D01*
X171116Y101984D01*
X170722Y101395D01*
X170584Y100700D01*
X170720Y100017D01*
X170307Y99605D01*
X169846Y99851D01*
X169866Y99950D01*
X169728Y100645D01*
X169334Y101234D01*
X168745Y101628D01*
X168050Y101766D01*
X167355Y101628D01*
X166766Y101234D01*
X166372Y100645D01*
X166234Y99950D01*
X166353Y99351D01*
X162976Y95973D01*
X161278D01*
Y91427D01*
X162582D01*
Y88529D01*
X162216Y88284D01*
X161822Y87695D01*
X161684Y87000D01*
X161822Y86305D01*
X162216Y85716D01*
X162805Y85322D01*
X163500Y85184D01*
X164195Y85322D01*
X164784Y85716D01*
X165178Y86305D01*
X165316Y87000D01*
X165178Y87695D01*
X164784Y88284D01*
X164418Y88529D01*
Y91427D01*
X165377D01*
X165614Y91427D01*
X165974Y91036D01*
X165973Y90920D01*
X165822Y90695D01*
X165684Y90000D01*
X165822Y89305D01*
X166216Y88716D01*
X166805Y88322D01*
X167500Y88184D01*
X168195Y88322D01*
X168784Y88716D01*
X169178Y89305D01*
X169316Y90000D01*
X169178Y90695D01*
X168784Y91284D01*
X168418Y91529D01*
Y95120D01*
X172218Y98920D01*
X172400Y98884D01*
X173095Y99022D01*
X173684Y99416D01*
X174078Y100005D01*
X174216Y100700D01*
X174078Y101395D01*
X173684Y101984D01*
X173095Y102378D01*
X172400Y102516D01*
D02*
G37*
G36*
X101724Y98900D02*
X100100D01*
Y97276D01*
X100451Y97346D01*
X101172Y97828D01*
X101655Y98549D01*
X101724Y98900D01*
D02*
G37*
G36*
X215500Y100416D02*
X214805Y100278D01*
X214216Y99884D01*
X213822Y99295D01*
X213684Y98600D01*
X213822Y97905D01*
X214216Y97316D01*
X214805Y96922D01*
X215500Y96784D01*
X216195Y96922D01*
X216784Y97316D01*
X217029Y97682D01*
X225020D01*
X225970Y96732D01*
X225884Y96300D01*
X226022Y95605D01*
X226416Y95016D01*
X227005Y94622D01*
X227700Y94484D01*
X228395Y94622D01*
X228984Y95016D01*
X229378Y95605D01*
X229516Y96300D01*
X229378Y96995D01*
X228984Y97584D01*
X228395Y97978D01*
X227700Y98116D01*
X227268Y98030D01*
X226049Y99249D01*
X225751Y99448D01*
X225400Y99518D01*
X217029D01*
X216784Y99884D01*
X216195Y100278D01*
X215500Y100416D01*
D02*
G37*
G36*
X102000Y95624D02*
Y94000D01*
X103624D01*
X103554Y94351D01*
X103073Y95073D01*
X102351Y95555D01*
X102000Y95624D01*
D02*
G37*
G36*
X101000D02*
X100649Y95555D01*
X99928Y95073D01*
X99445Y94351D01*
X99376Y94000D01*
X101000D01*
Y95624D01*
D02*
G37*
G36*
X185442Y99257D02*
X182228Y96043D01*
X182767Y95503D01*
X182727Y95300D01*
X182865Y94605D01*
X183258Y94016D01*
X183848Y93622D01*
X184543Y93484D01*
X184746Y93524D01*
X185442Y92828D01*
X188657Y96043D01*
X185442Y99257D01*
D02*
G37*
G36*
X103624Y93000D02*
X102000D01*
Y91376D01*
X102351Y91445D01*
X103073Y91927D01*
X103554Y92649D01*
X103624Y93000D01*
D02*
G37*
G36*
X101000D02*
X99376D01*
X99445Y92649D01*
X99928Y91927D01*
X100649Y91445D01*
X101000Y91376D01*
Y93000D01*
D02*
G37*
G36*
X266622Y92673D02*
X264449D01*
Y90500D01*
X266622D01*
Y92673D01*
D02*
G37*
G36*
X263449D02*
X261276D01*
Y90500D01*
X263449D01*
Y92673D01*
D02*
G37*
G36*
X99500Y91124D02*
Y89500D01*
X101124D01*
X101055Y89851D01*
X100573Y90573D01*
X99851Y91054D01*
X99500Y91124D01*
D02*
G37*
G36*
X263449Y89500D02*
X261276D01*
Y87327D01*
X263449D01*
Y89500D01*
D02*
G37*
G36*
X101124Y88500D02*
X99500D01*
Y86876D01*
X99851Y86945D01*
X100573Y87428D01*
X101055Y88149D01*
X101124Y88500D01*
D02*
G37*
G36*
X61000Y94140D02*
X59799Y93982D01*
X58680Y93518D01*
X57719Y92781D01*
X56982Y91820D01*
X56518Y90701D01*
X56360Y89500D01*
X56518Y88299D01*
X56982Y87180D01*
X57719Y86219D01*
X58680Y85482D01*
X59799Y85018D01*
X61000Y84860D01*
X62201Y85018D01*
X63320Y85482D01*
X64281Y86219D01*
X65018Y87180D01*
X65482Y88299D01*
X65640Y89500D01*
X65482Y90701D01*
X65018Y91820D01*
X64281Y92781D01*
X63320Y93518D01*
X62201Y93982D01*
X61000Y94140D01*
D02*
G37*
G36*
X272168Y86248D02*
X269700D01*
Y84174D01*
X272168D01*
Y86248D01*
D02*
G37*
G36*
X161100Y85524D02*
Y83900D01*
X162724D01*
X162654Y84251D01*
X162172Y84973D01*
X161451Y85454D01*
X161100Y85524D01*
D02*
G37*
G36*
X160100D02*
X159749Y85454D01*
X159028Y84973D01*
X158545Y84251D01*
X158476Y83900D01*
X160100D01*
Y85524D01*
D02*
G37*
G36*
X162724Y82900D02*
X161100D01*
Y81276D01*
X161451Y81345D01*
X162172Y81827D01*
X162654Y82549D01*
X162724Y82900D01*
D02*
G37*
G36*
X160100D02*
X158476D01*
X158545Y82549D01*
X159028Y81827D01*
X159749Y81345D01*
X160100Y81276D01*
Y82900D01*
D02*
G37*
G36*
X272168Y83174D02*
X269700D01*
Y81099D01*
X272168D01*
Y83174D01*
D02*
G37*
G36*
X268700D02*
X266231D01*
Y81099D01*
X268700D01*
Y83174D01*
D02*
G37*
G36*
X71000Y89140D02*
X69799Y88982D01*
X68680Y88518D01*
X67719Y87781D01*
X66982Y86820D01*
X66518Y85701D01*
X66360Y84500D01*
X66518Y83299D01*
X66982Y82180D01*
X67719Y81219D01*
X68680Y80482D01*
X69799Y80018D01*
X71000Y79860D01*
X72201Y80018D01*
X73320Y80482D01*
X74281Y81219D01*
X75018Y82180D01*
X75482Y83299D01*
X75640Y84500D01*
X75482Y85701D01*
X75018Y86820D01*
X74281Y87781D01*
X73320Y88518D01*
X72201Y88982D01*
X71000Y89140D01*
D02*
G37*
G36*
X98700Y79000D02*
X97076D01*
X97145Y78649D01*
X97628Y77928D01*
X98349Y77446D01*
X98700Y77376D01*
Y79000D01*
D02*
G37*
G36*
X61000Y84140D02*
X59799Y83982D01*
X58680Y83518D01*
X57719Y82781D01*
X56982Y81820D01*
X56518Y80701D01*
X56360Y79500D01*
X56518Y78299D01*
X56982Y77180D01*
X57719Y76219D01*
X58680Y75482D01*
X59799Y75018D01*
X61000Y74860D01*
X62201Y75018D01*
X63320Y75482D01*
X64281Y76219D01*
X65018Y77180D01*
X65482Y78299D01*
X65640Y79500D01*
X65482Y80701D01*
X65018Y81820D01*
X64281Y82781D01*
X63320Y83518D01*
X62201Y83982D01*
X61000Y84140D01*
D02*
G37*
G36*
X162500Y75124D02*
Y73500D01*
X164124D01*
X164055Y73851D01*
X163573Y74572D01*
X162851Y75055D01*
X162500Y75124D01*
D02*
G37*
G36*
X161500D02*
X161149Y75055D01*
X160427Y74572D01*
X159945Y73851D01*
X159876Y73500D01*
X161500D01*
Y75124D01*
D02*
G37*
G36*
X227900Y73443D02*
Y71819D01*
X229524D01*
X229455Y72170D01*
X228973Y72891D01*
X228251Y73373D01*
X227900Y73443D01*
D02*
G37*
G36*
X226900D02*
X226549Y73373D01*
X225828Y72891D01*
X225345Y72170D01*
X225276Y71819D01*
X226900D01*
Y73443D01*
D02*
G37*
G36*
X48508Y78185D02*
Y71004D01*
X55689D01*
X55589Y72012D01*
X55150Y73462D01*
X54435Y74799D01*
X53474Y75970D01*
X52302Y76931D01*
X50966Y77646D01*
X49516Y78086D01*
X48508Y78185D01*
D02*
G37*
G36*
X36000Y86650D02*
X34605Y86513D01*
X33264Y86106D01*
X32028Y85445D01*
X30944Y84556D01*
X30055Y83472D01*
X29394Y82236D01*
X28987Y80895D01*
X28850Y79500D01*
X28987Y78105D01*
X29394Y76764D01*
X30055Y75528D01*
X30944Y74444D01*
X32028Y73555D01*
X33264Y72894D01*
X34605Y72487D01*
X36000Y72350D01*
X37395Y72487D01*
X38736Y72894D01*
X39972Y73555D01*
X40643Y74105D01*
X41037Y73782D01*
X40866Y73462D01*
X40426Y72012D01*
X40327Y71004D01*
X47508D01*
Y78185D01*
X46500Y78086D01*
X45050Y77646D01*
X43713Y76931D01*
X42910Y76272D01*
X42516Y76596D01*
X42606Y76764D01*
X43013Y78105D01*
X43150Y79500D01*
X43013Y80895D01*
X42606Y82236D01*
X41945Y83472D01*
X41056Y84556D01*
X39972Y85445D01*
X38736Y86106D01*
X37395Y86513D01*
X36000Y86650D01*
D02*
G37*
G36*
X266622Y73140D02*
X264449D01*
Y70967D01*
X266622D01*
Y73140D01*
D02*
G37*
G36*
X263449D02*
X261276D01*
Y70967D01*
X263449D01*
Y73140D01*
D02*
G37*
G36*
X164124Y72500D02*
X162500D01*
Y70876D01*
X162851Y70946D01*
X163573Y71428D01*
X164055Y72149D01*
X164124Y72500D01*
D02*
G37*
G36*
X161500D02*
X159876D01*
X159945Y72149D01*
X160427Y71428D01*
X161149Y70946D01*
X161500Y70876D01*
Y72500D01*
D02*
G37*
G36*
X174000Y70824D02*
Y69200D01*
X175624D01*
X175555Y69551D01*
X175073Y70272D01*
X174351Y70754D01*
X174000Y70824D01*
D02*
G37*
G36*
X173000D02*
X172649Y70754D01*
X171927Y70272D01*
X171446Y69551D01*
X171376Y69200D01*
X173000D01*
Y70824D01*
D02*
G37*
G36*
X229524Y70819D02*
X227900D01*
Y69194D01*
X228251Y69264D01*
X228973Y69746D01*
X229455Y70468D01*
X229524Y70819D01*
D02*
G37*
G36*
X226900D02*
X225276D01*
X225345Y70468D01*
X225828Y69746D01*
X226549Y69264D01*
X226900Y69194D01*
Y70819D01*
D02*
G37*
G36*
X140000Y69624D02*
X139649Y69555D01*
X138927Y69073D01*
X138445Y68351D01*
X138376Y68000D01*
X140000D01*
Y69624D01*
D02*
G37*
G36*
X124000D02*
X123649Y69555D01*
X122927Y69073D01*
X122445Y68351D01*
X122376Y68000D01*
X124000D01*
Y69624D01*
D02*
G37*
G36*
X263449Y69967D02*
X261276D01*
Y67793D01*
X263449D01*
Y69967D01*
D02*
G37*
G36*
X128800Y68524D02*
Y66900D01*
X130424D01*
X130354Y67251D01*
X129873Y67972D01*
X129151Y68454D01*
X128800Y68524D01*
D02*
G37*
G36*
X175624Y68200D02*
X174000D01*
Y66576D01*
X174351Y66645D01*
X175073Y67128D01*
X175555Y67849D01*
X175624Y68200D01*
D02*
G37*
G36*
X173000D02*
X171376D01*
X171446Y67849D01*
X171927Y67128D01*
X172649Y66645D01*
X173000Y66576D01*
Y68200D01*
D02*
G37*
G36*
X232200Y67762D02*
X231849Y67692D01*
X231128Y67210D01*
X230645Y66488D01*
X230576Y66137D01*
X232200D01*
Y67762D01*
D02*
G37*
G36*
X124000Y67000D02*
X122376D01*
X122445Y66649D01*
X122927Y65927D01*
X123649Y65446D01*
X124000Y65376D01*
Y67000D01*
D02*
G37*
G36*
X114124Y66500D02*
X112500D01*
Y64876D01*
X112851Y64946D01*
X113573Y65428D01*
X114055Y66149D01*
X114124Y66500D01*
D02*
G37*
G36*
X111500D02*
X109876D01*
X109945Y66149D01*
X110427Y65428D01*
X111149Y64946D01*
X111500Y64876D01*
Y66500D01*
D02*
G37*
G36*
X272168Y66782D02*
X269700D01*
Y64707D01*
X272168D01*
Y66782D01*
D02*
G37*
G36*
X130424Y65900D02*
X128800D01*
Y64276D01*
X129151Y64346D01*
X129873Y64828D01*
X130354Y65549D01*
X130424Y65900D01*
D02*
G37*
G36*
X125000Y69624D02*
Y67500D01*
Y65376D01*
X125351Y65446D01*
X125709Y65684D01*
X126245Y65549D01*
X126727Y64828D01*
X127449Y64346D01*
X127800Y64276D01*
Y66400D01*
Y68524D01*
X127449Y68454D01*
X127091Y68216D01*
X126555Y68351D01*
X126073Y69073D01*
X125351Y69555D01*
X125000Y69624D01*
D02*
G37*
G36*
X55689Y70004D02*
X48508D01*
Y62823D01*
X49516Y62922D01*
X50966Y63362D01*
X52302Y64077D01*
X53474Y65038D01*
X54435Y66209D01*
X55150Y67546D01*
X55589Y68996D01*
X55689Y70004D01*
D02*
G37*
G36*
X47508D02*
X40327D01*
X40426Y68996D01*
X40866Y67546D01*
X41581Y66209D01*
X42542Y65038D01*
X43713Y64077D01*
X45050Y63362D01*
X46500Y62922D01*
X47508Y62823D01*
Y70004D01*
D02*
G37*
G36*
X272168Y63707D02*
X269700D01*
Y61632D01*
X272168D01*
Y63707D01*
D02*
G37*
G36*
X117000Y60124D02*
Y58500D01*
X118624D01*
X118554Y58851D01*
X118072Y59572D01*
X117351Y60054D01*
X117000Y60124D01*
D02*
G37*
G36*
X266622Y53607D02*
X264449D01*
Y51433D01*
X266622D01*
Y53607D01*
D02*
G37*
G36*
X263449D02*
X261276D01*
Y51433D01*
X263449D01*
Y53607D01*
D02*
G37*
G36*
X135224Y52100D02*
X133600D01*
Y50476D01*
X133951Y50545D01*
X134672Y51028D01*
X135154Y51749D01*
X135224Y52100D01*
D02*
G37*
G36*
X23939Y58781D02*
X15061D01*
Y49904D01*
X23939D01*
Y58781D01*
D02*
G37*
G36*
X263449Y50433D02*
X261276D01*
Y48260D01*
X263449D01*
Y50433D01*
D02*
G37*
G36*
X272168Y47315D02*
X269700D01*
Y45240D01*
X272168D01*
Y47315D01*
D02*
G37*
G36*
Y44240D02*
X269700D01*
Y42165D01*
X272168D01*
Y44240D01*
D02*
G37*
G36*
X224900Y40724D02*
Y39100D01*
X226524D01*
X226455Y39451D01*
X225973Y40172D01*
X225251Y40655D01*
X224900Y40724D01*
D02*
G37*
G36*
X223900D02*
X223549Y40655D01*
X222828Y40172D01*
X222345Y39451D01*
X222276Y39100D01*
X223900D01*
Y40724D01*
D02*
G37*
G36*
X20000Y39472D02*
Y35157D01*
X24315D01*
X24214Y35921D01*
X23727Y37098D01*
X22951Y38108D01*
X21940Y38884D01*
X20763Y39371D01*
X20000Y39472D01*
D02*
G37*
G36*
X19000D02*
X18237Y39371D01*
X17060Y38884D01*
X16049Y38108D01*
X15273Y37098D01*
X14786Y35921D01*
X14685Y35157D01*
X19000D01*
Y39472D01*
D02*
G37*
G36*
X82500Y34928D02*
Y32500D01*
X84928D01*
X84892Y32775D01*
X84593Y33497D01*
X84117Y34117D01*
X83497Y34593D01*
X82775Y34892D01*
X82500Y34928D01*
D02*
G37*
G36*
X81500D02*
X81225Y34892D01*
X80503Y34593D01*
X79883Y34117D01*
X79407Y33497D01*
X79108Y32775D01*
X79072Y32500D01*
X81500D01*
Y34928D01*
D02*
G37*
G36*
X54200D02*
Y32500D01*
X56628D01*
X56592Y32775D01*
X56293Y33497D01*
X55817Y34117D01*
X55197Y34593D01*
X54475Y34892D01*
X54200Y34928D01*
D02*
G37*
G36*
X53200D02*
X52925Y34892D01*
X52203Y34593D01*
X51583Y34117D01*
X51107Y33497D01*
X50808Y32775D01*
X50772Y32500D01*
X53200D01*
Y34928D01*
D02*
G37*
G36*
X266622Y34073D02*
X264449D01*
Y31900D01*
X266622D01*
Y34073D01*
D02*
G37*
G36*
X263449D02*
X261276D01*
Y31900D01*
X263449D01*
Y34073D01*
D02*
G37*
G36*
X244819Y37417D02*
X242350D01*
Y30815D01*
X244819D01*
Y37417D01*
D02*
G37*
G36*
X241350D02*
X238882D01*
Y30815D01*
X241350D01*
Y37417D01*
D02*
G37*
G36*
X24315Y34157D02*
X20000D01*
Y29843D01*
X20763Y29943D01*
X21940Y30431D01*
X22951Y31207D01*
X23727Y32217D01*
X24214Y33394D01*
X24315Y34157D01*
D02*
G37*
G36*
X19000D02*
X14685D01*
X14786Y33394D01*
X15273Y32217D01*
X16049Y31207D01*
X17060Y30431D01*
X18237Y29943D01*
X19000Y29843D01*
Y34157D01*
D02*
G37*
G36*
X56628Y31500D02*
X54200D01*
Y29072D01*
X54475Y29108D01*
X55197Y29407D01*
X55817Y29883D01*
X56293Y30503D01*
X56592Y31225D01*
X56628Y31500D01*
D02*
G37*
G36*
X53200D02*
X50772D01*
X50808Y31225D01*
X51107Y30503D01*
X51583Y29883D01*
X52203Y29407D01*
X52925Y29108D01*
X53200Y29072D01*
Y31500D01*
D02*
G37*
G36*
X263449Y30900D02*
X261276D01*
Y28727D01*
X263449D01*
Y30900D01*
D02*
G37*
G36*
X184419Y37017D02*
X179282D01*
Y23613D01*
X184419D01*
Y28880D01*
X185139D01*
X185316Y28616D01*
X185905Y28222D01*
X186600Y28084D01*
X187295Y28222D01*
X187884Y28616D01*
X188278Y29205D01*
X188416Y29900D01*
X188278Y30595D01*
X187884Y31184D01*
X187295Y31578D01*
X186600Y31716D01*
X185905Y31578D01*
X185316Y31184D01*
X185139Y30920D01*
X184419D01*
Y37017D01*
D02*
G37*
G36*
X244819Y29815D02*
X242350D01*
Y23213D01*
X244819D01*
Y29815D01*
D02*
G37*
G36*
X241350D02*
X238882D01*
Y23213D01*
X241350D01*
Y29815D01*
D02*
G37*
G36*
X143000Y24588D02*
Y22964D01*
X144624D01*
X144554Y23315D01*
X144072Y24036D01*
X143351Y24518D01*
X143000Y24588D01*
D02*
G37*
G36*
X142000D02*
X141649Y24518D01*
X140928Y24036D01*
X140445Y23315D01*
X140376Y22964D01*
X142000D01*
Y24588D01*
D02*
G37*
G36*
X144624Y21964D02*
X143000D01*
Y20339D01*
X143351Y20409D01*
X144072Y20891D01*
X144554Y21613D01*
X144624Y21964D01*
D02*
G37*
G36*
X142000D02*
X140376D01*
X140445Y21613D01*
X140928Y20891D01*
X141649Y20409D01*
X142000Y20339D01*
Y21964D01*
D02*
G37*
G36*
X77878Y22286D02*
X77145Y22141D01*
X76523Y21725D01*
X76108Y21103D01*
X75962Y20370D01*
X76108Y19637D01*
X76523Y19015D01*
X77145Y18600D01*
X77878Y18454D01*
X78611Y18600D01*
X79233Y19015D01*
X79648Y19637D01*
X79794Y20370D01*
X79648Y21103D01*
X79233Y21725D01*
X78611Y22141D01*
X77878Y22286D01*
D02*
G37*
G36*
X55122D02*
X54389Y22141D01*
X53767Y21725D01*
X53352Y21103D01*
X53206Y20370D01*
X53352Y19637D01*
X53767Y19015D01*
X54389Y18600D01*
X55122Y18454D01*
X55855Y18600D01*
X56477Y19015D01*
X56893Y19637D01*
X57038Y20370D01*
X56893Y21103D01*
X56477Y21725D01*
X55855Y22141D01*
X55122Y22286D01*
D02*
G37*
G36*
X49492Y27213D02*
X48822Y27124D01*
X48197Y26866D01*
X47660Y26454D01*
X47249Y25917D01*
X46990Y25293D01*
X46902Y24622D01*
Y20291D01*
X46990Y19621D01*
X47249Y18996D01*
X47660Y18460D01*
X48197Y18048D01*
X48822Y17789D01*
X49492Y17701D01*
X50163Y17789D01*
X50788Y18048D01*
X51324Y18460D01*
X51736Y18996D01*
X51995Y19621D01*
X52083Y20291D01*
Y24622D01*
X51995Y25293D01*
X51736Y25917D01*
X51324Y26454D01*
X50788Y26866D01*
X50163Y27124D01*
X49492Y27213D01*
D02*
G37*
G36*
X118900Y19324D02*
Y17700D01*
X120524D01*
X120455Y18051D01*
X119973Y18772D01*
X119251Y19255D01*
X118900Y19324D01*
D02*
G37*
G36*
X117900D02*
X117549Y19255D01*
X116827Y18772D01*
X116346Y18051D01*
X116276Y17700D01*
X117900D01*
Y19324D01*
D02*
G37*
G36*
X177900Y18100D02*
X176276D01*
X176346Y17749D01*
X176828Y17028D01*
X177549Y16545D01*
X177900Y16476D01*
Y18100D01*
D02*
G37*
G36*
X120524Y16700D02*
X118900D01*
Y15076D01*
X119251Y15145D01*
X119973Y15628D01*
X120455Y16349D01*
X120524Y16700D01*
D02*
G37*
G36*
X117900D02*
X116276D01*
X116346Y16349D01*
X116827Y15628D01*
X117549Y15145D01*
X117900Y15076D01*
Y16700D01*
D02*
G37*
G36*
X115624Y15800D02*
X114000D01*
Y14176D01*
X114351Y14245D01*
X115073Y14728D01*
X115554Y15449D01*
X115624Y15800D01*
D02*
G37*
G36*
X244819Y16158D02*
X242350D01*
Y9555D01*
X244819D01*
Y16158D01*
D02*
G37*
G36*
X241350D02*
X238882D01*
Y9555D01*
X241350D01*
Y16158D01*
D02*
G37*
G36*
X101500Y10000D02*
X99469D01*
X99492Y9828D01*
X99751Y9201D01*
X100164Y8664D01*
X100701Y8251D01*
X101328Y7992D01*
X101500Y7969D01*
Y10000D01*
D02*
G37*
G36*
X34000Y5924D02*
Y4300D01*
X35624D01*
X35555Y4651D01*
X35072Y5373D01*
X34351Y5855D01*
X34000Y5924D01*
D02*
G37*
G36*
X33000D02*
X32649Y5855D01*
X31927Y5373D01*
X31445Y4651D01*
X31376Y4300D01*
X33000D01*
Y5924D01*
D02*
G37*
G36*
X264961Y17562D02*
X263608Y17429D01*
X262308Y17035D01*
X261109Y16394D01*
X260059Y15532D01*
X259196Y14481D01*
X258556Y13283D01*
X258161Y11982D01*
X258028Y10630D01*
X258161Y9277D01*
X258556Y7977D01*
X259196Y6778D01*
X260059Y5728D01*
X261109Y4866D01*
X262308Y4225D01*
X263608Y3830D01*
X264961Y3697D01*
X266313Y3830D01*
X267614Y4225D01*
X268812Y4866D01*
X269863Y5728D01*
X270725Y6778D01*
X271365Y7977D01*
X271760Y9277D01*
X271893Y10630D01*
X271760Y11982D01*
X271365Y13283D01*
X270725Y14481D01*
X269863Y15532D01*
X268812Y16394D01*
X267614Y17035D01*
X266313Y17429D01*
X264961Y17562D01*
D02*
G37*
G36*
X10630D02*
X9277Y17429D01*
X7977Y17035D01*
X6778Y16394D01*
X5728Y15532D01*
X4866Y14481D01*
X4225Y13283D01*
X3830Y11982D01*
X3697Y10630D01*
X3830Y9277D01*
X4225Y7977D01*
X4866Y6778D01*
X5728Y5728D01*
X6778Y4866D01*
X7977Y4225D01*
X9277Y3830D01*
X10630Y3697D01*
X11982Y3830D01*
X13283Y4225D01*
X14481Y4866D01*
X15532Y5728D01*
X16394Y6778D01*
X17035Y7977D01*
X17429Y9277D01*
X17562Y10630D01*
X17429Y11982D01*
X17035Y13283D01*
X16394Y14481D01*
X15532Y15532D01*
X14481Y16394D01*
X13283Y17035D01*
X11982Y17429D01*
X10630Y17562D01*
D02*
G37*
G36*
X234419Y15757D02*
X229282D01*
Y2353D01*
X234419D01*
Y15757D01*
D02*
G37*
G36*
X244819Y8555D02*
X242350D01*
Y1953D01*
X244819D01*
Y8555D01*
D02*
G37*
G36*
X241350D02*
X238882D01*
Y1953D01*
X241350D01*
Y8555D01*
D02*
G37*
G36*
X35624Y3300D02*
X34000D01*
Y1676D01*
X34351Y1745D01*
X35072Y2228D01*
X35555Y2949D01*
X35624Y3300D01*
D02*
G37*
G36*
X33000D02*
X31376D01*
X31445Y2949D01*
X31927Y2228D01*
X32649Y1745D01*
X33000Y1676D01*
Y3300D01*
D02*
G37*
%LPD*%
G36*
X162816Y62216D02*
X163405Y61822D01*
X164100Y61684D01*
X164412Y61746D01*
X166080Y60078D01*
Y51958D01*
X165580Y51751D01*
X161520Y55811D01*
Y61339D01*
X161784Y61516D01*
X162178Y62105D01*
X162203Y62233D01*
X162734Y62339D01*
X162816Y62216D01*
D02*
G37*
G36*
X159480Y57408D02*
Y55389D01*
X159558Y54999D01*
X159779Y54668D01*
X162676Y51771D01*
X162429Y51311D01*
X162000Y51396D01*
X161083Y51214D01*
X160306Y50694D01*
X159786Y49917D01*
X159604Y49000D01*
X159786Y48083D01*
X160306Y47306D01*
X160310Y47303D01*
X160204Y46772D01*
X159876Y46707D01*
X159346Y46354D01*
X152224Y39231D01*
X146380D01*
X146173Y39731D01*
X158121Y51679D01*
X158342Y52010D01*
X158420Y52400D01*
Y56939D01*
X158684Y57116D01*
X158980Y57559D01*
X159480Y57408D01*
D02*
G37*
D15*
X220760Y29441D02*
X222300Y27900D01*
X220760Y29441D02*
X221850Y30531D01*
X167500Y99200D02*
Y100000D01*
X163500Y87000D02*
Y95200D01*
X173519Y24381D02*
X176400Y21500D01*
X173519Y24381D02*
Y29946D01*
X173150Y30315D02*
X173519Y29946D01*
X225400Y98600D02*
X227700Y96300D01*
X215500Y98600D02*
X225400D01*
X163500Y95200D02*
X167500Y99200D01*
Y95500D02*
X172500Y100500D01*
X206800Y2700D02*
X206900Y2800D01*
Y7700D01*
X176400Y21500D02*
X186600D01*
X190000Y18100D01*
X231800Y18300D02*
Y30265D01*
X231850Y30315D01*
X222300Y27900D02*
X225800D01*
X228500Y24700D02*
Y33100D01*
X221850Y18050D02*
X228500Y24700D01*
X226800Y34800D02*
X228500Y33100D01*
X232900Y40300D02*
X237300Y35900D01*
X221850Y9055D02*
Y18050D01*
Y30315D02*
Y30531D01*
X237300Y19300D02*
Y35900D01*
X230600Y40300D02*
X232900D01*
X115500Y115700D02*
Y122300D01*
X109200Y128600D02*
X115500Y122300D01*
X104200Y128600D02*
X109200D01*
X109800Y110000D02*
X115500Y115700D01*
X130857Y53700D02*
X135800Y58643D01*
Y62100D01*
X108100Y53700D02*
X130857D01*
X84000Y77800D02*
X108100Y53700D01*
X84000Y77800D02*
Y101300D01*
X79900Y110000D02*
X83416Y113516D01*
X90016D01*
X79900Y105400D02*
Y110000D01*
Y105400D02*
X84000Y101300D01*
X71000Y94500D02*
X71500Y94000D01*
X81800D01*
X80100Y97500D02*
Y98400D01*
X79000Y99500D02*
X80100Y98400D01*
X102300Y114300D02*
X102500D01*
X167500Y90000D02*
Y95500D01*
X171000Y94000D02*
X177000Y100000D01*
X171000Y92500D02*
Y94000D01*
X176000Y95000D02*
X181000Y100000D01*
X61000Y99500D02*
X79000D01*
D16*
X196000Y117500D02*
X212500D01*
X75000Y8826D02*
X77820Y11647D01*
X74974Y8800D02*
X75000Y8826D01*
X77820Y11647D02*
X79447D01*
X82000Y14200D01*
X107400D01*
X185300Y122000D02*
X191200Y116100D01*
Y111300D02*
Y116100D01*
Y105600D02*
Y111300D01*
X190600Y105000D02*
X191200Y105600D01*
X190600Y105000D02*
X192500Y103100D01*
X255300Y64400D02*
X263984D01*
X250600Y44600D02*
X263718D01*
X270051Y50933D01*
X263984Y64400D02*
X270051Y70467D01*
Y50933D02*
Y55875D01*
X269200Y56726D02*
X270051Y55875D01*
Y70467D02*
Y75342D01*
X269200Y76193D02*
X270051Y75342D01*
X137000Y43000D02*
Y57400D01*
X144000Y64400D01*
X131500Y62057D02*
X133200Y60357D01*
Y58023D02*
Y60357D01*
X130896Y55719D02*
X133200Y58023D01*
X83100Y107600D02*
X90016Y100684D01*
Y90484D02*
Y100684D01*
X90016Y80484D02*
X114781Y55719D01*
X130896D01*
X115200Y70000D02*
X126700Y58500D01*
X130300D01*
X96300Y108300D02*
X102300Y114300D01*
X96300Y85600D02*
Y108300D01*
Y85600D02*
X98500Y83400D01*
X109800Y70000D02*
X115200D01*
X101481Y80419D02*
X109800Y72100D01*
X101481Y80419D02*
Y80445D01*
X100145Y81781D02*
X101481Y80445D01*
X100119Y81781D02*
X100145D01*
X98500Y83400D02*
X100119Y81781D01*
X109800Y70000D02*
Y72100D01*
X109700Y121500D02*
X112500D01*
X105500Y117300D02*
X109700Y121500D01*
X102500Y114300D02*
X105500Y117300D01*
X144000Y64400D02*
Y72300D01*
X157449Y93700D02*
Y115549D01*
X167200Y125300D01*
X157449Y85749D02*
Y93700D01*
X144000Y72300D02*
X157449Y85749D01*
X164700Y130200D02*
X167200Y127700D01*
Y125300D02*
Y127700D01*
X181500Y122000D02*
X185300D01*
X179500D02*
X181500D01*
X177000Y124500D02*
X179500Y122000D01*
X176631Y124500D02*
X177000D01*
X175831Y125300D02*
X176631Y124500D01*
X167200Y125300D02*
X175831D01*
X107400Y14200D02*
X115400Y22200D01*
X189758Y100357D02*
X192500Y103100D01*
D18*
X196000Y112500D02*
X212500D01*
X163250Y30315D02*
Y35950D01*
X175100Y1700D02*
X185200D01*
X173419Y3381D02*
X175100Y1700D01*
X173419Y3381D02*
Y4200D01*
X171850Y5768D02*
X173419Y4200D01*
X171850Y5768D02*
Y9055D01*
X182265Y29900D02*
X186600D01*
X181850Y30315D02*
X182265Y29900D01*
X134900Y24700D02*
Y36300D01*
X65500Y21000D02*
X72091Y27591D01*
X205155Y9055D02*
X207100Y11000D01*
X201850Y9055D02*
X205155D01*
X207100Y11000D02*
Y15800D01*
X196700Y1900D02*
Y5816D01*
X198881Y7997D01*
X186900Y3400D02*
Y12400D01*
X187000Y12500D01*
X185200Y1700D02*
X186900Y3400D01*
X182600Y11006D02*
Y17800D01*
X181625Y10031D02*
X182600Y11006D01*
X181625Y10031D02*
X181850Y9805D01*
X207700Y30400D02*
X211765D01*
X206584Y29284D02*
X207700Y30400D01*
X206500Y27600D02*
X206584Y27684D01*
Y29284D01*
X211850Y9055D02*
X217000Y14205D01*
Y28900D01*
X139700Y36700D02*
X142500Y33900D01*
X139700Y36700D02*
Y38600D01*
X141300Y40200D01*
X145200D01*
X157400Y52400D01*
Y58400D01*
X172900Y39400D02*
Y48100D01*
Y39400D02*
X173700Y38600D01*
X217600D02*
X222200Y43200D01*
X173700Y38600D02*
X217600D01*
X191850Y20550D02*
Y30315D01*
Y20550D02*
X196700Y15700D01*
X198881Y7997D02*
Y21130D01*
X197200Y22811D02*
X198881Y21130D01*
X197200Y22811D02*
Y33400D01*
X192095Y9300D02*
X196700D01*
X215000Y61600D02*
X222793D01*
X213500Y63100D02*
X215000Y61600D01*
X187200Y47900D02*
X190981Y44119D01*
X215319D01*
X182500Y47900D02*
X187200D01*
X196800Y46400D02*
X213500Y63100D01*
X191500Y46400D02*
X196800D01*
X217440Y42400D02*
X221040Y46000D01*
X179600Y42400D02*
X217440D01*
X178500Y43500D02*
X179600Y42400D01*
X236900Y46000D02*
X255300Y64400D01*
X221040Y46000D02*
X236900D01*
X221620Y44600D02*
X250600D01*
X217820Y40800D02*
X221620Y44600D01*
X241400Y43200D02*
X247300Y37300D01*
X222200Y43200D02*
X241400D01*
X175600Y40800D02*
X217820D01*
X250500Y24900D02*
X263551D01*
X247300Y28100D02*
X250500Y24900D01*
X247300Y28100D02*
Y37300D01*
X263551Y24900D02*
X270051Y31400D01*
X215319Y44119D02*
X255200Y84000D01*
X264051D01*
X270051Y90000D01*
Y94809D01*
X269200Y95660D02*
X270051Y94809D01*
Y31400D02*
Y36409D01*
X269200Y37260D02*
X270051Y36409D01*
X154450Y51950D02*
Y54900D01*
X144400Y41900D02*
X154450Y51950D01*
X140500Y41900D02*
X144400D01*
X178500Y59400D02*
Y80000D01*
Y59300D02*
Y59400D01*
X191500Y46400D01*
X174000Y54800D02*
X178500Y59300D01*
X175600Y82900D02*
X178500Y80000D01*
X191850Y9055D02*
X192095Y9300D01*
X201850Y17550D02*
X201900Y17500D01*
X201850Y17550D02*
Y30315D01*
X167100Y18400D02*
Y60500D01*
X164100Y63500D02*
X167100Y60500D01*
X175600Y82900D02*
X183600D01*
X206600Y105900D01*
X218850Y107000D02*
X219000D01*
X217750Y105900D02*
X218850Y107000D01*
X206600Y105900D02*
X217750D01*
X134900Y36300D02*
X140500Y41900D01*
X160500Y55389D02*
Y62300D01*
Y55389D02*
X165150Y50739D01*
Y37850D02*
Y50739D01*
X160500Y62300D02*
X160700Y62500D01*
X113909Y27591D02*
X115400Y26100D01*
X117368Y29032D02*
X120300Y26100D01*
X72091Y27591D02*
X113909D01*
X69968Y29032D02*
X117368D01*
X67500Y31500D02*
X69968Y29032D01*
X120300Y22000D02*
Y26100D01*
X211765Y30400D02*
X211850Y30315D01*
X161850Y9055D02*
Y13150D01*
X167100Y18400D01*
X163250Y35950D02*
X165150Y37850D01*
D54*
X270051Y31400D02*
D03*
X263949D02*
D03*
X270051Y70467D02*
D03*
X263949D02*
D03*
X270051Y50933D02*
D03*
X263949D02*
D03*
X270051Y90000D02*
D03*
X263949D02*
D03*
X163551Y93700D02*
D03*
X157449D02*
D03*
D57*
X185442Y96043D02*
D03*
X189758Y100357D02*
D03*
D65*
X74974Y8800D02*
D03*
X59226D02*
D03*
D72*
X151235Y29700D02*
Y34765D01*
X107155Y9055D02*
X151850D01*
X99350Y1250D02*
X107155Y9055D01*
X68350Y1250D02*
X99350D01*
X60801Y8800D02*
X68350Y1250D01*
X59226Y8800D02*
X60801D01*
X63864Y15700D02*
X69000D01*
X72700D01*
X75000Y8826D02*
Y13400D01*
X72700Y15700D02*
X75000Y13400D01*
X151700Y37600D02*
X152900D01*
X142100D02*
X151700D01*
Y30465D02*
Y37600D01*
Y30465D02*
X151850Y30315D01*
X160500Y45200D02*
X162200D01*
X152900Y37600D02*
X160500Y45200D01*
X219000Y107000D02*
Y115300D01*
X215800Y118500D02*
X219000Y115300D01*
X215800Y118500D02*
Y137100D01*
D73*
X258700Y41000D02*
X259751D01*
X256000Y38300D02*
X258700Y41000D01*
X256000Y30315D02*
Y38300D01*
Y50000D02*
Y56716D01*
X259751Y60467D01*
X256000Y89815D02*
X256101Y89916D01*
Y95749D01*
X259751Y99400D01*
X256000Y70130D02*
X257116Y71246D01*
Y77298D01*
X259751Y79933D01*
D74*
X30500Y20661D02*
Y27100D01*
X37226Y13400D02*
X54500D01*
X30500Y20661D02*
X37226Y13400D01*
X54500D02*
X57305Y10595D01*
Y9146D02*
Y10595D01*
Y9146D02*
X57425Y9026D01*
X59000D01*
D75*
X256000Y50000D02*
D03*
Y149343D02*
D03*
Y89815D02*
D03*
Y109500D02*
D03*
X19500Y34657D02*
D03*
D76*
X256000Y30315D02*
D03*
Y129657D02*
D03*
Y70130D02*
D03*
X19500Y54343D02*
D03*
D77*
X27500Y148500D02*
D03*
X37500D02*
D03*
X47500D02*
D03*
X57500D02*
D03*
X217657D02*
D03*
X207658D02*
D03*
X197658D02*
D03*
D78*
X61000Y79500D02*
D03*
Y89500D02*
D03*
X71000Y84500D02*
D03*
X61000Y99500D02*
D03*
Y109500D02*
D03*
Y119500D02*
D03*
X71000Y94500D02*
D03*
Y114500D02*
D03*
Y124500D02*
D03*
D79*
X90016Y80484D02*
D03*
X90016Y90484D02*
D03*
X90016Y113516D02*
D03*
Y123516D02*
D03*
D80*
X48008Y133496D02*
D03*
Y70504D02*
D03*
D81*
X162000Y41000D02*
D03*
Y49000D02*
D03*
X142000Y45000D02*
D03*
D82*
X83508Y22457D02*
D03*
X49492D02*
D03*
D83*
X83508Y6000D02*
D03*
X49492D02*
D03*
D84*
X213240Y77477D02*
D03*
X211272Y73540D02*
D03*
X207335Y81414D02*
D03*
X209303Y77477D02*
D03*
X207335Y73540D02*
D03*
X209303Y69603D02*
D03*
X205366Y85351D02*
D03*
X203398Y81414D02*
D03*
X205366Y77477D02*
D03*
X203398Y73540D02*
D03*
X205366Y69603D02*
D03*
X203398Y65665D02*
D03*
X199461Y89288D02*
D03*
X201429Y85351D02*
D03*
X199461Y81414D02*
D03*
X201429Y77477D02*
D03*
X199461Y73540D02*
D03*
X201429Y69603D02*
D03*
X199461Y65665D02*
D03*
X201429Y61728D02*
D03*
X197492Y85351D02*
D03*
X195524Y81414D02*
D03*
X197492Y77477D02*
D03*
X195524Y73540D02*
D03*
X197492Y69603D02*
D03*
X195524Y65665D02*
D03*
X197492Y61728D02*
D03*
X193555Y85351D02*
D03*
X191587Y81414D02*
D03*
X193555Y77477D02*
D03*
X191587Y73540D02*
D03*
X193555Y69603D02*
D03*
X189618Y77477D02*
D03*
X187650Y73540D02*
D03*
X189618Y69603D02*
D03*
X185681Y77477D02*
D03*
X144343Y97162D02*
D03*
X142374Y101099D02*
D03*
X140406Y97162D02*
D03*
X142374Y93225D02*
D03*
X136469Y105035D02*
D03*
X138437Y101099D02*
D03*
X136469Y97162D02*
D03*
X138437Y93225D02*
D03*
X136469Y89288D02*
D03*
X134500Y108973D02*
D03*
X132532Y105035D02*
D03*
X134500Y101099D02*
D03*
X132532Y97162D02*
D03*
X134500Y93225D02*
D03*
X132532Y89288D02*
D03*
X134500Y85351D02*
D03*
X130563Y108973D02*
D03*
X128595Y105035D02*
D03*
X130563Y101099D02*
D03*
X128595Y97162D02*
D03*
X130563Y93225D02*
D03*
X128595Y89288D02*
D03*
X130563Y85351D02*
D03*
X126626Y108973D02*
D03*
X124658Y105035D02*
D03*
X126626Y101099D02*
D03*
X124658Y97162D02*
D03*
X126626Y93225D02*
D03*
X124658Y89288D02*
D03*
X126626Y85351D02*
D03*
X122689Y101099D02*
D03*
X120721Y97162D02*
D03*
X122689Y93225D02*
D03*
X118752Y101099D02*
D03*
X116784Y97162D02*
D03*
X118752Y93225D02*
D03*
X55760Y61728D02*
D03*
X53791Y57791D02*
D03*
X51823Y61728D02*
D03*
X113500Y16300D02*
D03*
X118400Y17200D02*
D03*
X33500Y3800D02*
D03*
X227700Y96300D02*
D03*
X186600Y29900D02*
D03*
X142500Y22464D02*
D03*
X134900Y24700D02*
D03*
X80100Y97500D02*
D03*
X81800Y94000D02*
D03*
X176000Y95000D02*
D03*
X131500Y62057D02*
D03*
X167500Y90000D02*
D03*
X171000Y92500D02*
D03*
X109800Y110000D02*
D03*
X135800Y62100D02*
D03*
X163500Y87000D02*
D03*
X65500Y21000D02*
D03*
X128300Y66400D02*
D03*
X170600Y150000D02*
D03*
X194735Y132565D02*
D03*
X194502Y138100D02*
D03*
X183500Y150000D02*
D03*
X177000D02*
D03*
X191200Y111300D02*
D03*
X168050Y99950D02*
D03*
X227400Y71319D02*
D03*
X232700Y65637D02*
D03*
X234449Y110500D02*
D03*
X229000Y112500D02*
D03*
X206800Y2700D02*
D03*
X206900Y7700D02*
D03*
X196700Y1900D02*
D03*
X187000Y12500D02*
D03*
X190000Y18100D02*
D03*
X182600Y17800D02*
D03*
X206500Y27600D02*
D03*
X231800Y18300D02*
D03*
X207100Y15800D02*
D03*
X217000Y28900D02*
D03*
X225800Y27900D02*
D03*
X226800Y34800D02*
D03*
X196700Y9300D02*
D03*
Y15700D02*
D03*
X197200Y33400D02*
D03*
X222793Y61600D02*
D03*
X200800Y46300D02*
D03*
X182500Y47900D02*
D03*
X178500Y43500D02*
D03*
X175600Y40800D02*
D03*
X172900Y48100D02*
D03*
X237300Y19300D02*
D03*
X230600Y40300D02*
D03*
X215500Y98600D02*
D03*
X201900Y17500D02*
D03*
X184543Y95300D02*
D03*
X164100Y63500D02*
D03*
X173500Y68700D02*
D03*
X174000Y54800D02*
D03*
X162200Y45200D02*
D03*
X157000Y37500D02*
D03*
X215800Y137100D02*
D03*
X157400Y58400D02*
D03*
X142500Y33900D02*
D03*
X154450Y54900D02*
D03*
X160500Y62800D02*
D03*
X133100Y52600D02*
D03*
X130300Y58500D02*
D03*
X116500Y58000D02*
D03*
X83100Y107600D02*
D03*
X99000Y89000D02*
D03*
X98500Y83400D02*
D03*
X99200Y79500D02*
D03*
X109800Y70000D02*
D03*
X99600Y99400D02*
D03*
X102300Y114300D02*
D03*
X105500Y117300D02*
D03*
X196000Y117500D02*
D03*
X212000Y117400D02*
D03*
X219000Y107000D02*
D03*
X96600Y136200D02*
D03*
X104200Y128600D02*
D03*
X144000Y72300D02*
D03*
X164700Y130200D02*
D03*
X167200Y125300D02*
D03*
X177000Y124500D02*
D03*
X115400Y26100D02*
D03*
X112500Y121500D02*
D03*
X120300Y22000D02*
D03*
X115600Y22300D02*
D03*
X178400Y18600D02*
D03*
X196800Y46400D02*
D03*
X197049Y104900D02*
D03*
X206600Y105900D02*
D03*
X162000Y73000D02*
D03*
X160600Y83400D02*
D03*
X175600Y82900D02*
D03*
X224400Y38600D02*
D03*
X142100Y37600D02*
D03*
X137000Y43000D02*
D03*
X192500Y103100D02*
D03*
X67500Y31500D02*
D03*
X181500Y122000D02*
D03*
X172400Y100700D02*
D03*
X212400Y112400D02*
D03*
X205000Y133500D02*
D03*
X196000Y112500D02*
D03*
X166000Y108500D02*
D03*
X101000Y107500D02*
D03*
X101500Y93500D02*
D03*
X124500Y67500D02*
D03*
X180900Y100200D02*
D03*
X139000Y64000D02*
D03*
X140500Y67500D02*
D03*
X176900Y100200D02*
D03*
X112000Y67000D02*
D03*
X117130Y125500D02*
D03*
D85*
X30500Y27100D02*
D03*
X63864Y15700D02*
D03*
X69000D02*
D03*
X53700Y32000D02*
D03*
X82000D02*
D03*
D86*
X102000Y10500D02*
D03*
D87*
X269200Y76193D02*
D03*
X259751Y79933D02*
D03*
X269200Y83674D02*
D03*
Y37260D02*
D03*
X259751Y41000D02*
D03*
X269200Y44740D02*
D03*
Y56726D02*
D03*
X259751Y60467D02*
D03*
X269200Y64207D02*
D03*
Y95660D02*
D03*
X259751Y99400D02*
D03*
X269200Y103140D02*
D03*
D88*
X241850Y9055D02*
D03*
X231850D02*
D03*
X241850Y30315D02*
D03*
X231850D02*
D03*
X221850Y9055D02*
D03*
Y30315D02*
D03*
X211850Y9055D02*
D03*
Y30315D02*
D03*
X201850Y9055D02*
D03*
Y30315D02*
D03*
X191850Y9055D02*
D03*
Y30315D02*
D03*
X181850Y9055D02*
D03*
Y30315D02*
D03*
X171850Y9055D02*
D03*
Y30315D02*
D03*
X161850Y9055D02*
D03*
Y30315D02*
D03*
X151850D02*
D03*
Y9055D02*
D03*
M02*
