G04*
G04 #@! TF.GenerationSoftware,Altium Limited,Altium Designer,19.1.8 (144)*
G04*
G04 Layer_Physical_Order=1*
G04 Layer_Color=255*
%FSLAX25Y25*%
%MOIN*%
G70*
G01*
G75*
%ADD15C,0.00600*%
%ADD16C,0.01000*%
%ADD18C,0.00800*%
%ADD51R,0.03543X0.02362*%
%ADD52R,0.06299X0.10236*%
%ADD53R,0.03347X0.03347*%
%ADD54R,0.03347X0.03347*%
%ADD55R,0.02362X0.03543*%
%ADD56R,0.06693X0.09843*%
%ADD57P,0.04733X4X90.0*%
%ADD58O,0.07480X0.02362*%
G04:AMPARAMS|DCode=59|XSize=11mil|YSize=58mil|CornerRadius=0mil|HoleSize=0mil|Usage=FLASHONLY|Rotation=45.000|XOffset=0mil|YOffset=0mil|HoleType=Round|Shape=Rectangle|*
%AMROTATEDRECTD59*
4,1,4,0.01662,-0.02439,-0.02439,0.01662,-0.01662,0.02439,0.02439,-0.01662,0.01662,-0.02439,0.0*
%
%ADD59ROTATEDRECTD59*%

G04:AMPARAMS|DCode=60|XSize=11mil|YSize=58mil|CornerRadius=0mil|HoleSize=0mil|Usage=FLASHONLY|Rotation=315.000|XOffset=0mil|YOffset=0mil|HoleType=Round|Shape=Rectangle|*
%AMROTATEDRECTD60*
4,1,4,-0.02439,-0.01662,0.01662,0.02439,0.02439,0.01662,-0.01662,-0.02439,-0.02439,-0.01662,0.0*
%
%ADD60ROTATEDRECTD60*%

%ADD61R,0.03937X0.02953*%
%ADD62R,0.03150X0.03150*%
%ADD63C,0.03100*%
G04:AMPARAMS|DCode=64|XSize=66.93mil|YSize=94.49mil|CornerRadius=0mil|HoleSize=0mil|Usage=FLASHONLY|Rotation=45.000|XOffset=0mil|YOffset=0mil|HoleType=Round|Shape=Rectangle|*
%AMROTATEDRECTD64*
4,1,4,0.00974,-0.05707,-0.05707,0.00974,-0.00974,0.05707,0.05707,-0.00974,0.00974,-0.05707,0.0*
%
%ADD64ROTATEDRECTD64*%

%ADD65R,0.09843X0.06693*%
%ADD66R,0.01181X0.05709*%
%ADD67R,0.02362X0.05709*%
%ADD68P,0.04733X4X180.0*%
%ADD69R,0.08661X0.06299*%
G04:AMPARAMS|DCode=70|XSize=55.12mil|YSize=47.24mil|CornerRadius=0mil|HoleSize=0mil|Usage=FLASHONLY|Rotation=225.000|XOffset=0mil|YOffset=0mil|HoleType=Round|Shape=Rectangle|*
%AMROTATEDRECTD70*
4,1,4,0.00278,0.03619,0.03619,0.00278,-0.00278,-0.03619,-0.03619,-0.00278,0.00278,0.03619,0.0*
%
%ADD70ROTATEDRECTD70*%

%ADD71R,0.04000X0.06000*%
%ADD72C,0.02000*%
%ADD73C,0.05000*%
%ADD74C,0.06000*%
%ADD75C,0.07677*%
%ADD76R,0.07677X0.07677*%
%ADD77O,0.05000X0.10000*%
%ADD78C,0.08000*%
%ADD79C,0.07874*%
%ADD80C,0.13386*%
%ADD81C,0.03400*%
%ADD82O,0.03937X0.08268*%
%ADD83O,0.03937X0.06299*%
%ADD84C,0.02362*%
%ADD85C,0.03937*%
%ADD86C,0.03150*%
G36*
X134455Y116021D02*
X131697Y113263D01*
X132439Y112521D01*
X132722Y112804D01*
X133571Y111955D01*
X133783Y111743D01*
X134985Y110541D01*
X135197Y110329D01*
X136329Y109198D01*
X136611Y108915D01*
X137743Y107783D01*
X137955Y107571D01*
X139157Y106369D01*
X139369Y106157D01*
X140571Y104955D01*
X140783Y104743D01*
X141915Y103611D01*
X142198Y103329D01*
X143329Y102197D01*
X143541Y101985D01*
X144743Y100783D01*
X144955Y100571D01*
X146087Y99440D01*
X146370Y99157D01*
X147300Y98226D01*
Y95774D01*
X146370Y94843D01*
Y94843D01*
X144743Y93217D01*
X144743D01*
X143329Y91803D01*
X142198Y90671D01*
X142198D01*
X140571Y89045D01*
Y89045D01*
X139157Y87631D01*
X138238Y86712D01*
X137955Y86994D01*
X137213Y86252D01*
X139970Y83494D01*
X139263Y82787D01*
X136505Y85545D01*
X135763Y84802D01*
X136046Y84520D01*
X134985Y83459D01*
X133783Y82257D01*
Y82257D01*
X132157Y80630D01*
X132157D01*
X131226Y79700D01*
X128774D01*
X127843Y80630D01*
X127843D01*
X126217Y82257D01*
Y82257D01*
X124803Y83671D01*
X123671Y84802D01*
Y84802D01*
X122540Y85934D01*
X122823Y86217D01*
X122080Y86959D01*
X119323Y84201D01*
X118616Y84908D01*
X121373Y87666D01*
X120631Y88409D01*
X120348Y88126D01*
X119429Y89045D01*
Y89045D01*
X118368Y90106D01*
X118651Y90389D01*
X117909Y91131D01*
X115151Y88373D01*
X114444Y89080D01*
X117201Y91838D01*
X116459Y92581D01*
X116176Y92298D01*
X115540Y92934D01*
X115823Y93217D01*
X115080Y93959D01*
X112322Y91202D01*
X111615Y91909D01*
X114373Y94666D01*
X113630Y95409D01*
X113348Y95126D01*
X112700Y95774D01*
X112700Y98226D01*
X113630Y99157D01*
X115045Y100571D01*
X116176Y101702D01*
X116459Y101419D01*
X117201Y102162D01*
X114444Y104920D01*
X115151Y105627D01*
X117909Y102869D01*
X118651Y103611D01*
X118368Y103894D01*
X119217Y104743D01*
X120631Y106157D01*
X122045Y107571D01*
X123389Y108915D01*
X124520Y110046D01*
X124803Y109763D01*
X125545Y110506D01*
X122787Y113263D01*
X123495Y113971D01*
X126252Y111213D01*
X126995Y111955D01*
X126712Y112238D01*
X127560Y113087D01*
X128774Y114300D01*
X130660D01*
X130990Y113971D01*
X133748Y116728D01*
X134455Y116021D01*
D02*
G37*
G36*
X275591Y107191D02*
X272700Y104300D01*
X251300Y104300D01*
X248900Y106700D01*
X248900Y112500D01*
X262600Y126200D01*
Y151400D01*
X248900Y165100D01*
X209300D01*
X203500Y159300D01*
X23800D01*
X23700Y159400D01*
X19500Y155200D01*
Y80200D01*
X33200Y66500D01*
Y44900D01*
X3100D01*
X2800Y45200D01*
X2100Y44700D01*
X0Y46800D01*
Y180400D01*
Y181102D01*
X275591D01*
X275591Y107191D01*
D02*
G37*
G36*
X171000Y109500D02*
X169000Y109500D01*
X165500Y106000D01*
X165500Y103000D01*
X161500D01*
Y113500D01*
X171000D01*
Y109500D01*
D02*
G37*
G36*
X205298Y93678D02*
X202541Y90920D01*
X203283Y90178D01*
X203566Y90460D01*
X204485Y89541D01*
X204697Y89329D01*
X205829Y88198D01*
D01*
X207455Y86571D01*
X207455Y86571D01*
X208657Y85369D01*
X208869Y85157D01*
X210071Y83955D01*
D01*
X211698Y82329D01*
X211698Y82329D01*
X212829Y81197D01*
X213041Y80985D01*
X214243Y79783D01*
X214243Y79783D01*
X215869Y78157D01*
D01*
X216800Y77226D01*
Y76418D01*
X215600D01*
X215249Y76348D01*
X214951Y76149D01*
X212751Y73949D01*
X212552Y73651D01*
X212482Y73300D01*
Y71858D01*
X212552Y71507D01*
X212751Y71209D01*
X212993Y70967D01*
X212829Y70803D01*
X211980Y69954D01*
X211698Y70237D01*
X210955Y69495D01*
X213713Y66737D01*
X213006Y66030D01*
X210248Y68787D01*
X209506Y68045D01*
X209788Y67762D01*
X208657Y66631D01*
X207455Y65429D01*
X207455Y65429D01*
X205829Y63802D01*
D01*
X204485Y62459D01*
X203283Y61257D01*
D01*
X201657Y59631D01*
X201657Y59631D01*
X200826Y58800D01*
X198174D01*
X197626Y59348D01*
X197909Y59631D01*
X197167Y60373D01*
X194409Y57615D01*
X193702Y58322D01*
X196459Y61080D01*
X195717Y61822D01*
X195434Y61540D01*
X194303Y62671D01*
X193171Y63802D01*
D01*
X191545Y65429D01*
X191545Y65429D01*
X190131Y66843D01*
X188929Y68045D01*
D01*
X187302Y69671D01*
X187302Y69671D01*
X185959Y71015D01*
X184757Y72217D01*
X184757Y72217D01*
X183131Y73843D01*
D01*
X182200Y74774D01*
Y77226D01*
X182848Y77874D01*
X183131Y77591D01*
X183873Y78333D01*
X181115Y81091D01*
X181822Y81798D01*
X184580Y79040D01*
X185322Y79783D01*
X185040Y80066D01*
X185959Y80985D01*
X187302Y82329D01*
X187302Y82329D01*
X188929Y83955D01*
D01*
X190131Y85157D01*
X191545Y86571D01*
X191545Y86571D01*
X193171Y88198D01*
D01*
X194303Y89329D01*
X195717Y90743D01*
D01*
X197343Y92370D01*
X197343Y92370D01*
X198374Y93400D01*
X200626D01*
X201374Y92652D01*
X201091Y92370D01*
X201834Y91627D01*
X204591Y94385D01*
X205298Y93678D01*
D02*
G37*
G36*
X105500Y58000D02*
X96500D01*
X89233Y50733D01*
X74508D01*
X73000Y52241D01*
Y67000D01*
X105500D01*
Y58000D01*
D02*
G37*
G36*
X69000Y68000D02*
Y60500D01*
X67000Y58500D01*
X65000D01*
X64000Y57500D01*
X64000Y55000D01*
X62500Y53500D01*
X53500Y53500D01*
X50500Y50500D01*
X43500D01*
X42500Y51500D01*
X42500Y61000D01*
X44500Y63000D01*
X52500D01*
X58500Y69000D01*
X68000D01*
X69000Y68000D01*
D02*
G37*
G36*
X82500Y49500D02*
Y45500D01*
X82000Y45000D01*
X78500D01*
X77000Y43500D01*
X73500D01*
X72500Y44500D01*
X72500Y48500D01*
X74000Y50000D01*
X82000D01*
X82500Y49500D01*
D02*
G37*
G36*
X71900Y43800D02*
X72700Y43000D01*
X76500D01*
X77000Y42500D01*
X77000Y38000D01*
X76000Y37000D01*
X71000Y37000D01*
X69000Y39000D01*
X65000Y39000D01*
Y43000D01*
X69100D01*
Y48000D01*
X71900D01*
X71900Y43800D01*
D02*
G37*
G36*
X71800Y57500D02*
X71800Y49800D01*
X70700Y48700D01*
X60450Y48700D01*
X58000Y46250D01*
X58000Y41750D01*
Y36000D01*
X57000Y35000D01*
X51500D01*
X46800Y30300D01*
X40000Y30300D01*
X38500Y31800D01*
X38500Y44500D01*
X43500Y49500D01*
X51000Y49500D01*
X53800Y52300D01*
X68800D01*
X69250Y52750D01*
X69250Y57500D01*
X71800Y57500D01*
D02*
G37*
G36*
X112500Y40000D02*
Y25000D01*
X110000Y22500D01*
X104500D01*
X102000Y20000D01*
X90000D01*
X87500Y22500D01*
Y40000D01*
X90000Y42500D01*
X110000D01*
X112500Y40000D01*
D02*
G37*
D15*
X124343Y115031D02*
Y115314D01*
X221100Y60100D02*
X230600Y50600D01*
X153596Y7677D02*
X171423D01*
X143013Y77057D02*
X143257D01*
X112343Y73158D02*
Y74343D01*
X107109Y107109D02*
Y111491D01*
X105500Y117257D02*
X116141Y106617D01*
X145415Y88444D02*
Y88727D01*
X146723Y89823D02*
Y90247D01*
X148102Y91272D02*
Y91555D01*
X182161Y97581D02*
X184643Y95100D01*
X132308Y1400D02*
X180047D01*
X180547Y1900D01*
X130827Y2881D02*
X132308Y1400D01*
X179550Y2600D02*
X180926Y3976D01*
X133088Y2600D02*
X179550D01*
X132227Y3461D02*
X133088Y2600D01*
X228000Y96300D02*
X248300Y76000D01*
X227700Y96300D02*
X228000D01*
X173824Y5276D02*
X188794D01*
X171423Y7677D02*
X173824Y5276D01*
X152000Y9273D02*
X153596Y7677D01*
X152000Y9273D02*
Y11200D01*
Y42500D01*
X140551Y11200D02*
X152000D01*
X134900Y5549D02*
X140551Y11200D01*
X157466Y95000D02*
X176000D01*
X148102Y91272D02*
X150215Y89159D01*
X148031Y91555D02*
X148102D01*
X148987Y87559D02*
X152288D01*
X146617Y90141D02*
X146723Y90247D01*
X157500Y87000D02*
X163500D01*
X154859Y84359D02*
X157500Y87000D01*
X110700Y106542D02*
X113383Y103859D01*
X138273Y81542D02*
Y81797D01*
X137700Y65700D02*
Y69197D01*
X84091Y94000D02*
X98600Y108509D01*
Y114043D01*
X151625Y89159D02*
X157466Y95000D01*
X104357Y119800D02*
X107700D01*
X109800Y109667D02*
Y110000D01*
X152951Y85959D02*
X156991Y90000D01*
X115181Y113234D02*
X118969Y109445D01*
X133000Y76524D02*
X134101Y77625D01*
X139500Y77000D02*
Y77742D01*
X116809Y114434D02*
X120383Y110859D01*
X98600Y114043D02*
X104357Y119800D01*
X131500Y62057D02*
X131722Y62278D01*
X97400Y114540D02*
X104160Y121300D01*
X131722Y62278D02*
X136500Y67057D01*
X145203Y88727D02*
X145415D01*
X133000Y72200D02*
X136500Y68700D01*
X135800Y63800D02*
X137700Y65700D01*
X146883Y84359D02*
X154859D01*
X135200Y71697D02*
Y72700D01*
X109800Y109667D02*
X110700Y108767D01*
X156991Y90000D02*
X167500D01*
X136500Y67057D02*
Y68700D01*
X157229Y92500D02*
X171000D01*
X146723Y89823D02*
X148987Y87559D01*
X107700Y119800D02*
X114266Y113234D01*
X147900Y85959D02*
X152951D01*
X80100Y97500D02*
X85894D01*
X135200Y72700D02*
X139500Y77000D01*
X108200Y121300D02*
X115066Y114434D01*
X110700Y106542D02*
Y108767D01*
X131722Y62278D02*
X131722D01*
X145415Y88444D02*
X147900Y85959D01*
X133000Y72200D02*
Y76524D01*
X135800Y62100D02*
Y63800D01*
X143859Y87383D02*
X146883Y84359D01*
X85894Y97500D02*
X97400Y109006D01*
X115066Y114434D02*
X116809D01*
X135200Y71697D02*
X137700Y69197D01*
X97400Y109006D02*
Y114540D01*
X152288Y87559D02*
X157229Y92500D01*
X104160Y121300D02*
X108200D01*
X150215Y89159D02*
X151625D01*
X81800Y94000D02*
X84091D01*
X136859Y80383D02*
X139500Y77742D01*
X114266Y113234D02*
X115181D01*
X174800Y106700D02*
X183730D01*
X168050Y99950D02*
X174800Y106700D01*
X168050Y99950D02*
X168050D01*
X154057Y97581D02*
X182161D01*
X195838Y3981D02*
X205519D01*
X206800Y2700D01*
X206900Y7700D02*
X210077D01*
X210100Y7677D01*
X206140Y5301D02*
X223301D01*
X206060Y5381D02*
X206140Y5301D01*
X188900Y5381D02*
X206060D01*
X223301Y5301D02*
X237300Y19300D01*
X180926Y3976D02*
X195833D01*
X195838Y3981D01*
X188794Y5276D02*
X188900Y5381D01*
X180547Y1900D02*
X196600D01*
X130827Y2881D02*
Y8724D01*
X128000Y11551D02*
X130827Y8724D01*
X132227Y8978D02*
X134900Y11651D01*
X132227Y3461D02*
Y8978D01*
X248300Y34800D02*
Y76000D01*
X196900Y25000D02*
X217350D01*
X190000Y18100D02*
X196900Y25000D01*
X217350D02*
X223850Y31500D01*
X231800Y18300D02*
X248300Y34800D01*
X225800Y27900D02*
X228362D01*
X231400Y34800D02*
X237500Y40900D01*
X226800Y34800D02*
X231400D01*
X228362Y27900D02*
X240100Y39639D01*
X230600Y40300D02*
Y50600D01*
X237500Y40900D02*
Y50534D01*
X217531Y70503D02*
X237500Y50534D01*
X217531Y70503D02*
Y70555D01*
X213400Y73300D02*
X215600Y75500D01*
X213400Y71858D02*
Y73300D01*
Y71858D02*
X216117Y69141D01*
X215600Y75500D02*
X231838D01*
X240100Y39639D02*
Y67238D01*
X231838Y75500D02*
X240100Y67238D01*
X216117Y69141D02*
X216471D01*
X215500Y96243D02*
Y98600D01*
X209117Y89859D02*
X215500Y96243D01*
X143257Y76842D02*
X145400Y74700D01*
X143257Y76842D02*
Y76858D01*
X138273Y81797D02*
X143013Y77057D01*
X102222Y126622D02*
X104200Y128600D01*
X100622Y126622D02*
X102222D01*
X100000Y126000D02*
X100622Y126622D01*
X182542Y100200D02*
X191056Y91686D01*
X182658Y102700D02*
X192541Y92817D01*
X184543Y95300D02*
X189783Y90059D01*
X183486Y104700D02*
X193955Y94231D01*
X87197Y100500D02*
X96200Y109503D01*
X99100Y83400D02*
X100915D01*
X98500D02*
X99100D01*
X104500Y78000D01*
X100915Y83400D02*
X104315Y80000D01*
X107700Y65300D02*
Y74700D01*
X109800Y70000D02*
Y71615D01*
X107700Y65300D02*
X110000Y63000D01*
X107700Y74700D02*
X113100Y80100D01*
X109800Y71615D02*
X111843Y73658D01*
X104300Y114300D02*
X107109Y111491D01*
X102300Y114300D02*
X104300D01*
X105500Y117257D02*
Y117300D01*
X96200Y115037D02*
X108744Y127581D01*
X95000Y115534D02*
X108247Y128781D01*
X96200Y109503D02*
Y115037D01*
X108744Y127581D02*
X119722D01*
X95000Y110000D02*
Y115534D01*
X108247Y128781D02*
X120219D01*
X211945Y87031D02*
X224000Y99086D01*
X107109Y107109D02*
X107158Y107158D01*
X145400Y73700D02*
Y74700D01*
X144000Y72300D02*
X145400Y73700D01*
X120219Y128781D02*
X124700Y124300D01*
X119722Y127581D02*
X123500Y123803D01*
X112500Y121500D02*
X115500Y118500D01*
X216814Y60100D02*
X221100D01*
X211945Y64969D02*
X216814Y60100D01*
X224000Y99086D02*
Y100949D01*
X231000D01*
X191056Y91403D02*
Y91686D01*
X172400Y100700D02*
X172900D01*
X176900Y104700D01*
X183730Y106700D02*
X194855Y95575D01*
X195299D01*
X149375Y92899D02*
X154057Y97581D01*
X124343Y115031D02*
X124555D01*
X121727Y112203D02*
Y112273D01*
X111898Y102445D02*
X111969D01*
X107185Y107158D02*
X111898Y102445D01*
X107158Y107158D02*
X107185D01*
X115500Y118500D02*
X121727Y112273D01*
X109084Y85843D02*
X113383Y90141D01*
X108658Y85843D02*
X109084D01*
X121500Y75000D02*
Y75914D01*
X124555Y78969D01*
X121500Y75000D02*
X123843Y72658D01*
X128342D01*
X118430Y78500D02*
X121727Y81797D01*
X116500Y78500D02*
X118430D01*
X112343Y74343D02*
X116500Y78500D01*
X117416Y74657D02*
X123141Y80383D01*
X117342Y74657D02*
X117416D01*
X117343Y80100D02*
X120383Y83141D01*
X104500Y76051D02*
Y78000D01*
X104315Y80000D02*
X106158Y81842D01*
X108658Y85158D02*
Y85843D01*
X106158Y82657D02*
X108658Y85158D01*
X106158Y81842D02*
Y82657D01*
X142445Y85969D02*
X152125Y76290D01*
Y75625D02*
Y76290D01*
X132949Y43000D02*
X133000Y42949D01*
X191056Y91403D02*
X191127D01*
X176900Y104700D02*
X183486D01*
X179400Y102700D02*
X182658D01*
X180900Y100200D02*
X182542D01*
X176900D02*
X179400Y102700D01*
X110000Y63000D02*
X118449D01*
X106158Y81842D02*
X110600D01*
X116141Y87383D01*
X113100Y80100D02*
X117343D01*
X61000Y79500D02*
X65900Y84400D01*
Y96900D01*
X69500Y100500D01*
X87197D01*
X122500Y117157D02*
X124343Y115314D01*
X122500Y117157D02*
Y120500D01*
X123500Y121500D01*
Y123803D01*
X124000Y118273D02*
X125899Y116375D01*
X55500Y95000D02*
X61000Y89500D01*
X55500Y95000D02*
Y101500D01*
X58500Y104500D01*
X89500D01*
X95000Y110000D01*
X124700Y121003D02*
Y124300D01*
X124000Y120303D02*
X124700Y121003D01*
X124000Y118273D02*
Y120303D01*
D16*
X109500Y5449D02*
X115402D01*
X111851Y17949D02*
X113500Y16300D01*
X118400Y17200D02*
X121500Y14100D01*
X115500Y14300D02*
X118400Y17200D01*
X142500Y22464D02*
X146860D01*
X147119Y22723D01*
X142300Y22664D02*
X142500Y22464D01*
X147119Y22723D02*
X147378Y22464D01*
X138500Y23900D02*
Y28000D01*
X136600Y22000D02*
X138500Y23900D01*
X120300Y22000D02*
X136600D01*
X38900Y10851D02*
Y16913D01*
X36749Y8700D02*
X38900Y10851D01*
Y16913D02*
X41656Y19669D01*
Y20259D01*
X42337Y20940D01*
X42928D01*
X227400Y71300D02*
Y71319D01*
X224257Y68158D02*
X227400Y71300D01*
X229457Y62357D02*
X232700Y65600D01*
Y65637D01*
X200800Y46300D02*
Y48600D01*
X202800Y50600D01*
X90000Y146551D02*
X148349D01*
X164700Y130200D01*
X173500Y68700D02*
X175300Y70500D01*
Y72998D01*
X61000Y79000D02*
Y79500D01*
X71000Y94500D02*
Y95000D01*
X83100Y107600D02*
Y140349D01*
X83000Y140449D02*
X83100Y140349D01*
X99600Y99400D02*
Y99600D01*
X102842Y102842D01*
X99600Y99400D02*
Y100000D01*
X99861Y100261D01*
X196000Y117500D02*
X203248D01*
X216000Y103200D02*
Y113400D01*
X212000Y117400D02*
X216000Y113400D01*
Y103200D02*
X218300Y100900D01*
Y96214D02*
Y100900D01*
X210531Y88445D02*
X218300Y96214D01*
X167200Y125300D02*
X167209Y125309D01*
X169360D01*
X170500Y126449D01*
X108000Y17949D02*
X111851D01*
X117800Y24500D02*
X128051D01*
X115600Y22300D02*
X117800Y24500D01*
X83000Y146551D02*
X90000D01*
X178400Y13951D02*
Y18600D01*
X223657Y67558D02*
X224257Y68158D01*
X197049Y104900D02*
X200349Y101600D01*
X222942Y43543D02*
X224400Y42085D01*
Y38600D02*
Y42085D01*
X220800Y38600D02*
X224400D01*
X219400Y40000D02*
X220800Y38600D01*
X223557Y67558D02*
X223657D01*
X115500Y11650D02*
Y14300D01*
X121500Y11650D02*
Y14100D01*
X128051Y24500D02*
X131500Y27949D01*
X186551Y111500D02*
X190400D01*
X67051Y35500D02*
X91500D01*
X94000Y33000D01*
X105876Y15176D02*
X109500Y11551D01*
X105871Y15176D02*
X105876D01*
X105227Y15820D02*
X105871Y15176D01*
X105227Y15820D02*
Y15824D01*
X104000Y17051D02*
X105227Y15824D01*
X104000Y17051D02*
Y20500D01*
X63472Y45972D02*
X66760D01*
X60949Y43449D02*
X63472Y45972D01*
X60949Y41000D02*
Y43449D01*
X115402Y5449D02*
X115500Y5350D01*
X121500D02*
X127902D01*
X128000Y5449D01*
X95500Y26587D02*
X97913D01*
X104000Y20500D01*
X183500Y132500D02*
Y137449D01*
X147658Y57342D02*
Y59658D01*
X151875Y63876D01*
X153267Y78582D02*
X156342Y81657D01*
X153267Y74733D02*
Y78582D01*
X60949Y35500D02*
Y41000D01*
D18*
X139652Y110824D02*
X151828Y123000D01*
X142516Y108031D02*
Y108172D01*
X190000Y143551D02*
X193449D01*
X172051Y115000D02*
X175551Y111500D01*
X150837Y105250D02*
X157699D01*
X206500Y98344D02*
Y105800D01*
X107100Y27300D02*
X114700Y19700D01*
X204845Y58169D02*
X208100Y54914D01*
X196600Y1900D02*
X196700Y2000D01*
X182600Y47900D02*
Y63343D01*
X178400Y7800D02*
X186478Y15878D01*
X33500Y3800D02*
X36349D01*
X36749Y4200D01*
X175300Y79100D02*
X179124D01*
X154243Y117000D02*
X185878D01*
X143859Y106617D02*
X154243Y117000D01*
X186081Y30842D02*
Y61200D01*
Y30842D02*
X186600Y30323D01*
Y29900D02*
Y30323D01*
X184681Y42981D02*
Y62595D01*
X182600Y40900D02*
X184681Y42981D01*
X190400Y35700D02*
Y57100D01*
X192641Y59341D01*
Y59383D01*
X188881Y34019D02*
X188900Y34038D01*
Y58500D01*
X191197Y60797D01*
X191227D01*
X187481Y33219D02*
Y59633D01*
X189883Y62035D01*
Y62141D01*
X186081Y61200D02*
X188436Y63555D01*
X188469D01*
X184681Y62595D02*
X187055Y64969D01*
X134900Y24700D02*
Y32900D01*
X133905Y33895D02*
X134900Y32900D01*
X170500Y80996D02*
X175084Y85580D01*
X180162D01*
X182883Y82859D01*
X149375Y101101D02*
X149410D01*
X63547Y22953D02*
X65500Y21000D01*
X67484Y22984D01*
Y26059D01*
X63547Y22953D02*
Y26059D01*
X42851Y13384D02*
X42928Y13460D01*
X42851Y8700D02*
Y13384D01*
Y4200D02*
Y8700D01*
X128300Y66400D02*
X130715D01*
X132658Y68343D01*
X190014Y132565D02*
X194735D01*
X190000Y132551D02*
X190014Y132565D01*
X170600Y143651D02*
Y150000D01*
X170500Y143551D02*
X170600Y143651D01*
X193801Y138100D02*
X194502D01*
X194152Y137749D02*
X194502Y138100D01*
X193449Y143551D02*
X198200Y138800D01*
Y129323D02*
Y138800D01*
X185878Y117000D02*
X198200Y129323D01*
X193750Y138049D02*
X193801Y138100D01*
X190600Y138049D02*
X193750D01*
X190000Y137449D02*
X190600Y138049D01*
X190000D02*
X190600D01*
X183500Y143551D02*
Y150000D01*
X177000Y143551D02*
Y150000D01*
X172907Y108427D02*
X177376D01*
X164480Y100000D02*
X172907Y108427D01*
X231000Y107051D02*
X234449Y110500D01*
X244200Y37940D02*
Y70300D01*
X227900Y86600D02*
X244200Y70300D01*
X227257Y83900D02*
X242800Y68357D01*
X219987Y83900D02*
X227257D01*
X217531Y81445D02*
X219987Y83900D01*
X230677Y78500D02*
X241400Y67777D01*
X220476Y78500D02*
X230677D01*
X218875Y80101D02*
X220476Y78500D01*
X219858Y86600D02*
X227900D01*
X216117Y82859D02*
X219858Y86600D01*
X219530Y89100D02*
X228300D01*
X214703Y84273D02*
X219530Y89100D01*
X228300D02*
X245600Y71800D01*
Y37360D02*
Y71800D01*
X219943Y92200D02*
X229000D01*
X247000Y36780D02*
Y74200D01*
X229000Y92200D02*
X247000Y74200D01*
X213359Y85617D02*
X219943Y92200D01*
X195800Y19700D02*
X222000D01*
X188684Y12584D02*
X195800Y19700D01*
X187084Y12584D02*
X188684D01*
X187000Y12500D02*
X187084Y12584D01*
X182600Y17800D02*
Y40900D01*
X195300Y27600D02*
X206500D01*
X196100Y30000D02*
X215750D01*
X216850Y28900D01*
X188881Y34019D02*
X195300Y27600D01*
X223850Y31500D02*
X230000D01*
X222000Y19700D02*
X241400Y39100D01*
X222580Y18300D02*
X242800Y38520D01*
X222060Y15800D02*
X244200Y37940D01*
X221740Y13500D02*
X245600Y37360D01*
X220373Y10153D02*
X247000Y36780D01*
X203123Y18300D02*
X222580D01*
X242800Y38520D02*
Y68357D01*
X207100Y15800D02*
X222060D01*
X241400Y39100D02*
Y67777D01*
X199100Y13500D02*
X221740D01*
X197953Y10153D02*
X220373D01*
X196700Y15700D02*
X196900D01*
X201900Y17500D02*
X202323D01*
X196900Y15700D02*
X199100Y13500D01*
X202323Y17500D02*
X203123Y18300D01*
X190400Y35700D02*
X196100Y30000D01*
X216850Y28900D02*
X217000D01*
X186478Y15878D02*
Y22441D01*
X178400Y6800D02*
Y7800D01*
X230000Y31500D02*
X238800Y40300D01*
X196700Y9300D02*
X197100D01*
X197953Y10153D01*
X197200Y33400D02*
Y39615D01*
X238800Y40300D02*
Y66700D01*
X231300Y74200D02*
X238800Y66700D01*
X221176Y74200D02*
X231300D01*
X218875Y71899D02*
X221176Y74200D01*
X222185Y61600D02*
X222793D01*
X197200Y39615D02*
X208100Y50516D01*
Y54914D01*
X182600Y63343D02*
X185641Y66383D01*
X178500Y43500D02*
X180300Y45300D01*
X175600Y44700D02*
X178700Y47800D01*
X175600Y40800D02*
Y44700D01*
X180300Y45300D02*
Y63730D01*
X178700Y47800D02*
Y64958D01*
X187481Y33219D02*
X189200Y31500D01*
X172900Y48100D02*
X177300Y52500D01*
Y66386D01*
X140500Y67500D02*
Y70699D01*
X138943Y72257D02*
X140500Y70699D01*
X138943Y72257D02*
Y72543D01*
X177300Y66386D02*
X181469Y70555D01*
X167866Y51750D02*
X175500Y59385D01*
X170500Y56900D02*
Y80996D01*
X166750Y53150D02*
X170500Y56900D01*
X175500Y59385D02*
Y67273D01*
X154914Y51000D02*
X157064Y53150D01*
X157644Y51750D02*
X167866D01*
X157064Y53150D02*
X166750D01*
X178700Y64958D02*
X182883Y69141D01*
X180300Y63730D02*
X184297Y67727D01*
X189200Y24700D02*
Y31500D01*
X186941Y22441D02*
X189200Y24700D01*
X186478Y22441D02*
X186941D01*
X181070Y87500D02*
X184297Y84273D01*
X175024Y87500D02*
X181070D01*
X168800Y81276D02*
X175024Y87500D01*
X182057Y89200D02*
X185641Y85617D01*
X174744Y89200D02*
X182057D01*
X167400Y81856D02*
X174744Y89200D01*
X164181Y82597D02*
X174185Y92600D01*
X184414D01*
X188369Y88645D01*
X165581Y82017D02*
X174764Y91200D01*
X183056D01*
X164181Y68981D02*
Y82597D01*
X165581Y64981D02*
Y82017D01*
X167400Y62500D02*
Y81856D01*
X164100Y63500D02*
X165581Y64981D01*
X131656Y33895D02*
X133905D01*
X131500Y34051D02*
X131656Y33895D01*
X124500Y34051D02*
X131500D01*
X163300Y58400D02*
X167400Y62500D01*
X157400Y58400D02*
X163300D01*
X139773Y33900D02*
X142500D01*
X139268Y34406D02*
X139773Y33900D01*
X139268Y34406D02*
Y34870D01*
X138500Y34102D02*
X139035Y34638D01*
X154450Y54900D02*
X163100D01*
X150500Y51000D02*
X154914D01*
X147000Y47500D02*
X150500Y51000D01*
X168800Y60600D02*
Y81276D01*
X163100Y54900D02*
X168800Y60600D01*
X155494Y49600D02*
X157644Y51750D01*
X154100Y49600D02*
X155494D01*
X152000Y47500D02*
X154100Y49600D01*
X160500Y65300D02*
X164181Y68981D01*
X160500Y62800D02*
Y65300D01*
X133100Y49351D02*
Y52600D01*
X133000Y49251D02*
X133100Y49351D01*
X116500Y58000D02*
X120949D01*
X133000Y49251D02*
X133100Y49151D01*
X133000Y49051D02*
X133100Y49151D01*
X99000Y89000D02*
X101842Y86158D01*
X99200Y76251D02*
Y79500D01*
X99000Y76051D02*
X99200Y76251D01*
X207773Y91203D02*
X212400Y95830D01*
Y112400D01*
X219000Y107000D02*
X223949D01*
X209500Y95758D02*
Y126000D01*
X206359Y92617D02*
X209500Y95758D01*
X186884Y87231D02*
X186955D01*
X195549Y56475D02*
X196698Y55326D01*
X204766Y96610D02*
X206500Y98344D01*
X151828Y123000D02*
X172378D01*
X152586Y121000D02*
X176929D01*
X153543Y119200D02*
X182751D01*
X115400Y26100D02*
Y26200D01*
X117149Y27949D01*
X124500D01*
X114700Y19700D02*
X126851D01*
X186884Y87231D02*
Y87372D01*
X219942Y63842D02*
X222185Y61600D01*
X219243Y63243D02*
X219700Y63700D01*
X196698Y50600D02*
Y55326D01*
Y50600D02*
X196800Y50498D01*
Y46400D02*
Y50498D01*
X206500Y105800D02*
X206600Y105900D01*
X179124Y79100D02*
X180125Y80101D01*
X175300Y79100D02*
X175600Y79400D01*
Y82900D01*
X159000Y70000D02*
X162000Y73000D01*
X160600Y77400D02*
Y83400D01*
Y77400D02*
X160658Y77342D01*
X126851Y19700D02*
X134900Y11651D01*
X209750Y42650D02*
Y44750D01*
X212100Y47100D01*
Y59157D01*
X209117Y62141D02*
X212100Y59157D01*
X220050Y52950D02*
Y54036D01*
X210531Y63555D02*
X220050Y54036D01*
X222165Y52950D02*
X227257Y47857D01*
X220050Y52950D02*
X222165D01*
X209750Y41020D02*
X215085Y35685D01*
X209750Y41020D02*
Y42650D01*
X214758Y67727D02*
X219243Y63243D01*
X214703Y67727D02*
X214758D01*
X142100Y37600D02*
X147000Y42500D01*
X175500Y67273D02*
X180125Y71899D01*
X67500Y31500D02*
X69500Y29500D01*
X65516Y29516D02*
X67500Y31500D01*
X69453Y26059D02*
X69500Y26106D01*
Y29500D01*
X65516Y26059D02*
Y29516D01*
X182751Y119200D02*
X190000Y126449D01*
X223949Y107000D02*
X224000Y107051D01*
X183056Y91200D02*
X186884Y87372D01*
X196000Y112500D02*
X203248D01*
X208000Y127500D02*
X209500Y126000D01*
X203248Y127500D02*
X208000D01*
X170500Y132551D02*
Y137449D01*
X177000Y132500D02*
Y137449D01*
X142445Y108031D02*
X142516D01*
X162749Y124800D02*
X170500Y132551D01*
X176929Y121000D02*
X180073Y124144D01*
Y129073D01*
X183500Y132500D01*
X172378Y123000D02*
X173573Y124196D01*
Y129073D01*
X177000Y132500D01*
X142516Y108172D02*
X153543Y119200D01*
X141031Y109445D02*
X152586Y121000D01*
X138273Y112203D02*
X150870Y124800D01*
X162749D01*
X145203Y105273D02*
X154930Y115000D01*
X146617Y103859D02*
X154258Y111500D01*
X101000Y107500D02*
X103842Y110343D01*
X101500Y93500D02*
X104342Y90658D01*
Y90158D02*
Y90658D01*
X121658Y70342D02*
X124500Y67500D01*
X141031Y84555D02*
X147256Y78330D01*
Y74373D02*
Y78330D01*
X154930Y115000D02*
X172051D01*
X154258Y111500D02*
X157449D01*
X157949D01*
X148031Y102445D02*
X150837Y105250D01*
X150476Y100000D02*
X164480D01*
X149375Y101101D02*
X150476Y100000D01*
X177376Y108427D02*
X180449Y111500D01*
X158000Y70000D02*
X159000D01*
X141608Y68608D02*
X147143D01*
X147256Y74373D02*
X152162Y69466D01*
Y65948D02*
Y69466D01*
X140500Y67500D02*
X141608Y68608D01*
X139000Y64000D02*
X141000D01*
X143342Y61658D01*
X113815Y67000D02*
X116157Y69342D01*
X112000Y67000D02*
X113815D01*
X117130Y125500D02*
X119815Y122815D01*
D51*
X33872Y17200D02*
D03*
X42928Y20940D02*
D03*
Y13460D02*
D03*
D52*
X95500Y26587D02*
D03*
Y12413D02*
D03*
X47000Y56087D02*
D03*
Y41913D02*
D03*
D53*
X134900Y11651D02*
D03*
Y5549D02*
D03*
X128000Y5449D02*
D03*
Y11551D02*
D03*
X43000Y25349D02*
D03*
Y31451D02*
D03*
X80000Y47449D02*
D03*
Y53551D02*
D03*
X60500Y50398D02*
D03*
Y56500D02*
D03*
X224000Y107051D02*
D03*
Y100949D02*
D03*
X231000Y107051D02*
D03*
Y100949D02*
D03*
X90000Y146551D02*
D03*
Y140449D02*
D03*
X83000Y146551D02*
D03*
Y140449D02*
D03*
X178400Y7849D02*
D03*
Y13951D02*
D03*
X175300Y79100D02*
D03*
Y72998D02*
D03*
X232000Y123051D02*
D03*
Y116949D02*
D03*
X170500Y138049D02*
D03*
Y144151D02*
D03*
X177000Y137949D02*
D03*
Y144051D02*
D03*
X183500Y137949D02*
D03*
Y144051D02*
D03*
Y126398D02*
D03*
Y132500D02*
D03*
X177000Y126398D02*
D03*
Y132500D02*
D03*
X170500Y126449D02*
D03*
Y132551D02*
D03*
X108000Y17949D02*
D03*
Y24051D02*
D03*
X110700Y5198D02*
D03*
Y11300D02*
D03*
X124500Y34051D02*
D03*
Y27949D02*
D03*
X131500Y34051D02*
D03*
Y27949D02*
D03*
X138500Y34102D02*
D03*
Y28000D02*
D03*
X100000Y132102D02*
D03*
Y126000D02*
D03*
X190000Y144151D02*
D03*
Y138049D02*
D03*
Y126449D02*
D03*
X190000Y132551D02*
D03*
X104500Y69949D02*
D03*
Y76051D02*
D03*
X99000Y69949D02*
D03*
Y76051D02*
D03*
X133000Y49051D02*
D03*
Y42949D02*
D03*
D54*
X36749Y4200D02*
D03*
X42851D02*
D03*
X36749Y8700D02*
D03*
X42851D02*
D03*
X60949Y41000D02*
D03*
X67051D02*
D03*
X60949Y35500D02*
D03*
X67051D02*
D03*
X206451Y101600D02*
D03*
X200349D02*
D03*
X196698Y50600D02*
D03*
X202800D02*
D03*
X215551Y133500D02*
D03*
X209449D02*
D03*
X163551Y111500D02*
D03*
X157449D02*
D03*
X168949D02*
D03*
X175051D02*
D03*
X120949Y58000D02*
D03*
X127051D02*
D03*
X180449Y111500D02*
D03*
X186551D02*
D03*
X157449Y105000D02*
D03*
X163551D02*
D03*
X124551Y63000D02*
D03*
X118449D02*
D03*
D55*
X74240Y55028D02*
D03*
X70500D02*
D03*
X66760D02*
D03*
Y45972D02*
D03*
X70500D02*
D03*
X74240D02*
D03*
D56*
X233000Y169874D02*
D03*
Y154126D02*
D03*
D57*
X225143Y58043D02*
D03*
X229457Y62357D02*
D03*
X219942Y63842D02*
D03*
X224257Y68158D02*
D03*
X143257Y76858D02*
D03*
X138943Y72543D02*
D03*
X215085Y35685D02*
D03*
X219400Y40000D02*
D03*
X227257Y47857D02*
D03*
X222942Y43543D02*
D03*
X119815Y122815D02*
D03*
X115500Y118500D02*
D03*
X102842Y102842D02*
D03*
X107158Y107158D02*
D03*
X103842Y110343D02*
D03*
X108158Y114657D02*
D03*
D58*
X203248Y127500D02*
D03*
Y122500D02*
D03*
Y117500D02*
D03*
Y112500D02*
D03*
X221752Y127500D02*
D03*
Y122500D02*
D03*
Y117500D02*
D03*
Y112500D02*
D03*
D59*
X203601Y56625D02*
D03*
X204945Y57969D02*
D03*
X206359Y59383D02*
D03*
X207773Y60797D02*
D03*
X209117Y62141D02*
D03*
X210531Y63555D02*
D03*
X211945Y64969D02*
D03*
X213359Y66383D02*
D03*
X214703Y67727D02*
D03*
X216117Y69141D02*
D03*
X217531Y70555D02*
D03*
X218875Y71899D02*
D03*
X195399Y95375D02*
D03*
X194055Y94031D02*
D03*
X192641Y92617D02*
D03*
X191227Y91203D02*
D03*
X189883Y89859D02*
D03*
X188469Y88445D02*
D03*
X187055Y87031D02*
D03*
X185641Y85617D02*
D03*
X184297Y84273D02*
D03*
X182883Y82859D02*
D03*
X181469Y81445D02*
D03*
X180125Y80101D02*
D03*
X125899Y116375D02*
D03*
X124555Y115031D02*
D03*
X123141Y113617D02*
D03*
X121727Y112203D02*
D03*
X120383Y110859D02*
D03*
X118969Y109445D02*
D03*
X117555Y108031D02*
D03*
X116141Y106617D02*
D03*
X114797Y105273D02*
D03*
X113383Y103859D02*
D03*
X111969Y102445D02*
D03*
X110625Y101101D02*
D03*
X134101Y77625D02*
D03*
X135445Y78969D02*
D03*
X136859Y80383D02*
D03*
X138273Y81797D02*
D03*
X139617Y83141D02*
D03*
X141031Y84555D02*
D03*
X142445Y85969D02*
D03*
X143859Y87383D02*
D03*
X145203Y88727D02*
D03*
X146617Y90141D02*
D03*
X148031Y91555D02*
D03*
X149375Y92899D02*
D03*
D60*
X218875Y80101D02*
D03*
X217531Y81445D02*
D03*
X216117Y82859D02*
D03*
X214703Y84273D02*
D03*
X213359Y85617D02*
D03*
X211945Y87031D02*
D03*
X210531Y88445D02*
D03*
X209117Y89859D02*
D03*
X207773Y91203D02*
D03*
X206359Y92617D02*
D03*
X204945Y94031D02*
D03*
X203601Y95375D02*
D03*
X180125Y71899D02*
D03*
X181469Y70555D02*
D03*
X182883Y69141D02*
D03*
X184297Y67727D02*
D03*
X185641Y66383D02*
D03*
X187055Y64969D02*
D03*
X188469Y63555D02*
D03*
X189883Y62141D02*
D03*
X191227Y60797D02*
D03*
X192641Y59383D02*
D03*
X194055Y57969D02*
D03*
X195399Y56625D02*
D03*
X110625Y92899D02*
D03*
X111969Y91555D02*
D03*
X113383Y90141D02*
D03*
X114797Y88727D02*
D03*
X116141Y87383D02*
D03*
X117555Y85969D02*
D03*
X118969Y84555D02*
D03*
X120383Y83141D02*
D03*
X121727Y81797D02*
D03*
X123141Y80383D02*
D03*
X124555Y78969D02*
D03*
X125899Y77625D02*
D03*
X149375Y101101D02*
D03*
X148031Y102445D02*
D03*
X146617Y103859D02*
D03*
X145203Y105273D02*
D03*
X143859Y106617D02*
D03*
X142445Y108031D02*
D03*
X141031Y109445D02*
D03*
X139617Y110859D02*
D03*
X138273Y112203D02*
D03*
X136859Y113617D02*
D03*
X135445Y115031D02*
D03*
X134101Y116375D02*
D03*
D61*
X210100Y7677D02*
D03*
Y22441D02*
D03*
X186478Y7677D02*
D03*
Y22441D02*
D03*
X171000Y7700D02*
D03*
Y22464D02*
D03*
X147378Y7700D02*
D03*
Y22464D02*
D03*
D62*
X115500Y11650D02*
D03*
Y5350D02*
D03*
X121500Y11650D02*
D03*
Y5350D02*
D03*
D63*
X157000Y47500D02*
D03*
X147000Y42500D02*
D03*
Y47500D02*
D03*
X152000Y42500D02*
D03*
X157000D02*
D03*
X152000Y47500D02*
D03*
D64*
X220050Y52950D02*
D03*
X209750Y42650D02*
D03*
D65*
X78248Y63000D02*
D03*
X62500D02*
D03*
D66*
X73390Y26059D02*
D03*
X71421D02*
D03*
X63547D02*
D03*
X67484D02*
D03*
X65516D02*
D03*
X69453D02*
D03*
X61579D02*
D03*
X59610D02*
D03*
D67*
X79197D02*
D03*
X56854D02*
D03*
X76146D02*
D03*
X53803D02*
D03*
D68*
X104342Y90158D02*
D03*
X108658Y85843D02*
D03*
X101842Y86158D02*
D03*
X106158Y81842D02*
D03*
X121658Y70342D02*
D03*
X117342Y74657D02*
D03*
X116157Y69342D02*
D03*
X111843Y73658D02*
D03*
X147658Y57342D02*
D03*
X143342Y61658D02*
D03*
X156342Y81657D02*
D03*
X160658Y77342D02*
D03*
X132658Y68343D02*
D03*
X128342Y72658D02*
D03*
D69*
X100000Y62098D02*
D03*
Y36902D02*
D03*
D70*
X158000Y70000D02*
D03*
X151875Y63876D02*
D03*
X153267Y74733D02*
D03*
X147143Y68608D02*
D03*
D71*
X127000Y51500D02*
D03*
X119000D02*
D03*
X127000Y43000D02*
D03*
X119000D02*
D03*
D72*
X71500Y114000D02*
Y115000D01*
X56854Y22710D02*
X63864Y15700D01*
X56854Y22710D02*
Y26059D01*
X69000Y15700D02*
X76146Y22846D01*
Y26059D01*
X43699Y20241D02*
Y20759D01*
X43518Y20940D02*
X43699Y20759D01*
X43000Y20940D02*
X43518D01*
X22500Y153700D02*
X24800Y156000D01*
X33400D02*
X37500Y151900D01*
X24800Y156000D02*
X33400D01*
X37500Y148500D02*
Y151900D01*
X221752Y112500D02*
X229000D01*
X22500Y118500D02*
Y153700D01*
Y118500D02*
X31500Y109500D01*
X232000Y125343D02*
X256000Y149343D01*
X232000Y123051D02*
Y125343D01*
X174000Y54692D02*
Y54800D01*
X164578Y45269D02*
X174000Y54692D01*
X162269Y45269D02*
X164578D01*
X162200Y45200D02*
X162269Y45269D01*
X157000Y37500D02*
Y42500D01*
X215670Y136970D02*
X215800Y137100D01*
X215670Y133619D02*
Y136970D01*
X215551Y133500D02*
X215670Y133619D01*
X220000Y133500D02*
X221752Y131748D01*
X215551Y133500D02*
X220000D01*
X221752Y127500D02*
Y131748D01*
X119000Y37600D02*
X142100D01*
X130231Y58431D02*
X130300Y58500D01*
X127482Y58431D02*
X130231D01*
X127051Y58000D02*
X127482Y58431D01*
X119000Y37600D02*
Y43000D01*
Y35000D02*
Y37600D01*
X136949Y42949D02*
X137000Y43000D01*
X53700Y26162D02*
X53803Y26059D01*
X53700Y26162D02*
Y32000D01*
X79197Y29197D02*
X82000Y32000D01*
X79197Y26059D02*
Y29197D01*
X181500Y122000D02*
X183500Y124000D01*
Y126398D01*
X100087Y12413D02*
X102000Y10500D01*
X95500Y12413D02*
X100087D01*
X205000Y133500D02*
X209449D01*
X243291Y116949D02*
X256000Y129657D01*
X232000Y116949D02*
X243291D01*
X127000Y43000D02*
X132949D01*
X119000D02*
Y51500D01*
X115000Y31000D02*
X119000Y35000D01*
X133000Y42949D02*
X136949D01*
X221752Y122500D02*
X227000D01*
X227551Y123051D01*
X232000D01*
X228000Y117500D02*
X228551Y116949D01*
X221752Y117500D02*
X228000D01*
X203248D02*
Y122500D01*
X127051Y51551D02*
Y58000D01*
X127000Y51500D02*
X127051Y51551D01*
X228551Y116949D02*
X232000D01*
X107000Y31000D02*
X115000D01*
X27484Y148484D02*
X27500Y148500D01*
X27484Y119516D02*
Y148484D01*
X31500Y109500D02*
X61000D01*
X47500Y148500D02*
X71000Y125000D01*
Y124500D02*
Y125000D01*
Y114500D02*
X71500Y114000D01*
Y115000D02*
X77500Y121000D01*
Y128500D01*
X57500Y148500D02*
X77500Y128500D01*
X27484Y119516D02*
X32000Y115000D01*
X42000D01*
X46500Y119500D01*
X61000D01*
X90000Y123531D02*
Y140449D01*
Y123531D02*
X90016Y123516D01*
X71000Y84500D02*
X85551Y69949D01*
X99000D01*
X104500D01*
D73*
X43000Y20940D02*
Y25276D01*
D74*
X30500Y20572D02*
Y27100D01*
Y20572D02*
X33872Y17200D01*
X30500Y27200D02*
Y44200D01*
X20358Y54343D02*
X30500Y44200D01*
X19500Y54343D02*
X20358D01*
X229500Y160000D02*
X233000Y156500D01*
X212000Y160000D02*
X229500D01*
X233000Y154126D02*
Y156500D01*
X207658Y155657D02*
X212000Y160000D01*
X207658Y148500D02*
Y155657D01*
D75*
X256000Y50000D02*
D03*
Y149343D02*
D03*
Y89815D02*
D03*
Y109500D02*
D03*
X19500Y34657D02*
D03*
D76*
X256000Y30315D02*
D03*
Y129657D02*
D03*
Y70130D02*
D03*
X19500Y54343D02*
D03*
D77*
X27500Y148500D02*
D03*
X37500D02*
D03*
X47500D02*
D03*
X57500D02*
D03*
X217657D02*
D03*
X207658D02*
D03*
X197658D02*
D03*
D78*
X61000Y79500D02*
D03*
Y89500D02*
D03*
X71000Y84500D02*
D03*
X61000Y99500D02*
D03*
Y109500D02*
D03*
Y119500D02*
D03*
X71000Y94500D02*
D03*
Y114500D02*
D03*
Y124500D02*
D03*
D79*
X90016Y80484D02*
D03*
X90016Y90484D02*
D03*
X90016Y113516D02*
D03*
Y123516D02*
D03*
D80*
X48008Y133496D02*
D03*
Y70504D02*
D03*
D81*
X162000Y41000D02*
D03*
Y49000D02*
D03*
X142000Y45000D02*
D03*
D82*
X83508Y22457D02*
D03*
X49492D02*
D03*
D83*
X83508Y6000D02*
D03*
X49492D02*
D03*
D84*
X213240Y77477D02*
D03*
X211272Y73540D02*
D03*
X207335Y81414D02*
D03*
X209303Y77477D02*
D03*
X207335Y73540D02*
D03*
X209303Y69603D02*
D03*
X205366Y85351D02*
D03*
X203398Y81414D02*
D03*
X205366Y77477D02*
D03*
X203398Y73540D02*
D03*
X205366Y69603D02*
D03*
X203398Y65665D02*
D03*
X199461Y89288D02*
D03*
X201429Y85351D02*
D03*
X199461Y81414D02*
D03*
X201429Y77477D02*
D03*
X199461Y73540D02*
D03*
X201429Y69603D02*
D03*
X199461Y65665D02*
D03*
X201429Y61728D02*
D03*
X197492Y85351D02*
D03*
X195524Y81414D02*
D03*
X197492Y77477D02*
D03*
X195524Y73540D02*
D03*
X197492Y69603D02*
D03*
X195524Y65665D02*
D03*
X197492Y61728D02*
D03*
X193555Y85351D02*
D03*
X191587Y81414D02*
D03*
X193555Y77477D02*
D03*
X191587Y73540D02*
D03*
X193555Y69603D02*
D03*
X189618Y77477D02*
D03*
X187650Y73540D02*
D03*
X189618Y69603D02*
D03*
X185681Y77477D02*
D03*
X144343Y97162D02*
D03*
X142374Y101099D02*
D03*
X140406Y97162D02*
D03*
X142374Y93225D02*
D03*
X136469Y105035D02*
D03*
X138437Y101099D02*
D03*
X136469Y97162D02*
D03*
X138437Y93225D02*
D03*
X136469Y89288D02*
D03*
X134500Y108973D02*
D03*
X132532Y105035D02*
D03*
X134500Y101099D02*
D03*
X132532Y97162D02*
D03*
X134500Y93225D02*
D03*
X132532Y89288D02*
D03*
X134500Y85351D02*
D03*
X130563Y108973D02*
D03*
X128595Y105035D02*
D03*
X130563Y101099D02*
D03*
X128595Y97162D02*
D03*
X130563Y93225D02*
D03*
X128595Y89288D02*
D03*
X130563Y85351D02*
D03*
X126626Y108973D02*
D03*
X124658Y105035D02*
D03*
X126626Y101099D02*
D03*
X124658Y97162D02*
D03*
X126626Y93225D02*
D03*
X124658Y89288D02*
D03*
X126626Y85351D02*
D03*
X122689Y101099D02*
D03*
X120721Y97162D02*
D03*
X122689Y93225D02*
D03*
X118752Y101099D02*
D03*
X116784Y97162D02*
D03*
X118752Y93225D02*
D03*
X55760Y61728D02*
D03*
X53791Y57791D02*
D03*
X51823Y61728D02*
D03*
X113500Y16300D02*
D03*
X118400Y17200D02*
D03*
X33500Y3800D02*
D03*
X227700Y96300D02*
D03*
X186600Y29900D02*
D03*
X142500Y22464D02*
D03*
X134900Y24700D02*
D03*
X80100Y97500D02*
D03*
X81800Y94000D02*
D03*
X176000Y95000D02*
D03*
X131500Y62057D02*
D03*
X167500Y90000D02*
D03*
X171000Y92500D02*
D03*
X109800Y110000D02*
D03*
X135800Y62100D02*
D03*
X163500Y87000D02*
D03*
X65500Y21000D02*
D03*
X128300Y66400D02*
D03*
X170600Y150000D02*
D03*
X194735Y132565D02*
D03*
X194502Y138100D02*
D03*
X183500Y150000D02*
D03*
X177000D02*
D03*
X191200Y111300D02*
D03*
X168050Y99950D02*
D03*
X227400Y71319D02*
D03*
X232700Y65637D02*
D03*
X234449Y110500D02*
D03*
X229000Y112500D02*
D03*
X206800Y2700D02*
D03*
X206900Y7700D02*
D03*
X196700Y1900D02*
D03*
X187000Y12500D02*
D03*
X190000Y18100D02*
D03*
X182600Y17800D02*
D03*
X206500Y27600D02*
D03*
X231800Y18300D02*
D03*
X207100Y15800D02*
D03*
X217000Y28900D02*
D03*
X225800Y27900D02*
D03*
X226800Y34800D02*
D03*
X196700Y9300D02*
D03*
Y15700D02*
D03*
X197200Y33400D02*
D03*
X222793Y61600D02*
D03*
X200800Y46300D02*
D03*
X182500Y47900D02*
D03*
X178500Y43500D02*
D03*
X175600Y40800D02*
D03*
X172900Y48100D02*
D03*
X237300Y19300D02*
D03*
X230600Y40300D02*
D03*
X215500Y98600D02*
D03*
X201900Y17500D02*
D03*
X184543Y95300D02*
D03*
X164100Y63500D02*
D03*
X173500Y68700D02*
D03*
X174000Y54800D02*
D03*
X162200Y45200D02*
D03*
X157000Y37500D02*
D03*
X215800Y137100D02*
D03*
X157400Y58400D02*
D03*
X142500Y33900D02*
D03*
X154450Y54900D02*
D03*
X160500Y62800D02*
D03*
X133100Y52600D02*
D03*
X130300Y58500D02*
D03*
X116500Y58000D02*
D03*
X83100Y107600D02*
D03*
X99000Y89000D02*
D03*
X98500Y83400D02*
D03*
X99200Y79500D02*
D03*
X109800Y70000D02*
D03*
X99600Y99400D02*
D03*
X102300Y114300D02*
D03*
X105500Y117300D02*
D03*
X196000Y117500D02*
D03*
X212000Y117400D02*
D03*
X219000Y107000D02*
D03*
X96600Y136200D02*
D03*
X104200Y128600D02*
D03*
X144000Y72300D02*
D03*
X164700Y130200D02*
D03*
X167200Y125300D02*
D03*
X177000Y124500D02*
D03*
X115400Y26100D02*
D03*
X112500Y121500D02*
D03*
X120300Y22000D02*
D03*
X115600Y22300D02*
D03*
X178400Y18600D02*
D03*
X196800Y46400D02*
D03*
X197049Y104900D02*
D03*
X206600Y105900D02*
D03*
X162000Y73000D02*
D03*
X160600Y83400D02*
D03*
X175600Y82900D02*
D03*
X224400Y38600D02*
D03*
X142100Y37600D02*
D03*
X137000Y43000D02*
D03*
X192500Y103100D02*
D03*
X67500Y31500D02*
D03*
X181500Y122000D02*
D03*
X172400Y100700D02*
D03*
X212400Y112400D02*
D03*
X205000Y133500D02*
D03*
X196000Y112500D02*
D03*
X166000Y108500D02*
D03*
X101000Y107500D02*
D03*
X101500Y93500D02*
D03*
X124500Y67500D02*
D03*
X180900Y100200D02*
D03*
X139000Y64000D02*
D03*
X140500Y67500D02*
D03*
X176900Y100200D02*
D03*
X112000Y67000D02*
D03*
X117130Y125500D02*
D03*
D85*
X30500Y27100D02*
D03*
X63864Y15700D02*
D03*
X69000D02*
D03*
X53700Y32000D02*
D03*
X82000D02*
D03*
D86*
X102000Y10500D02*
D03*
M02*
